<?xml version="1.0" encoding="UTF-8"?>
<svg xmlns="http://www.w3.org/2000/svg" version="1.1" viewBox="0 0 520.5 314.8">
  <defs>
    <style>
      .cls-1 {
        fill: #01539b;
      }

      .cls-2 {
        fill: #02539b;
      }

      .cls-3 {
        fill: #ea1e2e;
      }
    </style>
  </defs>
  <!-- Generator: Adobe Illustrator 28.7.8, SVG Export Plug-In . SVG Version: 1.2.0 Build 200)  -->
  <g>
    <g id="Layer_1">
      <g id="b530f5b8-9f89-48f5-bce0-e547c6d4dcbf">
        <g id="ec8a4585-73a8-40ab-ae5a-87c5e3cedbc4">
          <g>
            <path class="cls-3" d="M71.4,210c-.3-.3-.7-.5-1.1-.7-11.5-5.5-22.3-12.2-32.2-20.1-9.1-7.2-17.1-15.6-23.7-25.1-6.1-8.8-10.5-18.7-12.8-29.2-2.8-13.2-1.9-27,2.8-39.7,3.4-9.3,8.3-17.9,14.5-25.5,8-9.8,17.3-18.4,27.8-25.4,10.8-7.3,22.3-13.5,34.3-18.4,11.8-4.8,23.9-8.7,36.3-11.6,10.5-2.5,21.1-4.3,31.8-5.5,7.2-.8,14.4-1.3,21.6-1.6,8.7-.3,17.4-.3,26.1.2,11.3.6,22.6,1.8,33.8,3.7,16.2,2.7,32,7.1,47.4,12.9,12.5,4.8,24.6,10.9,35.8,18.2,2.7,1.7,5.3,3.6,7.8,5.5.3.3.7.5,1.1.7.2.4.5.5.8.7,4.5,3.5,8.8,7.3,12.9,11.3,1,1.1,2,2.2,3.1,3.2.2.4.5.8.8,1,5.9,6.4,11,13.7,15,21.4,4.1,8,6.8,16.6,7.9,25.5,1.7,14.4-.9,29-7.5,42-5,10-11.7,19-19.8,26.8-8,7.8-16.9,14.7-26.5,20.5-14.8,8.9-30.6,15.9-47.1,20.8-12.2,3.7-24.7,6.5-37.3,8.4-6.7,1-13.5,1.8-20.3,2.3-8,.6-16.1.9-24.1.9-10.2,0-20.4-.6-30.5-1.7-16.4-1.8-32.7-5.1-48.5-9.9-2.8-.9-5.7-1.8-8.5-2.8-.4-.2-.8-.3-1.2-.3-.4-.2-.7-.3-1.1-.5-5.5-2-11-4.2-16.4-6.6-.9-.5-1.9-1-3-1.3ZM189.2,20c12,41.2,24,82.3,36,123.3.2-.2.4-.6.4-.9.6-2.3,1.3-4.7,1.9-7,3.6-12.9,7.1-25.8,10.7-38.7,5.4-19.6,10.8-39.3,16.2-58.9.3-1.2.6-2.3,1-3.5.3-1,.3-1-.7-1.4-.2,0-.4-.2-.6-.2-5.9-2.2-11.8-4.2-17.9-5.8-14.7-3.9-29.8-6.2-45.1-6.8-.6,0-1.2,0-2,0ZM137.6,143.4c.3-.4.5-.8.6-1.3,1.4-5,2.8-9.9,4.1-14.9,3.9-14.3,7.9-28.7,11.8-43,5.3-19.3,10.6-38.6,16-57.9.5-1.8,1-3.6,1.5-5.4.2-.8.2-.9-.7-.9-.8,0-1.6.1-2.4.2-9.9.6-19.8,1.9-29.6,3.9-10.9,2.2-21.5,5.4-31.8,9.5-1.6.6-1.3.4-.9,1.9,3.3,11.4,6.7,22.9,10,34.3,3.3,11.4,6.7,22.8,10,34.2,3.3,11.2,6.5,22.4,9.8,33.5.5,1.9,1.1,3.8,1.7,5.7ZM172.3,164.6h-19.3c-.4,0-.9,0-1.3,0-.4,0-.7.2-.8.5,0,0,0,0,0,.1,0,.2-.1.5-.2.7-4.2,15.2-8.3,30.4-12.5,45.6-.3,1.1-.6,2.2-.9,3.3-.1.4,0,.7.4.8.2,0,.5,0,.7.1,6.6,1.4,13.2,2.4,19.9,3.2,7.1.8,14.2,1.2,21.3,1.3,8.3,0,16.7-.3,25-1.2,1.1-.1,2.2-.3,3.4-.4.5,0,.7-.2.5-.7,0-.2-.1-.4-.2-.6-1.8-6.6-3.7-13.2-5.5-19.8-3-10.6-5.9-21.2-8.9-31.8-.4-1.4-.4-1.1-1.6-1.1-6.7,0-13.4,0-20.1,0h0ZM285.4,48.8l-.2.2c10.7,36.7,21.4,73.3,32.1,110,.3-.1.6-.4.8-.8,6.4-10.3,10.2-22,11-34,.5-8.4-.5-16.9-3.1-24.9-3-9.5-7.7-18.3-13.9-26.1-7.2-9-15.6-16.9-25.2-23.3-.5-.3-1-.7-1.5-1ZM75.7,50.9c-.3,0-.6,0-.9.3-7.8,5.6-14.9,12.1-21.1,19.4-5.9,6.9-10.6,14.7-14.1,23.1-4.2,10.3-5.9,21.4-4.9,32.4,1.1,11.2,4.7,22.1,10.7,31.7.1.2.2.6.6.6,9.9-35.8,19.7-71.6,29.6-107.5ZM259.8,164.6c-6.7,0-13.4,0-20.1,0-1.3,0-1.1,0-1.4,1.1-.8,3-1.6,6.1-2.5,9.1-.5,1.6-.5,3.4,0,5,3,9.8,5.8,19.7,8.7,29.6.3,1.1.3,1.1,1.5.8.2,0,.3,0,.5-.1,7.4-2.4,14.6-5.4,21.6-8.8,6.7-3.3,13.1-7,19.2-11.2.9-.6.9-.6.6-1.6-2.1-7.6-4.2-15.1-6.3-22.7-.3-1.1,0-1.1-1.6-1.1-6.7,0-13.4,0-20.1,0ZM118,210c0-.4-.1-.9-.3-1.3-3.5-12.8-7-25.6-10.5-38.3-.5-1.7-1-3.4-1.4-5.1-.1-.5-.4-.8-.9-.7-.2,0-.4,0-.6,0h-39.6c-.2,0-.4,0-.6,0-.4,0-.8.2-.8.6,0,0,0,0,0,0-.9,3.5-1.9,7-2.9,10.5-.2.4,0,.9.3,1.2.3.2.5.5.8.8,5.1,4.9,10.6,9.3,16.5,13.2,12,8,25.1,14.4,38.9,18.9.4.2.8.3,1.2.2ZM188.7,147.7c-.1-1.3-16.3-59-16.7-59.7-.2.3-.3.6-.3.9-2,7.3-4,14.7-6,22-3.2,11.8-6.5,23.7-9.7,35.5-.4,1.4-.4,1.4,1,1.4,10.2,0,20.3,0,30.5,0,.4,0,.9,0,1.3-.1ZM259.7,87.8c-.3.4-.5.8-.5,1.2-5.2,19.1-10.4,38.2-15.6,57.2-.4,1.5-.4,1.5,1.1,1.5,10,0,20,0,30,0,2.1,0,1.8,0,1.3-1.7-5-17.9-10-35.8-15-53.8-.4-1.4-.8-2.8-1.3-4.4h0ZM84.7,88.1h-.3c-.1.4-.2.7-.4,1.1-1.2,4.4-2.4,8.9-3.6,13.3-3.8,14-7.7,28-11.5,42.1-.2.9-.5,1.7-.7,2.6-.1.5,0,.7.5.7.2,0,.3,0,.5,0,10.3,0,20.5,0,30.8,0,.3,0,.6.1.9-.3l-16.3-59.4Z"/>
            <path class="cls-1" d="M339.5,63.4c-1.1-1-2.2-2-3.1-3.2-4.1-4-8.4-7.8-12.9-11.3-.3-.2-.6-.4-.8-.7,2.5-1.3,5-2.4,7.6-3.5,13.4-6,27-11.7,40.7-17,19.3-7.6,39-14.1,59.1-19.5,9.9-2.6,20-4.8,30.1-6.4C468.3.6,476.5,0,484.8,0c5.8,0,11.5.7,17.1,2.2,3.6.9,7.1,2.5,10.2,4.7,5.2,3.6,8.3,9.4,8.5,15.7.1,4.4-.5,8.8-2,12.9-2.4,6.8-5.6,13.3-9.7,19.3-6.3,9.4-13.3,18.4-21,26.7-10.9,11.9-22.5,23.2-34.8,33.8-16.6,14.6-33.9,28.2-51.7,41.2-15,11-30.3,21.6-46,31.7-.2.2-.5.3-.7.5-.2.2-.6.2-.8,0,0,0,0,0,0,0-.9-1-1.9-2-2.8-3,.2-.3.5-.6.9-.8,17.4-11.7,34.5-24,50.9-37,13.1-10.4,25.8-21.2,37.8-32.7,9.9-9.3,19.1-19.3,27.4-30,4.4-5.6,8.3-11.7,11.6-18.1,2.1-4,3.5-8.2,4.4-12.6.7-3.4.4-7-.9-10.2-1.2-2.9-3.3-5.3-6-6.9-3.1-1.9-6.6-3.1-10.1-3.7-5.3-.9-10.6-1.3-16-1-8.7.4-17.4,1.5-26,3.3-13.5,2.8-26.8,6.3-39.9,10.7-15.3,5-30.2,10.7-45,16.8-.2,0-.5.2-.7.3Z"/>
            <path class="cls-2" d="M71.4,210c1,.3,2,.7,3,1.3,5.4,2.4,10.8,4.6,16.4,6.6.4.1.7.3,1.1.5-2.5,2.5-5.1,5-7.6,7.5-8.3,8.1-16.1,16.9-23.1,26.1-4.3,5.6-8,11.6-11.1,17.9-1.9,3.8-3.2,7.8-3.9,12-.7,3.7-.1,7.6,1.6,10.9,1.3,2.4,3.3,4.4,5.7,5.8,3.4,2,7.2,3.3,11.1,3.8,5.9.9,11.8,1.1,17.7.6,14.1-.9,27.9-3.9,41.5-7.5,10.6-2.8,20.9-6.1,31.3-9.7,1.3-.4,1.1-.6,1.9.6.6.9,1.3,1.8,2,2.9-2,.8-3.9,1.5-5.8,2.2-11.6,4.2-23.3,8.2-35.2,11.7-12.2,3.6-24.6,6.6-37.1,8.9-8.2,1.5-16.4,2.4-24.7,2.7-6.8.3-13.5-.2-20.2-1.6-4.2-.9-8.3-2.6-11.8-5-5.5-3.7-8.8-10-8.7-16.7,0-5.1,1-10.1,3-14.8,2.8-6.9,6.4-13.5,10.7-19.6,5.7-8.2,12-16,18.7-23.4,7.3-8,15-15.7,22.9-23.1.2-.2.5-.4.7-.6Z"/>
          </g>
        </g>
      </g>
    </g>
  </g>
</svg>