<?xml version="1.0" encoding="UTF-8"?>
<svg xmlns="http://www.w3.org/2000/svg" version="1.1" viewBox="0 0 185.5 36">
  <defs>
    <style>
      .cls-1 {
        fill: #fff;
      }
    </style>
  </defs>
  <!-- Generator: Adobe Illustrator 28.7.8, SVG Export Plug-In . SVG Version: 1.2.0 Build 200)  -->
  <g>
    <g id="Layer_1">
      <path class="cls-1" d="M84.6,23.6c8.7,0,13.1-2.7,13.1-8.6s-3.7-8.4-11.6-8.4-13.5,4.3-14.4,12c-1.4,0-2.9-.1-5.1-.1,0-.4,0-.8,0-1.3,0-7.8-3.2-10.7-11.9-10.7s-7.9.6-10.2,1.6l.3,6.2c2-1.1,4.9-2.1,7.7-2.1s5.2,1.6,5.2,5.5v.6c-.3,0-1,0-1.4,0-9.8,0-14.4,3-14.4,8.5s2.8,9,10.9,9,8.5-.6,13.9-.6c-.4-2.3-.4-5.6-.4-7.8s0-2.6.1-4.2c2.3,0,4,0,5.1.1.8,9.1,5.6,12.5,15.4,12.5s7.3-.6,9.3-1.5l-.3-6.2c-1.9,1.1-4.6,2-7.5,2-4.8,0-7.5-2.5-7.5-6.5v-.2c.9,0,2.6,0,3.6,0ZM55,30.5c-3,0-4.3-1-4.3-3.5s1.6-3.8,5.7-3.8.8,0,1.2,0c0,2.3,0,5.1,0,7-.7.2-1.8.3-2.7.3ZM80.9,18.8h0c0-4.1,1.2-6.9,4.8-6.9s3.3,1.1,3.3,3-1.8,4-5.6,4-1.9,0-2.6,0ZM115.4,29.7c-2.9,0-3.8-1.1-3.8-5.4v-10.9h5.7v-6h-5.6c0-2.1.2-5.3.3-7.5h-5.3c-.7,5.3-2.2,8-7.1,8.8,0,1.4,0,3.4,0,4.7h3.2c0,3-.1,8.5-.1,13.5s3.3,9,9.5,9,5.2-.4,6-.7l-.4-6.2c-.5.4-1.6.6-2.5.6ZM175.8,17.2c0-7.8-3.2-10.7-11.9-10.7s-7.9.6-10.2,1.6l.3,6.2c2-1.1,4.9-2.1,7.7-2.1s5.1,1.6,5.1,5.5v.6c-.3,0-1,0-1.4,0-9.9,0-14.4,3-14.4,8.5s2.8,9,10.9,9,8.4-.6,13.9-.6c-.4-2.3-.4-5.6-.4-7.8,0-2.6.3-6.1.3-10.3ZM164.1,30.5c-3,0-4.3-1-4.3-3.5s1.6-3.8,5.7-3.8.8,0,1.2,0c0,2.3,0,5.1,0,7-.7.2-1.8.3-2.7.3ZM147.5,22.4c0-2.4,0-5.5,0-5.5,0-7.1-3.1-10.2-11.9-10.2s-8.4.9-13.9.9c.3,5,.3,11.1.3,14.9,0,3.9-.1,10.8-.3,13h9.4c-.2-2.2-.4-8.7-.4-13,0-2.5,0-5.5.1-9.5.9-.3,2.1-.6,3.4-.6,3.3,0,4.4,1.6,4.4,5.8,0,0,0,2.7,0,4.2,0,3.9-.1,10.8-.3,13h9.4c-.2-2.3-.4-8.7-.4-13ZM30.9,5.3c-.9-.9-2-1.3-3.2-1.3s-2.3.4-3.2,1.3l-5.2,5.2-5.2-5.2c-.9-.9-2-1.3-3.2-1.3s-2.3.4-3.2,1.3L1.3,11.7c-1.8,1.8-1.8,4.6,0,6.4l17.9,17.9,17.9-17.9c1.8-1.8,1.8-4.6,0-6.4l-6.4-6.3ZM183.2,8.2c0-.9-.6-1.3-1.7-1.3h-1.8v4.7h.8v-2h.7l1.2,2h.9l-1.3-2.1c.7,0,1.2-.4,1.2-1.3ZM180.5,8.9v-1.4h.9c.5,0,1,0,1,.6s-.5.7-1.1.7h-.9ZM181.4,4.9c-2.2,0-4.2,1.7-4.2,4.2s1.7,4.2,4.2,4.2,4.1-1.7,4.1-4.2-1.9-4.2-4.1-4.2ZM181.4,12.6c-2,0-3.3-1.6-3.3-3.5s1.4-3.5,3.3-3.5,3.2,1.4,3.2,3.5-1.4,3.5-3.2,3.5Z"/>
    </g>
  </g>
</svg>