<svg width="513" height="164" viewBox="0 0 513 164" fill="none" xmlns="http://www.w3.org/2000/svg">
<path d="M498.553 151.726H499.813C501.213 151.726 502.473 151.306 502.473 150.046C502.473 149.066 501.773 148.366 500.093 148.366C499.393 148.366 498.973 148.506 498.693 148.506V151.726H498.553ZM498.413 158.176H495.753V146.816C496.733 146.676 498.273 146.396 500.103 146.396C502.203 146.396 503.183 146.816 504.033 147.236C504.593 147.656 505.153 148.636 505.153 149.616C505.153 150.876 504.173 151.856 502.773 152.276V152.416C503.893 152.836 504.453 153.676 504.873 155.216C505.293 156.896 505.433 157.596 505.713 158.016H502.913C502.633 157.596 502.353 156.616 502.073 155.356C501.793 154.096 501.233 153.536 499.693 153.536H498.433L498.413 158.176ZM500.233 143.176C495.183 143.176 491.543 147.246 491.543 152.286C491.543 157.326 495.333 161.396 500.373 161.396C505.413 161.396 509.063 157.326 509.063 152.286C509.063 147.246 505.423 143.176 500.233 143.176ZM500.373 140.786C506.963 140.786 512.013 145.836 512.013 152.146C512.013 158.596 506.963 163.646 500.373 163.646C493.783 163.646 488.593 158.596 488.593 152.146C488.593 145.836 493.783 140.786 500.373 140.786Z" fill="#02A6E3"/>
<path d="M59.8763 118.773H103.346L119.326 159.013H148.626L85.8163 8.4234H63.5263L0.00634766 159.013H26.6463C26.6463 159.013 53.2863 93.1134 53.8463 91.9934C54.4063 90.7334 54.9663 89.4734 55.5263 87.9234C56.0863 86.3834 56.9263 84.4134 57.7663 82.0334L62.1163 71.6534C63.5163 68.2834 64.6363 65.4834 65.4863 63.2434C66.3263 60.8634 67.3063 58.7534 68.1463 56.5134C68.9863 54.4134 69.8263 52.1634 70.5263 49.9234C71.2263 47.6834 72.2063 45.0134 73.1863 41.7934H73.8863C74.8663 45.0134 75.8463 47.6834 76.5463 49.9234C77.2463 52.1634 77.9463 54.2734 78.6463 56.3734C79.3463 58.3334 80.0463 60.5834 81.0263 62.9634C81.8663 65.3434 82.9863 68.1534 84.3963 71.6534L88.7463 82.4534C89.5863 84.5534 90.4263 86.3834 90.9863 87.7834C91.5463 89.1834 92.1063 90.5834 92.5263 91.7134C92.9463 92.9734 93.5063 94.0934 94.0663 95.3634C94.6263 96.6234 96.0263 99.4334 96.0263 99.4334H50.5963L59.8763 118.773Z" fill="#02A6E3"/>
<path d="M210.287 76.6078H183.787C183.787 77.0278 183.927 159.048 183.927 159.048H157.987V81.0878V76.5978H137.937V57.6678H157.987V53.1778V46.5878C157.987 39.8578 158.967 33.6878 161.067 28.2178C163.027 22.7478 165.977 17.9778 169.897 14.0578C173.687 10.1278 178.447 7.04782 183.917 4.66782C189.387 2.28782 195.557 0.877803 202.287 0.457803C205.657 0.177803 208.457 0.177803 210.837 0.457803C213.217 0.737803 216.027 1.29778 219.247 1.99778L215.177 20.7878C213.497 20.5078 211.957 20.3678 210.547 20.2278C209.147 20.0878 207.327 20.2278 205.077 20.3678C196.947 21.0678 191.197 23.5878 187.967 27.7978C186.287 30.0378 185.167 32.7078 184.597 35.6478C184.037 38.5878 183.757 43.3578 183.757 49.8078V57.6578H210.677V76.5878L210.287 76.6078Z" fill="#02A6E3"/>
<path d="M380.92 144.13C379.38 143.71 377.98 142.87 376.99 141.89C376.43 141.19 375.87 140.35 375.59 139.65C375.17 138.95 374.89 137.83 374.75 136.57C374.47 135.31 374.33 133.63 374.33 131.66C374.19 129.7 374.19 127.17 374.19 123.95V94.09C374.19 81.19 371.95 71.94 367.46 66.47C364.09 62.68 359.89 59.74 354.42 57.78C349.09 55.82 342.92 54.7 336.05 54.7C323.57 54.7 310.39 58.35 296.79 65.5V84.99C303.52 81.48 309.27 78.96 313.9 77.42C318.53 75.88 323.15 74.9 328.06 74.62C334.37 74.2 339.42 75.32 343.2 78.13C346.98 80.94 348.81 84.86 348.81 90.05V91.59V95.1C339.28 95.8 331.7 96.92 324.13 98.47C316.56 100.02 310.81 101.84 307.02 103.8C301.55 106.6 297.35 110.53 294.12 115.44C290.89 120.35 289.35 125.68 289.35 131.42C289.35 140.95 291.87 148.25 297.06 153.29C299.58 155.95 302.95 158.2 306.87 159.74C310.8 161.28 314.86 162.12 318.93 162.12C322.15 162.12 324.96 161.98 327.34 161.56C329.86 161.14 332.25 160.58 334.77 159.6C337.29 158.76 339.82 157.36 342.62 155.81C345.28 154.13 348.51 152.02 352.15 149.22C353.97 156.09 359.3 160.16 368.13 161.42C370.65 161.7 373.04 161.84 375.42 161.7C377.66 161.56 380.75 161.14 384.39 160.44L387.76 144.46C384.71 144.69 382.47 144.55 380.92 144.13ZM348.53 117.91V137.4C340.54 142.17 334.09 144.69 329.32 144.69C324.41 144.69 320.49 143.43 317.54 140.76C314.74 138.1 313.33 134.59 313.75 130.24C314.03 124.21 316.97 119.58 322.44 116.5C327.91 113.28 336.04 111.17 348.52 109.49V117.91H348.53Z" fill="#02A6E3"/>
<path d="M258.66 2.09998H232.72V159H258.66V2.09998Z" fill="#02A6E3"/>
<path d="M465.041 83.8386C460.691 81.0386 456.911 79.0685 453.681 77.9485C450.461 76.8285 446.951 76.4085 443.021 76.4085C439.091 76.4085 435.451 77.1086 432.221 78.6486C428.851 80.1886 426.051 82.2985 423.671 84.8185C421.291 87.4785 419.321 90.5685 418.061 94.3485C416.661 97.9985 415.961 102.059 415.961 106.409C415.961 111.179 416.661 115.659 418.061 119.729C419.461 123.799 421.431 127.299 423.951 130.249C426.471 133.189 429.421 135.439 432.921 137.119C436.431 138.799 440.211 139.639 444.281 139.639C446.521 139.639 448.631 139.499 450.451 139.359C452.271 139.079 454.241 138.799 455.921 138.239C457.741 137.679 459.571 136.979 461.391 136.139C463.211 135.299 465.461 134.039 467.841 132.769L476.391 150.439C465.871 158.429 453.681 162.359 440.081 162.359C432.371 162.359 425.501 161.099 419.191 158.429C412.881 155.769 407.551 152.119 403.211 147.209C398.721 142.439 395.361 136.549 392.971 129.819C390.591 123.089 389.321 115.519 389.321 107.249C389.321 100.379 390.721 93.6485 393.531 87.1985C396.331 80.7485 400.121 75.1386 404.891 70.3686C409.661 65.5986 415.131 61.6786 421.431 58.8686C427.741 56.0686 434.331 54.5186 441.201 54.5186C448.491 54.5186 454.661 55.3586 459.991 56.8986C465.321 58.4386 470.511 61.1085 475.831 64.8885L465.041 83.8386Z" fill="#02A6E3"/>
<path d="M237.91 45C236.65 51.87 234.97 60.98 229.22 67.15C223.75 73.18 216.74 77.95 209.03 82.71C206.37 84.39 205.38 86.08 205.38 88.6C205.38 90.42 206.22 91.97 207.62 91.97C209.44 91.97 210.56 90.99 213.23 90.99C216.6 90.99 220.66 93.65 222.9 94.92C220.24 96.88 215.19 99.55 215.19 104.03C215.19 107.4 218.98 111.74 229.07 111.74C238.46 111.74 250.8 101.08 257.11 96.18C260.34 85.81 254.59 64.91 237.91 45Z" fill="white"/>
<path d="M245.856 155.413C244.188 159.819 246.323 161.687 249.995 161.687C257.571 144.167 262.376 119.438 263.778 103.487C261.41 103.221 259.106 102.954 257.438 102.754C257.438 125.046 252.163 140.028 245.856 155.413Z" fill="white"/>
<path d="M249.995 161.654C253.632 161.654 262.376 161.654 266.513 161.654C272.42 144.034 273.02 107.959 273.02 104.423C270.918 104.289 267.279 103.856 263.776 103.454C262.343 119.405 257.571 144.167 249.995 161.654Z" fill="white"/>
<path d="M266.513 161.654C267.246 161.654 267.948 161.654 268.681 161.654C274.053 145.203 275.021 108.193 275.021 104.956C273.819 104.789 273.086 104.423 273.02 104.423C273.02 107.959 272.42 144.034 266.513 161.654Z" fill="white"/>
<path d="M268.683 161.654C268.983 161.654 269.316 161.654 269.619 161.654C274.757 145.669 275.893 108.226 275.926 105.089C275.626 105.056 275.293 105.022 275.024 104.956C274.991 108.193 274.055 145.203 268.683 161.654Z" fill="white"/>
<path d="M269.616 161.654C269.65 161.654 269.683 161.654 269.683 161.654C274.822 145.702 275.957 108.226 275.99 105.089C275.957 105.089 275.924 105.089 275.89 105.089C275.89 108.226 274.757 145.669 269.616 161.654Z" fill="white"/>
<path d="M269.683 161.654C269.75 161.654 269.816 161.654 269.883 161.654C274.988 145.802 276.157 108.226 276.224 105.122C276.157 105.122 276.09 105.089 276.024 105.089C275.99 108.226 274.824 145.736 269.683 161.654Z" fill="white"/>
<path d="M269.883 161.654C273.753 161.654 277.059 161.654 280.929 161.654C283.433 151.141 286.636 108.126 286.87 105.924C286.436 105.858 280.362 105.624 276.224 105.122C276.19 108.226 274.991 145.836 269.883 161.654Z" fill="white"/>
<path d="M280.929 161.654C283.433 151.141 286.636 108.126 286.869 105.924C287.269 105.991 287.805 106.024 288.471 106.091C288.438 112.132 286.034 149.472 283.832 161.654C282.697 161.654 281.664 161.654 280.929 161.654Z" fill="white"/>
<path d="M283.799 161.654C284.901 161.654 286.101 161.654 287.169 161.654C288.138 154.68 289.071 143.298 289.706 132.422C288.771 132.388 287.838 131.955 286.969 131.553C286.07 143.165 284.934 155.546 283.799 161.654Z" fill="white"/>
<path d="M286.969 131.553C287.838 131.986 288.805 132.388 289.707 132.422C290.34 121.542 290.742 111.165 290.642 106.26C289.84 106.193 289.107 106.127 288.44 106.06C288.438 109.095 287.838 119.941 286.969 131.553Z" fill="#FEFFFF"/>
<path d="M287.169 161.654C289.673 161.654 291.308 161.054 292.408 160.118C293.643 152.143 294.21 142.665 294.51 133.255C293.241 132.988 291.672 132.522 289.704 132.455C289.073 143.334 288.138 154.713 287.169 161.654Z" fill="white"/>
<path d="M289.707 132.455C291.642 132.522 293.243 132.988 294.512 133.255C294.679 128.549 294.778 123.844 294.845 119.372C293.51 118.336 292.008 117.27 290.44 117.17C290.306 121.709 290.04 127.014 289.707 132.455Z" fill="#FBFBFD"/>
<path d="M290.473 117.137C292.041 117.237 293.51 118.305 294.878 119.338C294.978 114.833 295.045 110.561 295.145 106.691C293.643 106.524 292.075 106.391 290.673 106.258C290.709 108.761 290.64 112.565 290.473 117.137Z" fill="#F8FAFC"/>
<path d="M292.41 160.118C293.479 159.15 294.012 157.817 294.245 156.348C295.714 147.371 296.716 140.397 297.482 133.021C296.782 133.654 295.814 133.554 294.545 133.288C294.179 142.665 293.61 152.143 292.41 160.118Z" fill="white"/>
<path d="M294.512 133.255C295.145 133.388 295.714 133.488 296.214 133.488C296.447 129.349 296.614 125.146 296.78 120.774C296.18 120.407 295.545 119.905 294.878 119.372C294.779 123.844 294.679 128.516 294.512 133.255Z" fill="#EEF1F7"/>
<path d="M294.845 119.338C295.511 119.872 296.147 120.374 296.747 120.74C296.913 116.368 297.08 111.796 297.28 106.957C296.58 106.857 295.845 106.791 295.078 106.691C295.012 110.596 294.945 114.869 294.845 119.338Z" fill="#E3E8F2"/>
<path d="M296.214 133.455C296.713 133.421 297.116 133.288 297.482 132.988C297.849 129.285 298.182 125.512 298.484 121.309C297.951 121.342 297.416 121.109 296.816 120.743C296.613 125.112 296.447 129.318 296.214 133.455Z" fill="#E2E8F2"/>
<path d="M296.78 120.74C297.38 121.107 297.949 121.34 298.448 121.307C298.748 117.101 298.982 112.529 299.251 107.257C298.651 107.157 297.982 107.057 297.316 106.957C297.116 111.798 296.947 116.37 296.78 120.74Z" fill="#D2DBEB"/>
<path d="M257.438 102.754C261.577 103.187 269.486 104.189 272.989 104.422C272.989 102.821 272.989 101.485 272.956 100.317C269.319 100.483 261.81 100.85 257.404 99.4815C257.438 100.486 257.438 101.452 257.438 102.754Z" fill="white"/>
<path d="M257.404 99.5172C261.81 100.886 269.283 100.519 272.955 100.353C272.922 99.184 272.856 98.1844 272.756 97.249C268.986 97.8488 261.876 98.4176 257.171 96.1137C257.338 97.4823 257.404 98.5152 257.404 99.5172Z" fill="white"/>
<path d="M257.202 96.1137C256.935 93.3766 256.602 92.6768 256.167 90.2397C258.77 92.4412 261.672 93.1433 264.409 93.21C264.908 95.3782 265.108 95.5448 265.344 97.7821C262.476 97.6821 259.539 97.249 257.202 96.1137Z" fill="white"/>
<path d="M265.313 97.7488C268.15 97.8154 270.887 97.5156 272.756 97.2157C272.656 96.3803 272.556 95.5806 272.389 94.7452C270.454 95.1117 267.75 95.5448 264.947 95.4116C265.111 96.047 265.211 96.6468 265.313 97.7488Z" fill="#F4F6FA"/>
<path d="M264.978 95.4449C267.781 95.5448 270.483 95.145 272.42 94.7785C272.253 93.9764 272.054 93.11 271.787 92.1747C269.785 92.6412 267.182 93.2433 264.411 93.1767C264.644 94.2787 264.811 94.8784 264.978 95.4449Z" fill="#EEF1F7"/>
<path d="M273.02 104.423C273.12 104.423 273.855 104.789 275.021 104.956C275.088 103.62 275.155 102.319 275.188 101.052C274.019 100.952 273.153 100.453 272.953 100.486C272.986 101.619 273.02 102.887 273.02 104.423Z" fill="white"/>
<path d="M272.953 100.486C273.153 100.453 274.022 100.986 275.188 101.052C275.255 99.8171 275.288 98.6152 275.288 97.4489C274.153 97.5822 273.22 97.3823 272.784 97.4823C272.887 98.4153 272.953 99.3839 272.953 100.486Z" fill="#FAFBFD"/>
<path d="M272.787 97.5156C273.22 97.4156 274.155 97.6155 275.291 97.4822C275.291 96.3469 275.257 95.2474 275.191 94.1787C274.089 94.5119 273.089 94.7451 272.42 94.9118C272.587 95.7805 272.72 96.6135 272.787 97.5156Z" fill="#EEF1F7"/>
<path d="M272.42 94.9117C273.087 94.7451 274.089 94.5119 275.191 94.1787C275.124 93.1434 274.957 92.1437 274.757 91.2084C273.689 91.6415 272.556 92.0081 271.787 92.177C272.054 93.1767 272.254 94.0454 272.42 94.9117Z" fill="#E2E8F2"/>
<path d="M275.024 104.956C275.224 104.989 275.457 105.022 275.69 105.056C275.757 103.754 275.857 102.452 275.957 101.186C275.724 101.186 275.457 101.086 275.224 101.086C275.157 102.321 275.091 103.623 275.024 104.956Z" fill="white"/>
<path d="M275.19 101.086C275.424 101.086 275.69 101.186 275.924 101.186C276.023 99.8837 276.09 98.6151 276.123 97.3823C275.857 97.4489 275.557 97.4489 275.288 97.4822C275.29 98.6152 275.257 99.8171 275.19 101.086Z" fill="#F9FAFC"/>
<path d="M275.324 97.4822C275.59 97.4156 275.89 97.4489 276.159 97.3823C276.193 96.147 276.193 94.9784 276.159 93.8455C275.859 93.9455 275.559 94.0787 275.224 94.1787C275.291 95.245 275.324 96.3136 275.324 97.4822Z" fill="#EDF0F7"/>
<path d="M275.19 94.1787C275.524 94.0787 275.824 93.9455 276.126 93.8455C276.059 92.7435 275.959 91.7106 275.759 90.7752C275.426 90.9085 275.093 91.0418 274.757 91.1751C274.991 92.1414 275.124 93.1434 275.19 94.1787Z" fill="#E0E7F1"/>
<path d="M275.657 105.056C275.757 105.056 275.89 105.089 275.99 105.089C276.09 103.82 276.19 102.518 276.29 101.219C276.157 101.219 276.057 101.186 275.924 101.186C275.857 102.454 275.757 103.756 275.657 105.056Z" fill="white"/>
<path d="M275.924 101.186C276.057 101.186 276.157 101.219 276.29 101.219C276.39 99.917 276.49 98.5818 276.523 97.3156C276.39 97.3489 276.257 97.3489 276.124 97.3823C276.09 98.6151 276.024 99.8837 275.924 101.186Z" fill="#F9FAFC"/>
<path d="M276.157 97.3823C276.29 97.3489 276.423 97.3489 276.557 97.3156C276.623 96.047 276.623 94.8118 276.59 93.6789C276.423 93.7455 276.29 93.7788 276.157 93.8455C276.19 94.9451 276.19 96.147 276.157 97.3823Z" fill="#EDF0F7"/>
<path d="M276.123 93.8431C276.29 93.7765 276.423 93.7432 276.557 93.6765C276.523 92.5413 276.423 91.475 276.223 90.5729C276.057 90.6396 275.89 90.7062 275.757 90.7728C275.957 91.7082 276.09 92.7435 276.123 93.8431Z" fill="#DFE5F1"/>
<path d="M276.023 105.089C276.523 105.156 277.025 105.222 277.592 105.255C277.692 104.087 277.792 102.785 277.925 101.386C277.392 101.386 276.856 101.219 276.323 101.219C276.19 102.521 276.09 103.823 276.023 105.089Z" fill="white"/>
<path d="M276.29 101.219C276.79 101.219 277.359 101.386 277.892 101.386C278.025 99.9837 278.125 98.5152 278.225 97.1133C277.659 97.2133 277.123 97.2133 276.557 97.3132C276.492 98.5818 276.392 99.917 276.29 101.219Z" fill="#F9FAFC"/>
<path d="M276.559 97.3156C277.126 97.2157 277.661 97.2157 278.228 97.1157C278.294 95.6805 278.361 94.2787 278.327 93.0101C277.761 93.21 277.192 93.4433 276.592 93.6765C276.626 94.8118 276.626 96.047 276.559 97.3156Z" fill="#EDF0F7"/>
<path d="M276.592 93.6765C277.192 93.4433 277.761 93.2433 278.327 93.0101C278.294 91.7415 278.227 90.6062 278.027 89.7399C277.461 90.0064 276.892 90.273 276.259 90.5753C276.459 91.4749 276.559 92.5436 276.592 93.6765Z" fill="#DFE5F1"/>
<path d="M277.559 105.258C279.56 105.458 281.797 105.591 283.566 105.724C283.633 104.856 283.799 103.356 283.932 101.552C282.231 101.452 280.062 101.352 277.892 101.419C277.792 102.787 277.659 104.123 277.559 105.258Z" fill="white"/>
<path d="M277.892 101.386C280.06 101.319 282.231 101.452 283.932 101.519C284.099 99.6838 284.266 97.5465 284.399 95.3782C282.831 95.8781 280.829 96.4136 278.225 97.08C278.127 98.5485 278.028 100.017 277.892 101.386Z" fill="#F9FAFC"/>
<path d="M278.228 97.1133C280.831 96.4802 282.833 95.9447 284.401 95.4115C284.535 93.2766 284.635 91.106 284.635 89.271C283.2 90.5062 281.331 91.8081 278.328 93.0077C278.361 94.2786 278.294 95.6805 278.228 97.1133Z" fill="#EDF0F7"/>
<path d="M278.327 93.0101C281.331 91.7748 283.199 90.5063 284.635 89.2734C284.635 87.4383 284.568 85.9032 284.335 85.0345C283 86.6029 281.231 88.2714 278.028 89.7399C278.228 90.6395 278.294 91.7748 278.327 93.0101Z" fill="#DFE5F1"/>
<path d="M283.566 105.724C285.334 105.824 286.67 105.891 286.869 105.924C286.936 105.358 287.103 103.723 287.303 101.552C286.903 101.719 285.634 101.652 283.932 101.552C283.799 103.354 283.633 104.856 283.566 105.724Z" fill="white"/>
<path d="M283.932 101.552C285.634 101.652 286.903 101.719 287.303 101.552C287.502 99.3506 287.769 96.6135 287.969 93.8098C287.1 94.4096 285.967 94.9118 284.399 95.4116C284.266 97.5822 284.099 99.7171 283.932 101.552Z" fill="#F9FAFC"/>
<path d="M284.401 95.4116C285.97 94.9117 287.105 94.4096 287.971 93.8098C288.171 91.0061 288.338 88.2023 288.405 85.8342C287.069 86.8362 286.07 88.0358 284.601 89.271C284.635 91.1084 284.535 93.2766 284.401 95.4116Z" fill="#EDF0F7"/>
<path d="M284.635 89.2734C286.07 88.0381 287.105 86.8719 288.438 85.8365C288.505 83.5017 288.438 81.631 288.171 80.7313C286.636 81.9332 285.701 83.4351 284.335 85.0035C284.568 85.9008 284.635 87.436 284.635 89.2734Z" fill="#DEE5F1"/>
<path d="M286.869 105.924C287.436 105.991 288.238 106.091 289.204 106.158C289.271 105.222 289.471 103.254 289.737 100.786C288.769 101.219 287.902 101.519 287.333 101.552C287.103 103.723 286.936 105.358 286.869 105.924Z" fill="white"/>
<path d="M287.303 101.552C287.903 101.519 288.738 101.219 289.707 100.786C289.94 98.3152 290.24 95.314 290.473 92.3103C289.504 93.0101 288.638 93.5456 287.969 93.8455C287.772 96.6135 287.538 99.3506 287.303 101.552Z" fill="#F8FAFC"/>
<path d="M289.207 106.158C290.175 106.258 291.308 106.357 292.477 106.457C292.577 104.656 292.777 102.152 292.977 99.2482C291.842 99.7814 290.709 100.35 289.74 100.783C289.507 103.254 289.273 105.225 289.207 106.158Z" fill="#F8FAFC"/>
<path d="M289.74 100.786C290.708 100.353 291.841 99.8171 292.977 99.2506C293.177 96.3802 293.376 93.1434 293.543 89.9398C292.508 90.7752 291.475 91.6082 290.506 92.2746C290.273 95.3116 289.973 98.3153 289.74 100.786Z" fill="#EEF1F7"/>
<path d="M288.005 93.8098C288.671 93.5432 289.573 92.9744 290.508 92.2747C290.742 89.271 290.942 86.2341 291.008 83.666C290.106 84.568 289.207 85.3011 288.438 85.8342C288.371 88.2048 288.205 91.0418 288.005 93.8098Z" fill="#E7ECF4"/>
<path d="M288.438 85.8342C289.204 85.301 290.106 84.5323 291.008 83.6659C291.075 81.0955 291.008 79.0272 290.709 77.9252C289.84 79.1271 288.973 80.1268 288.171 80.7623C288.438 81.631 288.471 83.4993 288.438 85.8342Z" fill="#D7DFEE"/>
<path d="M290.506 92.2747C291.475 91.5749 292.508 90.7728 293.543 89.9398C293.71 86.7362 293.776 83.5327 293.743 80.7623C292.841 81.7976 291.908 82.7972 290.973 83.6659C290.942 86.2364 290.742 89.2734 290.506 92.2747Z" fill="#DCE3EF"/>
<path d="M291.008 83.666C291.91 82.7639 292.877 81.7643 293.779 80.7623C293.745 77.9586 293.579 75.5904 293.246 73.9553C292.446 75.3572 291.61 76.7257 290.742 77.9276C291.008 79.0272 291.075 81.1288 291.008 83.666Z" fill="#CAD4E7"/>
<path d="M292.51 106.457C293.679 106.557 294.914 106.691 296.08 106.824C296.214 104.187 296.347 101.083 296.447 97.7797C295.345 98.1796 294.179 98.7151 293.01 99.2482C292.777 102.154 292.61 104.656 292.51 106.457Z" fill="#E6EAF4"/>
<path d="M292.977 99.2506C294.112 98.7175 295.312 98.182 296.414 97.7821C296.514 94.4786 296.547 91.0085 296.547 87.5716C295.612 88.2714 294.579 89.1068 293.543 89.9398C293.377 93.1434 293.177 96.3803 292.977 99.2506Z" fill="#D7DFEE"/>
<path d="M296.047 106.826C297.215 106.96 298.315 107.093 299.25 107.26C299.384 104.223 299.417 100.786 299.35 97.149C298.515 97.1157 297.482 97.3823 296.38 97.7821C296.313 101.086 296.18 104.156 296.047 106.826Z" fill="#C8D3E7"/>
<path d="M296.414 97.7821C297.516 97.3823 298.548 97.1157 299.384 97.149C299.317 93.5123 299.151 89.7399 298.917 86.0032C298.318 86.303 297.482 86.8719 296.549 87.5716C296.547 91.0084 296.514 94.4786 296.414 97.7821Z" fill="#B5C5DE"/>
<path d="M293.543 89.9398C294.579 89.1044 295.611 88.2714 296.547 87.5717C296.514 84.1348 296.447 80.798 296.247 77.761C295.514 78.6964 294.678 79.7294 293.776 80.7647C293.776 83.566 293.676 86.7363 293.543 89.9398Z" fill="#C2CFE4"/>
<path d="M293.743 80.7623C294.645 79.7269 295.478 78.694 296.214 77.7586C296.014 74.7217 295.714 72.0179 295.312 69.883C294.712 71.1515 293.976 72.5534 293.21 73.9553C293.576 75.5904 293.71 77.9586 293.743 80.7623Z" fill="#B1C1DC"/>
<path d="M296.547 87.5692C297.482 86.8695 298.282 86.3006 298.915 86.0008C298.682 82.2974 298.349 78.6583 297.98 75.3547C297.58 75.9878 296.978 76.8232 296.245 77.7586C296.414 80.7956 296.514 84.1657 296.547 87.5692Z" fill="#A0B4D4"/>
<path d="M296.247 77.7586C296.98 76.8232 297.582 75.9902 297.982 75.3547C297.615 72.0512 297.182 69.1142 296.713 66.746C296.413 67.5124 295.947 68.6144 295.312 69.8829C295.747 72.0202 296.047 74.7216 296.247 77.7586Z" fill="#8FA7CC"/>
<path d="M256.136 90.2396C258.74 92.4412 261.641 93.1433 264.378 93.21C263.711 89.8731 263.076 87.2693 262.376 84.8345C259.239 83.1328 255.869 80.6956 253.065 78.1275C254.134 81.0288 255.134 84.7346 256.136 90.2396Z" fill="white"/>
<path d="M253.065 78.0918C255.869 80.6956 259.239 83.1304 262.376 84.7988C261.677 82.3283 260.908 80.0268 260.041 77.2897C256.538 75.8546 252.732 73.553 249.695 70.5827C250.931 73.0199 252.03 75.1572 253.065 78.0918Z" fill="white"/>
<path d="M264.411 93.21C267.182 93.2766 269.783 92.6435 271.787 92.208C271.487 91.0727 270.952 89.3043 270.385 87.0694C268.45 87.4693 265.513 86.503 262.376 84.8345C263.109 87.2694 263.745 89.8731 264.411 93.21Z" fill="#EBEEF6"/>
<path d="M262.376 84.8013C265.513 86.503 268.45 87.4384 270.385 87.0361C269.819 84.8013 269.183 82.0975 268.65 79.0272C266.782 79.3604 263.578 78.7273 260.075 77.2921C260.908 80.0292 261.674 82.3641 262.376 84.8013Z" fill="#F1F4F9"/>
<path d="M271.787 92.1747C272.822 91.9414 274.424 91.3726 275.793 90.7728C275.393 89.6708 274.857 87.9691 274.224 85.8009C272.789 86.3673 271.321 86.8695 270.421 87.0361C270.952 89.2734 271.451 91.0418 271.787 92.1747Z" fill="#DEE5F1"/>
<path d="M270.385 87.0361C271.287 86.8695 272.789 86.3697 274.188 85.8009C273.589 83.6326 272.92 80.9622 272.287 77.9919C270.785 78.5583 269.416 78.9272 268.617 79.0605C269.183 82.0975 269.816 84.8013 270.385 87.0361Z" fill="#E7ECF4"/>
<path d="M275.757 90.7728C276.057 90.6395 276.39 90.5063 276.659 90.373C276.292 89.271 275.757 87.5693 275.157 85.3677C274.824 85.501 274.524 85.6676 274.188 85.8009C274.824 87.9715 275.39 89.6732 275.757 90.7728Z" fill="#DBE2EF"/>
<path d="M274.189 85.8008C274.522 85.6676 274.855 85.5343 275.157 85.3677C274.557 83.1994 273.922 80.529 273.322 77.5587C272.989 77.692 272.622 77.8586 272.287 77.9919C272.92 80.9622 273.589 83.6326 274.189 85.8008Z" fill="#E3E9F3"/>
<path d="M276.692 90.373C277.159 90.1731 277.594 89.9398 278.028 89.7399C277.628 88.6379 277.092 86.9362 276.492 84.7679C276.059 84.9678 275.624 85.1678 275.157 85.3677C275.757 87.5693 276.29 89.2734 276.692 90.373Z" fill="#DAE1EE"/>
<path d="M275.19 85.3677C275.624 85.1678 276.092 84.9678 276.526 84.7679C275.926 82.5997 275.29 79.9625 274.691 77.0255C274.257 77.1921 273.822 77.3921 273.389 77.5587C273.955 80.5623 274.588 83.1994 275.19 85.3677Z" fill="#E2E8F2"/>
<path d="M278.028 89.7399C282.333 87.7382 284.035 85.4343 285.637 83.4327C285.303 82.633 284.87 81.2978 284.435 79.4627C282.433 81.3977 280.096 83.1994 276.492 84.7679C277.092 86.9695 277.625 88.6379 278.028 89.7399Z" fill="#D9E1EE"/>
<path d="M276.492 84.8013C280.096 83.1995 282.433 81.3978 284.435 79.4961C283.968 77.6944 283.466 75.4238 282.933 72.8557C280.529 74.6908 277.528 75.8927 274.657 77.0613C275.257 79.9959 275.923 82.6306 276.492 84.8013Z" fill="#E1E7F2"/>
<path d="M285.634 83.4327C286.401 82.4641 287.169 81.5311 288.171 80.7623C287.672 79.0272 287.103 75.0549 286.236 69.8164C285.168 70.4828 284.235 71.818 282.933 72.82C284.032 77.9919 284.934 81.8643 285.634 83.4327Z" fill="#D5DDEC"/>
<path d="M288.171 80.7623C287.938 79.8935 287.672 78.4941 287.336 76.6233C288.102 76.0902 288.938 75.0549 289.773 73.753C290.14 75.488 290.44 76.8899 290.709 77.9252C289.84 79.1272 288.971 80.1292 288.171 80.7623Z" fill="#CED8E9"/>
<path d="M290.709 77.9252C290.442 76.8899 290.109 75.488 289.773 73.753C290.609 72.4844 291.408 70.9493 292.177 69.4141C292.544 71.0159 292.877 72.5511 293.212 73.9529C292.41 75.3572 291.575 76.7257 290.709 77.9252Z" fill="#C0CDE3"/>
<path d="M287.336 76.5924C287.036 74.7241 286.669 72.4202 286.234 69.7854C286.967 69.3189 287.802 68.5168 288.638 67.5505C289.038 69.9187 289.404 71.9893 289.773 73.7244C288.938 75.0239 288.105 76.0569 287.336 76.5924Z" fill="#C9D4E7"/>
<path d="M289.773 73.7554C289.407 72.0203 289.04 69.952 288.638 67.5815C289.473 66.6128 290.34 65.4466 291.142 64.3113C291.475 66.113 291.808 67.8147 292.177 69.4498C291.408 70.9517 290.573 72.4868 289.773 73.7554Z" fill="#BAC8E0"/>
<path d="M293.21 73.9553C292.91 72.5535 292.543 71.0183 292.175 69.4165C292.941 67.8814 293.676 66.3462 294.276 65.011C294.609 66.4795 294.943 68.0813 295.312 69.883C294.712 71.1516 294.012 72.5535 293.21 73.9553Z" fill="#A8BAD8"/>
<path d="M295.311 69.8829C294.945 68.0812 294.612 66.4794 294.276 65.0109C294.876 63.7091 295.411 62.6071 295.778 62.0073C296.044 63.2759 296.344 64.811 296.713 66.7793C296.413 67.5481 295.914 68.6501 295.311 69.8829Z" fill="#88A3C9"/>
<path d="M292.175 69.4165C291.808 67.8147 291.475 66.0797 291.139 64.2779C291.975 63.1093 292.741 61.9764 293.408 60.9744C293.641 62.2097 293.941 63.5449 294.276 65.0134C293.677 66.3462 292.943 67.8814 292.175 69.4165Z" fill="#A3B6D5"/>
<path d="M294.279 65.011C293.945 63.5425 293.646 62.2073 293.41 60.972C294.076 60.0033 294.678 59.1703 295.078 58.7038C295.312 59.6725 295.511 60.7055 295.778 61.974C295.412 62.6428 294.912 63.7091 294.279 65.011Z" fill="#86A1C7"/>
<path d="M249.695 70.5851C247.191 65.5798 241.653 55.2004 237.647 49.0931C241.117 52.8965 247.824 57.6685 254.065 61.4742C256.067 65.4108 258.204 71.6514 260.039 77.2921C256.535 75.8569 252.732 73.5887 249.695 70.5851Z" fill="white"/>
<path d="M260.039 77.2921C263.543 78.7273 266.779 79.3604 268.614 79.0272C268.048 75.8903 267.848 73.5221 267.815 71.7514C266.013 71.9846 261.741 70.816 257.102 68.7144C258.137 71.5181 259.139 74.4884 260.039 77.2921Z" fill="#FDFDFE"/>
<path d="M257.135 68.7501C261.774 70.8517 266.046 72.0203 267.848 71.787C267.815 70.0186 267.915 68.8167 267.915 67.917C266.18 68.0503 260.372 65.2799 254.098 61.4766C255.067 63.4425 256.102 66.013 257.135 68.7501Z" fill="white"/>
<path d="M268.65 79.0605C269.485 78.9273 270.985 78.5274 272.587 77.8919C272.153 74.8216 272.153 72.4868 272.253 70.716C270.552 71.3158 268.783 71.6847 267.848 71.7847C267.881 73.5555 268.048 75.8903 268.65 79.0605Z" fill="#F7F8FC"/>
<path d="M267.815 71.787C268.75 71.687 270.518 71.3205 272.22 70.7183C272.32 68.95 272.553 67.7147 272.687 66.8484C270.885 67.4148 268.883 67.817 267.881 67.917C267.881 68.7834 267.781 70.0162 267.815 71.787Z" fill="#FEFFFF"/>
<path d="M272.587 77.8919C272.853 77.7919 273.087 77.692 273.353 77.592C272.953 74.5217 272.953 72.2202 273.087 70.4161C272.82 70.5161 272.52 70.616 272.251 70.716C272.12 72.4868 272.154 74.8216 272.587 77.8919Z" fill="#F1F3F9"/>
<path d="M272.22 70.7184C272.487 70.6184 272.787 70.5185 273.056 70.4185C273.189 68.6501 273.455 67.4149 273.589 66.5485C273.289 66.6485 272.989 66.7484 272.687 66.8484C272.587 67.7148 272.353 68.95 272.22 70.7184Z" fill="#FBFCFD"/>
<path d="M273.322 77.5587C274.022 77.2588 274.757 76.959 275.49 76.69C275.157 73.6864 275.191 71.3848 275.39 69.6498C274.757 69.8164 273.955 70.083 273.089 70.4162C272.953 72.1869 272.953 74.5218 273.322 77.5587Z" fill="#F0F3F9"/>
<path d="M273.086 70.4185C273.955 70.0852 274.755 69.8187 275.388 69.6521C275.555 67.917 275.888 66.6818 276.054 65.8487C275.555 65.9154 274.653 66.2153 273.617 66.5485C273.489 67.4148 273.222 68.6501 273.086 70.4185Z" fill="#FAFBFD"/>
<path d="M275.49 76.6924C276.792 76.1592 278.128 75.5904 279.394 74.9573C278.961 71.9537 279.027 69.6855 279.227 67.9504C278.125 68.6501 276.859 69.2523 275.39 69.6188C275.191 71.3848 275.157 73.6887 275.49 76.6924Z" fill="#EDF0F7"/>
<path d="M275.39 69.6497C276.859 69.2832 278.127 68.681 279.227 67.9813C279.427 66.2462 279.727 65.011 279.794 64.1113C278.858 64.9467 277.725 65.6464 276.057 65.8464C275.857 66.6794 275.557 67.8813 275.39 69.6497Z" fill="#F7F8FC"/>
<path d="M279.394 74.9573C280.662 74.3242 281.864 73.6221 282.93 72.789C282.397 69.8187 282.297 67.4172 282.297 65.5798C281.295 66.4152 280.329 67.2482 279.194 67.948C279.027 69.7164 278.96 71.987 279.394 74.9573Z" fill="#E3E9F3"/>
<path d="M279.227 67.948C280.329 67.2483 281.329 66.4129 282.331 65.5798C282.331 63.7115 282.464 62.3763 282.364 61.4076C281.462 62.243 280.729 63.2426 279.76 64.078C279.729 65.011 279.427 66.2129 279.227 67.948Z" fill="#EEF1F7"/>
<path d="M282.933 72.82C284.201 71.818 285.168 70.4852 286.236 69.8164C285.803 67.1126 285.77 64.9444 285.87 63.2759C284.501 63.6758 283.433 64.6445 282.333 65.5775C282.297 67.4482 282.397 69.8164 282.933 72.82Z" fill="#D8DFEE"/>
<path d="M282.297 65.5798C283.433 64.6445 284.466 63.6448 285.834 63.2783C285.934 61.6099 286.101 60.4413 286.067 59.7082C284.399 59.8415 283.297 60.5436 282.331 61.4433C282.431 62.3763 282.331 63.7424 282.297 65.5798Z" fill="#E1E7F2"/>
<path d="M286.236 69.8163C285.803 67.1126 285.77 64.9443 285.87 63.2759C286.603 63.0093 287.372 62.5095 288.171 61.8407C288.171 63.2759 288.238 65.111 288.638 67.5815C287.805 68.5478 286.969 69.3499 286.236 69.8163Z" fill="#C5D1E5"/>
<path d="M288.638 67.5815C288.238 65.1443 288.171 63.2759 288.171 61.8408C288.973 61.1743 289.74 60.3723 290.506 59.6059C290.64 60.9411 290.806 62.4429 291.139 64.3113C290.34 65.4466 289.473 66.5795 288.638 67.5815Z" fill="#B5C5DE"/>
<path d="M285.867 63.2759C285.967 61.6075 286.134 60.4389 286.101 59.7058C286.834 59.6392 287.536 59.1727 288.169 58.4706C288.269 59.3393 288.169 60.3723 288.169 61.8408C287.369 62.5096 286.603 63.0094 285.867 63.2759Z" fill="#CDD8E9"/>
<path d="M288.171 61.8408C288.171 60.4056 288.271 59.3369 288.171 58.4706C288.804 57.7708 289.44 56.9021 290.006 55.9667C290.24 57.102 290.373 58.2349 290.506 59.5702C289.74 60.3722 288.938 61.1743 288.171 61.8408Z" fill="#BDCBE2"/>
<path d="M291.142 64.278C290.808 62.4096 290.642 60.9078 290.509 59.5726C291.275 58.7705 292.01 57.9708 292.643 57.3044C292.91 58.5396 293.143 59.7082 293.41 61.0077C292.743 61.9741 291.975 63.1427 291.142 64.278Z" fill="#A0B4D4"/>
<path d="M293.41 61.0077C293.143 59.7391 292.91 58.5372 292.644 57.3043C293.31 56.6379 293.879 56.0691 294.345 55.7692C294.612 56.8045 294.845 57.7375 295.078 58.7395C294.679 59.206 294.112 60.0057 293.41 61.0077Z" fill="#86A1C7"/>
<path d="M290.506 59.5725C290.373 58.2373 290.24 57.102 290.006 55.9691C290.606 55.067 291.142 54.1341 291.708 53.4319C292.075 54.8338 292.375 56.0691 292.677 57.3019C292.008 57.9707 291.275 58.7704 290.506 59.5725Z" fill="#A5B8D6"/>
<path d="M292.644 57.3019C292.377 56.0667 292.077 54.8314 291.675 53.432C292.208 52.6989 292.743 52.1634 293.277 52.0301C293.71 53.5319 294.043 54.7338 294.345 55.7668C293.879 56.0691 293.31 56.6355 292.644 57.3019Z" fill="#89A3C9"/>
<path d="M237.647 49.1264C244.588 56.7355 264.444 68.2145 267.881 67.9147C267.881 67.2482 267.748 65.5465 267.481 63.1426C262.609 61.8074 244.857 51.5969 237.881 44.7876C237.481 47.0248 237.381 48.6932 237.647 49.1264Z" fill="white"/>
<path d="M237.881 44.79C244.854 51.5969 262.576 61.8098 267.481 63.145C266.479 53.1011 263.778 30.8094 263.143 20.43C255.234 20.43 249.426 23.5336 245.323 28.2057C241.42 32.7421 239.049 38.716 237.881 44.79Z" fill="white"/>
<path d="M267.881 67.9147C268.917 67.8147 270.885 67.4149 272.687 66.846C272.287 60.3389 268.348 33.6084 265.88 20.4942C264.811 20.4276 264.078 20.4609 263.143 20.4609C263.911 33.3085 267.881 64.4779 267.881 67.9147Z" fill="white"/>
<path d="M272.687 66.846C272.886 66.7794 273.086 66.7127 273.253 66.6461C272.753 59.8724 268.781 33.6084 266.11 20.4942C266.044 20.4942 265.944 20.4942 265.877 20.4942C268.348 33.6108 272.287 60.3722 272.687 66.846Z" fill="white"/>
<path d="M273.289 66.6794C274.457 66.2796 275.49 65.9464 276.059 65.844C275.726 61.6051 274.557 53.5962 273.022 45.0208C272.456 45.0208 271.387 45.7872 270.518 45.9562C271.92 55.0338 273.02 63.2759 273.289 66.6794Z" fill="white"/>
<path d="M270.518 45.9562C271.387 45.7896 272.453 45.0208 273.022 45.0208C271.487 36.4454 269.619 27.3012 267.784 20.6942C267.251 20.5942 266.682 20.5276 266.149 20.4942C267.482 27.068 269.117 36.9143 270.518 45.9562Z" fill="white"/>
<path d="M276.024 65.8464C278.561 65.5132 279.894 64.078 281.162 62.6761C280.996 59.6392 280.662 56.3356 280.16 52.9321C278.758 54.8671 277.29 56.8354 274.922 57.0711C275.49 60.6745 275.857 63.7091 276.024 65.8464Z" fill="#FDFDFE"/>
<path d="M274.957 57.0687C277.325 56.8355 278.761 54.8672 280.196 52.9298C279.696 49.5263 279.06 45.9895 278.294 42.417C276.659 43.6523 274.991 44.9875 273.022 45.0208C273.755 49.3264 274.455 53.4653 274.957 57.0687Z" fill="white"/>
<path d="M273.02 45.0232C274.988 44.9899 276.657 43.6547 278.292 42.4194C276.723 35.3125 274.522 28.1366 271.751 21.8294C270.483 21.3296 269.181 20.9274 267.815 20.6942C269.616 27.3036 271.485 36.4454 273.02 45.0232Z" fill="white"/>
<path d="M281.164 62.6761C281.797 61.9764 282.433 61.2743 283.199 60.7412C283.033 57.0711 282.766 53.6343 282.364 50.3284C281.564 51.0281 280.862 51.9968 280.162 52.9655C280.662 56.3357 280.995 59.6392 281.164 62.6761Z" fill="#F1F4F9"/>
<path d="M280.196 52.9321C280.896 51.9634 281.598 51.0305 282.397 50.295C281.998 46.9915 281.462 43.8546 280.729 40.7843C279.894 41.1841 279.094 41.8196 278.292 42.4194C279.061 45.9895 279.696 49.5286 280.196 52.9321Z" fill="#F8FAFC"/>
<path d="M283.233 60.7411C283.999 60.208 284.901 59.8058 286.103 59.7058C285.936 55.7335 285.636 52.2634 285.168 49.0931C284.066 49.1264 283.166 49.5929 282.397 50.3284C282.799 53.5986 283.033 57.0354 283.233 60.7411Z" fill="#E6EBF4"/>
<path d="M282.397 50.295C283.197 49.5953 284.099 49.0931 285.168 49.0598C284.701 45.8895 284.099 43.0192 283.233 40.2488C282.364 40.1155 281.531 40.3487 280.696 40.7819C281.431 43.8546 281.997 47.0248 282.397 50.295Z" fill="#EFF3F9"/>
<path d="M278.261 42.4194C279.896 41.1842 281.464 40.0156 283.233 40.2512C281.564 34.7461 279.027 29.7051 275.291 23.6669C274.155 22.9672 272.956 22.365 271.72 21.8319C274.488 28.17 276.692 35.3459 278.261 42.4194Z" fill="#F9FAFC"/>
<path d="M286.103 59.7058C285.77 51.7969 284.935 45.7896 283.266 40.2845C283.999 40.4844 284.601 40.551 285.134 40.5844C286.803 45.6896 287.705 51.1971 288.205 58.4706C287.505 59.1727 286.836 59.6392 286.103 59.7058Z" fill="#D5DEED"/>
<path d="M288.171 58.4706C287.705 51.1947 286.803 45.6563 285.101 40.5844C285.634 40.6177 286.07 40.5844 286.503 40.5844C288.171 45.1898 289.273 50.1285 290.006 56.0025C289.44 56.8688 288.804 57.7708 288.171 58.4706Z" fill="#C5D1E5"/>
<path d="M283.266 40.2845C281.598 34.7794 279.06 29.7384 275.324 23.7002C276.057 24.1333 276.792 24.6688 277.525 25.2353C281.029 30.807 283.466 35.4791 285.134 40.5867C284.601 40.551 283.999 40.4844 283.266 40.2845Z" fill="#E9EDF5"/>
<path d="M285.101 40.5844C285.634 40.6177 286.07 40.5844 286.503 40.5844C285.668 38.2828 284.701 36.0456 283.566 33.844C283.066 33.5775 282.564 33.3442 281.964 33.111C283.266 35.5791 284.266 38.0139 285.101 40.5844Z" fill="#DBE2EF"/>
<path d="M281.998 33.0753C282.564 33.3419 283.1 33.5418 283.599 33.8083C282.464 31.6068 281.162 29.3695 279.696 27.1013C278.996 26.4349 278.261 25.7994 277.528 25.1997C279.261 28.0034 280.729 30.5738 281.998 33.0753Z" fill="#E1E7F2"/>
<path d="M290.006 55.9691C289.273 50.0951 288.171 45.1565 286.503 40.5511C286.936 40.5511 287.338 40.5511 287.771 40.651C289.407 44.69 290.675 48.9598 291.675 53.3986C291.142 54.165 290.606 55.0671 290.006 55.9691Z" fill="#AEBFDB"/>
<path d="M291.708 53.4319C292.241 52.6989 292.777 52.1634 293.31 52.0301C292.743 50.1284 292.141 48.2934 291.475 46.4917C290.942 46.4917 290.44 46.625 290.006 46.8915C290.639 49.0264 291.208 51.1971 291.708 53.4319Z" fill="#90A8CC"/>
<path d="M289.973 46.8915C290.44 46.6583 290.908 46.4917 291.442 46.4917C290.775 44.69 290.04 42.9549 289.273 41.2865C288.707 40.9533 288.238 40.7533 287.771 40.6534C288.605 42.686 289.34 44.7566 289.973 46.8915Z" fill="#9DB1D2"/>
<path d="M286.536 40.5511C287.405 40.5511 288.171 40.5844 289.307 41.2841C288.505 39.5824 287.672 37.9473 286.736 36.3455C285.568 35.0103 284.635 34.3438 283.633 33.8083C284.735 36.0456 285.701 38.2472 286.536 40.5511Z" fill="#C4D0E5"/>
<path d="M283.599 33.8107C284.601 34.3438 285.534 35.0126 286.703 36.3478C285.767 34.7461 284.768 33.1776 283.666 31.6425C282.464 30.0074 281.095 28.4389 279.66 27.1037C281.164 29.3719 282.464 31.6068 283.599 33.8107Z" fill="#CFD8E9"/>
<path d="M231.46 68.7C222.77 77.25 214.78 81.6 210.43 84.26C208.61 85.52 207.77 86.36 207.77 88.61C207.77 89.17 207.91 89.45 208.33 89.45C209.17 89.45 210.43 88.19 212.96 88.19C219.41 88.19 226.14 95.62 233.99 95.62C243.52 95.62 258.11 84.12 261.75 81.46L262.31 82.3C256.84 88.33 236.09 105.01 228.1 105.01C223.47 105.01 220.95 103.75 220.95 102.35C220.95 100.25 224.32 97.72 226.14 96.32C226 96.18 224.88 95.76 224.46 95.48C223.06 96.46 217.73 100.11 217.73 103.33C217.73 107.26 222.92 108.52 227.68 108.52C231.89 108.52 235.95 106.28 238.34 105.01C243.95 101.64 257.97 91.41 262.46 87.48C266.67 83.97 268.07 80.75 268.07 76.82C268.07 71.63 258.68 70.09 257.83 57.47C257.41 49.2 256.57 46.67 255.59 46.67C253.49 46.67 251.66 51.86 245.35 51.86C240.72 51.86 241.84 45.55 240.72 45.55C238.89 46.13 238.89 61.41 231.46 68.7Z" fill="url(#paint0_linear_2866_7149)"/>
<path d="M275.49 50.89C272.97 50.89 272.12 49.07 272.12 46.82C272.12 43.74 273.24 40.79 275.49 40.79C277.31 40.79 278.57 43.31 278.71 46.96C278.71 49.49 277.31 50.89 275.49 50.89Z" fill="#0D4D84"/>
<defs>
<linearGradient id="paint0_linear_2866_7149" x1="225.748" y1="67.4273" x2="245.6" y2="82.8343" gradientUnits="userSpaceOnUse">
<stop stop-color="#FBCC93"/>
<stop offset="1" stop-color="#F68B1B"/>
</linearGradient>
</defs>
</svg>
