<?xml version="1.0" encoding="UTF-8"?>
<svg xmlns="http://www.w3.org/2000/svg" version="1.1" viewBox="0 0 498 164">
  <defs>
    <style>
      .cls-1 {
        fill: #fff;
      }
    </style>
  </defs>
  <!-- Generator: Adobe Illustrator 28.7.8, SVG Export Plug-In . SVG Version: 1.2.0 Build 200)  -->
  <g>
    <g id="Layer_1">
      <path class="cls-1" d="M481.6,151.7h1.3c1.4,0,2.7-.4,2.7-1.7s-.7-1.7-2.4-1.7-1.1.1-1.4.1v3.2h-.1ZM481.4,158.2h-2.7v-11.4c1-.1,2.5-.4,4.4-.4s3.1.4,3.9.8c.6.4,1.1,1.4,1.1,2.4s-1,2.2-2.4,2.7h0c1.1.6,1.7,1.4,2.1,2.9.4,1.7.6,2.4.8,2.8h-2.8c-.3-.4-.6-1.4-.8-2.7-.3-1.3-.8-1.8-2.4-1.8h-1.3v4.6ZM483.2,143.2c-5,0-8.7,4.1-8.7,9.1s3.8,9.1,8.8,9.1,8.7-4.1,8.7-9.1-3.6-9.1-8.8-9.1ZM483.4,140.8c6.6,0,11.6,5.1,11.6,11.4s-5,11.5-11.6,11.5-11.8-5.1-11.8-11.5,5.2-11.4,11.8-11.4Z"/>
      <path class="cls-1" d="M59.9,118.8h43.5l16,40.2h29.3L85.8,8.4h-22.3L0,159h26.6s26.6-65.9,27.2-67c.6-1.3,1.1-2.5,1.7-4.1.6-1.5,1.4-3.5,2.2-5.9l4.3-10.4c1.4-3.4,2.5-6.2,3.4-8.4.8-2.4,1.8-4.5,2.7-6.7.8-2.1,1.7-4.4,2.4-6.6.7-2.2,1.7-4.9,2.7-8.1h.7c1,3.2,2,5.9,2.7,8.1.7,2.2,1.4,4.3,2.1,6.5.7,2,1.4,4.2,2.4,6.6.8,2.4,2,5.2,3.4,8.7l4.3,10.8c.8,2.1,1.7,3.9,2.2,5.3.6,1.4,1.1,2.8,1.5,3.9.4,1.3,1,2.4,1.5,3.7.6,1.3,2,4.1,2,4.1h-45.4l9.3,19.3Z"/>
      <path class="cls-1" d="M210.3,76.6h-26.5c0,.4.1,82.4.1,82.4h-25.9v-82.5h-20.1v-18.9h20.1v-11.1c0-6.7,1-12.9,3.1-18.4,2-5.5,4.9-10.2,8.8-14.2,3.8-3.9,8.6-7,14-9.4,5.5-2.4,11.6-3.8,18.4-4.2,3.4-.3,6.2-.3,8.6,0,2.4.3,5.2.8,8.4,1.5l-4.1,18.8c-1.7-.3-3.2-.4-4.6-.6-1.4-.1-3.2,0-5.5.1-8.1.7-13.9,3.2-17.1,7.4-1.7,2.2-2.8,4.9-3.4,7.9-.6,2.9-.8,7.7-.8,14.2v7.8h26.9v18.9h-.4Z"/>
      <path class="cls-1" d="M363.9,144.1c-1.5-.4-2.9-1.3-3.9-2.2-.6-.7-1.1-1.5-1.4-2.2-.4-.7-.7-1.8-.8-3.1-.3-1.3-.4-2.9-.4-4.9-.1-2-.1-4.5-.1-7.7v-29.9c0-12.9-2.2-22.1-6.7-27.6-3.4-3.8-7.6-6.7-13-8.7-5.3-2-11.5-3.1-18.4-3.1-12.5,0-25.7,3.6-39.3,10.8v19.5c6.7-3.5,12.5-6,17.1-7.6s9.2-2.5,14.2-2.8c6.3-.4,11.4.7,15.1,3.5,3.8,2.8,5.6,6.7,5.6,11.9v5c-9.5.7-17.1,1.8-24.7,3.4-7.6,1.5-13.3,3.4-17.1,5.3-5.5,2.8-9.7,6.7-12.9,11.6-3.2,4.9-4.8,10.2-4.8,16,0,9.5,2.5,16.8,7.7,21.9,2.5,2.7,5.9,4.9,9.8,6.5,3.9,1.5,8,2.4,12.1,2.4s6-.1,8.4-.6c2.5-.4,4.9-1,7.4-2,2.5-.8,5.1-2.2,7.9-3.8,2.7-1.7,5.9-3.8,9.5-6.6,1.8,6.9,7.1,10.9,16,12.2,2.5.3,4.9.4,7.3.3,2.2-.1,5.3-.6,9-1.3l3.4-16c-3.1.2-5.3,0-6.8-.3ZM331.5,117.9v19.5c-8,4.8-14.4,7.3-19.2,7.3s-8.8-1.3-11.8-3.9c-2.8-2.7-4.2-6.2-3.8-10.5.3-6,3.2-10.7,8.7-13.7,5.5-3.2,13.6-5.3,26.1-7v8.4h0Z"/>
      <path class="cls-1" d="M258.7,2.1h-25.9v156.9h25.9V2.1Z"/>
      <path class="cls-1" d="M448,83.8c-4.3-2.8-8.1-4.8-11.4-5.9-3.2-1.1-6.7-1.5-10.7-1.5s-7.6.7-10.8,2.2c-3.4,1.5-6.2,3.6-8.6,6.2-2.4,2.7-4.3,5.8-5.6,9.5-1.4,3.6-2.1,7.7-2.1,12.1s.7,9.2,2.1,13.3c1.4,4.1,3.4,7.6,5.9,10.5,2.5,2.9,5.5,5.2,9,6.9,3.5,1.7,7.3,2.5,11.4,2.5s4.4-.1,6.2-.3c1.8-.3,3.8-.6,5.5-1.1,1.8-.6,3.7-1.3,5.5-2.1,1.8-.8,4.1-2.1,6.5-3.4l8.5,17.7c-10.5,8-22.7,11.9-36.3,11.9s-14.6-1.3-20.9-3.9c-6.3-2.7-11.6-6.3-16-11.2-4.5-4.8-7.9-10.7-10.2-17.4-2.4-6.7-3.6-14.3-3.6-22.6s1.4-13.6,4.2-20.1c2.8-6.5,6.6-12.1,11.4-16.8,4.8-4.8,10.2-8.7,16.5-11.5,6.3-2.8,12.9-4.3,19.8-4.3s13.5.8,18.8,2.4c5.3,1.5,10.5,4.2,15.8,8l-10.8,19Z"/>
    </g>
  </g>
</svg>