<svg xmlns:xlink="http://www.w3.org/1999/xlink" xmlns="http://www.w3.org/2000/svg" width="183" height="40" viewBox="0 0 183 40" fill="none">
<g clip-path="url(#clip0_2_2629)">
<path d="M13.2244 8.02049C15.4142 8.02049 17.1894 6.24527 17.1894 4.05541C17.1894 1.86556 15.4142 0.090332 13.2244 0.090332C11.0345 0.090332 9.25928 1.86556 9.25928 4.05541C9.25928 6.24527 11.0345 8.02049 13.2244 8.02049Z" fill="#22AAE2"/>
<path d="M21.487 22.9287C21.6684 19.8573 22.7172 16.9002 24.5117 14.4009C26.3062 11.9016 28.7727 9.96251 31.625 8.80874C33.8779 7.89632 34.7903 6.35309 34.7903 4.49446C34.7853 3.78658 34.615 3.08966 34.293 2.45923C33.971 1.8288 33.5062 1.2823 32.9357 0.863273C32.3651 0.444245 31.7046 0.164279 31.0067 0.0456842C30.3088 -0.0729107 29.5929 -0.0268551 28.9159 0.180181C24.2764 1.42706 20.2303 4.28084 17.4987 8.23291C14.7672 12.185 13.5277 16.9786 14.0011 21.7594C14.4745 26.5402 16.6301 30.9976 20.0837 34.3372C23.5373 37.6768 28.0645 39.6816 32.8585 39.9943C33.5625 40.0394 33.9567 39.8197 33.4724 39.6902C29.8531 38.6983 26.6858 36.4905 24.503 33.4379C22.3203 30.3853 21.2552 26.6742 21.487 22.9287Z" fill="#0C74B7"/>
<path d="M50.1269 34.6607C43.3682 34.6607 38.333 29.9578 38.333 23.0865C38.333 16.0631 43.5315 11.5742 50.217 11.5742C53.2809 11.5742 56.5927 12.7007 58.4175 14.7958L54.8298 18.3836C54.2975 17.7291 53.6207 17.2069 52.8526 16.858C52.0845 16.5091 51.2459 16.3431 50.4028 16.3729C46.7194 16.3729 44.0891 19.189 44.0891 23.0865C44.0891 27.0797 46.6574 29.8001 50.2846 29.8001C51.1824 29.8346 52.0754 29.6526 52.8881 29.2693C53.7008 28.886 54.4093 28.3127 54.9537 27.5979L58.6315 31.0617C56.7166 33.2639 53.8047 34.6607 50.1269 34.6607Z" fill="#0C74B7"/>
<path d="M61.8247 34.0692V12.1655H67.1472V34.0692H61.8247Z" fill="#0C74B7"/>
<path d="M81.9655 16.6825V34.0692H76.6769V16.6825H70.4814V12.1768H88.1497V16.6825H81.9655Z" fill="#0C74B7"/>
<path d="M91.501 34.0692V12.1655H96.8234V34.0692H91.501Z" fill="#0C74B7"/>
<path d="M101.217 34.0693V29.4903L111.648 16.6488H101.465V12.1431H118.277V16.3785L107.576 29.4903H118.468V34.0693H101.217Z" fill="#0C74B7"/>
<path d="M122.85 34.0692V12.1655H137.578V16.6713H127.953V20.7885H137.049V25.007H127.953V29.5522H138.136V34.058L122.85 34.0692Z" fill="#0C74B7"/>
<path d="M156.485 34.0692L147.665 19.7465H147.564L147.688 34.0692H142.551V12.1655H148.583L157.381 26.4714H157.477L157.353 12.1768H162.489V34.0692H156.485Z" fill="#0C74B7"/>
<path d="M179.104 17.8596C178.625 17.2869 178.03 16.8221 177.358 16.496C176.686 16.1698 175.953 15.9896 175.207 15.9672C173.844 15.9672 172.143 16.4347 172.143 18.1637C172.143 19.6225 173.444 20.0843 175.522 20.732C178.49 21.6951 182.332 22.9849 182.332 27.3274C182.332 32.3682 178.276 34.6492 173.945 34.6492C170.819 34.6492 167.66 33.5228 165.745 31.4952L169.208 27.9638C169.791 28.6615 170.514 29.2287 171.33 29.6285C172.146 30.0283 173.037 30.2518 173.945 30.2843C175.55 30.2843 176.975 29.6704 176.975 27.9018C176.975 26.2122 175.286 25.7053 172.424 24.7816C169.642 23.8804 166.826 22.4611 166.826 18.496C166.826 13.6411 171.219 11.6304 175.303 11.6304C177.939 11.628 180.489 12.5757 182.484 14.3L179.104 17.8596Z" fill="#0C74B7"/>
<path d="M13.8779 18.5189C13.9229 17.7638 14.0094 17.0117 14.1369 16.266C12.1882 10.8647 7.99783 7.2207 3.30619 7.2207C2.85995 7.23017 2.42 7.32795 2.01175 7.50838C1.6035 7.68882 1.23505 7.94834 0.927655 8.27197C0.620263 8.5956 0.380027 8.97691 0.22082 9.39389C0.0616128 9.81088 -0.0134115 10.2553 7.91879e-05 10.7014C7.91879e-05 12.0419 0.782957 13.1064 3.15975 13.8555C7.41771 15.1959 10.4816 19.7411 10.7576 25.5874C11.0449 31.7828 7.98093 37.1841 3.63849 38.7499C3.35125 38.8512 3.58217 39.0258 4.00458 38.992C9.48473 38.5415 13.8835 33.3091 15.0156 26.5617C14.0968 23.9852 13.7098 21.2492 13.8779 18.5189Z" fill="#22AAE2"/>
<path d="M37.7357 0.872933C37.9134 0.861224 38.0916 0.886111 38.2593 0.946054C38.4269 1.006 38.5805 1.09972 38.7105 1.22142C38.8405 1.34312 38.9441 1.4902 39.0149 1.65357C39.0858 1.81693 39.1223 1.9931 39.1223 2.17116C39.1223 2.34922 39.0858 2.52539 39.0149 2.68875C38.9441 2.85212 38.8405 2.9992 38.7105 3.1209C38.5805 3.2426 38.4269 3.33632 38.2593 3.39627C38.0916 3.45621 37.9134 3.48109 37.7357 3.46939C37.558 3.48109 37.3799 3.45621 37.2122 3.39627C37.0445 3.33632 36.8909 3.2426 36.7609 3.1209C36.631 2.9992 36.5274 2.85212 36.4565 2.68875C36.3857 2.52539 36.3491 2.34922 36.3491 2.17116C36.3491 1.9931 36.3857 1.81693 36.4565 1.65357C36.5274 1.4902 36.631 1.34312 36.7609 1.22142C36.8909 1.09972 37.0445 1.006 37.2122 0.946054C37.3799 0.886111 37.558 0.861224 37.7357 0.872933ZM37.7357 1.13202C37.6019 1.13346 37.4697 1.16154 37.3468 1.21462C37.2239 1.26771 37.1128 1.34473 37.02 1.4412C36.9272 1.53766 36.8546 1.65164 36.8063 1.77649C36.758 1.90133 36.7351 2.03454 36.7388 2.16834C36.7351 2.30188 36.758 2.43481 36.8064 2.55934C36.8547 2.68387 36.9275 2.79748 37.0203 2.89351C37.1132 2.98953 37.2243 3.06602 37.3472 3.11848C37.47 3.17095 37.6021 3.19834 37.7357 3.19904C37.869 3.19918 38.001 3.17227 38.1236 3.11994C38.2462 3.06762 38.357 2.99096 38.4491 2.89461C38.5412 2.79826 38.6129 2.68422 38.6597 2.55938C38.7065 2.43455 38.7275 2.30152 38.7214 2.16834C38.7267 2.03197 38.7042 1.89594 38.6552 1.76858C38.6062 1.64121 38.5317 1.5252 38.4362 1.42765C38.3408 1.3301 38.2264 1.25306 38.1002 1.20126C37.9739 1.14946 37.8384 1.12398 37.7019 1.12638L37.7357 1.13202ZM37.5386 2.82168H37.1725V1.55443C37.3372 1.51885 37.5053 1.50184 37.6738 1.50374C37.8309 1.48962 37.9884 1.52507 38.1243 1.60512C38.1635 1.63964 38.1948 1.68212 38.2161 1.72971C38.2375 1.77731 38.2485 1.82893 38.2483 1.8811C38.2445 1.95558 38.2158 2.02663 38.1667 2.08282C38.1177 2.139 38.0512 2.17706 37.9779 2.19087C38.1074 2.2303 38.175 2.33168 38.2145 2.50628C38.227 2.61635 38.2594 2.72323 38.3102 2.82168H37.9892C37.9398 2.72417 37.9057 2.61972 37.8878 2.51191C37.8878 2.3711 37.7808 2.30915 37.6174 2.30915H37.4766L37.5386 2.82168ZM37.5386 2.09512H37.6794C37.8484 2.09512 37.9835 2.0388 37.9835 1.90363C37.9835 1.76846 37.8934 1.7065 37.7076 1.7065C37.6514 1.70131 37.5948 1.70131 37.5386 1.7065V2.09512Z" fill="#0C74B7"/>
</g>
<defs>
<clipPath id="clip0_2_2629">
<rect width="182.484" height="40" fill="white"/>
</clipPath>
</defs>
</svg>