<?xml version="1.0" encoding="UTF-8"?>
<svg xmlns="http://www.w3.org/2000/svg" version="1.1" viewBox="0 0 566.9 98.6">
  <defs>
    <style>
      .cls-1 {
        fill: #fff;
      }

      .cls-2 {
        fill: #2f4f4f;
      }
    </style>
  </defs>
  <!-- Generator: Adobe Illustrator 28.7.8, SVG Export Plug-In . SVG Version: 1.2.0 Build 200)  -->
  <g>
    <g id="Layer_1">
      <g id="Globe_Life_Logo">
        <g>
          <g>
            <path class="cls-1" d="M161.4,85.8c-22.3,0-38.4-14.8-38.4-36.8s16.6-36.7,37.9-36.7,21.1,3.7,27,9.3l-10.7,12.2c-3.3-3.8-8.9-6.5-15.7-6.5-11.9,0-20.5,9.3-20.5,21.8s7.6,22,21.3,22,7.6-.6,10.6-1.9v-12.7h-13.3v-13.6h28.8v37c-6.8,3.5-16.2,6-27,6h0Z"/>
            <rect class="cls-1" x="194.6" y="12.2" width="16.4" height="71.8"/>
            <path class="cls-1" d="M243,33.3c-14.8,0-27.3,9.9-27.3,26s12.4,26.4,27.3,26.4,27.4-10.3,27.4-26.4-12.4-26-27.4-26ZM243.1,72c-7.6,0-11.7-6.4-11.7-12.7s3.9-12.5,11.6-12.5,11.8,6.2,11.8,12.5-4,12.7-11.7,12.7h0Z"/>
            <path class="cls-1" d="M306.2,33.5c-7.2,0-12.2,3.4-15,6.6h-.2V12.2h-16.2v71.8h14.9v-6.4h.2c3.2,4.9,9.6,7.8,16.1,7.8,14.8,0,23.4-12.4,23.4-26.2s-8.9-25.8-23.2-25.8h0ZM302.1,72c-7.3,0-11.9-6.2-11.9-12.6s4.5-12.6,11.9-12.6,11.7,6.2,11.7,12.5-4,12.7-11.7,12.7Z"/>
            <path class="cls-1" d="M384,60c0-16.8-10.2-26.8-24.7-26.8s-26.6,10.3-26.6,26.4,12.2,26,27.1,26,17.7-3.8,22.3-10.5l-11.3-7.1c-2.2,3-5.7,5.1-10.9,5.1s-11.3-3.8-11.8-9.3h35.7c.1-1.2.1-2.6.1-3.9h0ZM348.2,53.8c.4-5,4.9-9.4,11.2-9.4s9.7,4.2,9.7,9.4h-20.9Z"/>
            <polygon class="cls-1" points="409.8 84 409.8 12.2 426.8 12.2 426.8 69.3 453.8 69.3 453.8 84 409.8 84"/>
            <g>
              <path class="cls-1" d="M466.7,28c-5.2,0-9.3-4.1-9.3-8.9s4-8.9,9.3-8.9,9.3,3.9,9.3,8.9-4.1,8.9-9.3,8.9Z"/>
              <rect class="cls-1" x="458.6" y="34.8" width="16.2" height="49.2"/>
            </g>
            <path class="cls-1" d="M516.2,21.3c-1.2-.4-2.9-.7-4.4-.7-5.9,0-7.2,4.7-7.2,9.3v4.9h11v12.2h-11v37h-16.2v-37h-9v-12.2h9v-4.7c0-12.1,4.7-22.6,21.1-22.6s5.6.3,7.8,1l-1.1,12.8Z"/>
            <path class="cls-1" d="M566.9,60c0-16.8-10.2-26.8-24.7-26.8s-26.6,10.3-26.6,26.4,12.2,26,27.1,26,17.7-3.8,22.3-10.5l-11.3-7.1c-2.2,3-5.7,5.1-10.9,5.1s-11.3-3.8-11.8-9.3h35.7c0-1.2,0-2.6,0-3.9h.1ZM531.2,53.8c.4-5,4.9-9.4,11.2-9.4s9.7,4.2,9.7,9.4h-20.9Z"/>
          </g>
          <g>
            <path class="cls-1" d="M97.8,40.7c-1.7-9.5-6.1-18.1-12.4-24.9v.4c-.4,5,.6,9.8,3.1,14.2,2.3,4.2,5.7,7.7,9.4,10.4h0ZM73.6,81.7c3.8-3.9,6.6-7.5,8.2-10.7s1.9-5.8,1.1-8-1.4-2.3-2.8-3.6c-1.6-1.4-3.8-2.8-6.2-4.1-2.5-1.3-5.3-2.3-8-3-2.9-.8-5.6-1.1-8.2-1.1s-5,.4-6.8,1.2c-.8.4-1.7.5-2.6.5-1.6,0-3.1-.6-4.3-1.7l-5.9-5.4c-.8-.8-1.4-1.7-1.7-2.8-.2-1-.2-2,0-3,.3-1,.9-1.9,1.6-2.6.8-.7,1.8-1.2,3-1.4h.6c3-.4,6.1-.9,9.2-3.3,3.9-3,7.2-8.8,9.6-17.2,1.2-4.1,2-9.1,2.5-13.6C58.6.6,54,0,49.3,0,35.9,0,23.7,5.4,14.9,14.1c1.4.6,2.6,1.4,3.6,2.4s2.8,3.9,1.9,7.9c-.5,1.9-1.4,3.7-2.3,5.6-2,4.1-3.2,7-2,9.3.8,1.4,3.1,4.4,10.5,9.8,4.8,3.5,9.6,6.4,12,7.9,1.2.7,2.2,1.8,2.8,3.2.6,1.3.7,2.8.3,4.2-.5,2.1-.9,4.3-.4,6,.2.7.8,2.7,5.4,4.3,1.7.6,3,1.8,3.6,3.5.6,1.6.5,3.4-.3,5-1.4,2.8-4.4,8.5-7.8,14.8,2.4.3,4.8.5,7.2.5s2.6,0,3.9-.2c5.8-4.2,14.1-10.2,20.5-16.8l-.2.2Z"/>
            <path class="cls-1" d="M45,79.1c-10.3-3.7-9.2-10.8-7.9-15.9.2-.9-.2-1.8-1-2.3-4.7-2.8-20.3-12.5-24.2-19.4-4.6-8.4,7.2-17.7,3.2-21.8-1-1-2.3-1.6-3.8-1.9C4.2,26.4,0,37.3,0,49.3c0,23.1,15.9,42.4,37.3,47.8,3.7-6.9,7.1-13.3,8.5-16,.4-.7,0-1.7-.8-1.9h0ZM98.5,46.7c-6.1-3.6-11.1-8.6-14.2-14.1-2.9-5.3-4.1-10.9-3.6-16.9,0-1.3.3-2.6.6-3.9-4.1-3.5-8.8-6.4-13.9-8.4-.6,4.5-1.3,9.3-2.5,13.4-6.5,22.1-16.8,22.9-23.3,23.9-.8,0-1.2,1.2-.5,1.7l5.9,5.4c.3.3.8.5,1.2.5s.5,0,.7-.2c2.5-1.1,5.5-1.6,8.7-1.6,12.1,0,26.8,7.4,29.6,14.8,4.3,11.3-10.9,25.4-23.5,35.1,20.2-6.2,34.8-24.9,34.8-47.1s0-1.7,0-2.6Z"/>
            <path class="cls-2" d="M97.8,40.7c.3,2,.6,4,.7,6-6.1-3.6-11.1-8.6-14.2-14.1-2.9-5.3-4.1-10.9-3.6-16.9,0-1.3.3-2.6.6-3.9,1.4,1.2,2.8,2.5,4.1,3.9v.4c-.4,5,.6,9.8,3.1,14.2,2.3,4.2,5.7,7.7,9.4,10.4h0ZM49.9,83.2c.8-1.6.9-3.4.3-5-.6-1.6-2-2.9-3.6-3.5-4.6-1.6-5.2-3.7-5.4-4.3-.5-1.7,0-3.9.4-6,.3-1.4.2-2.9-.3-4.2s-1.5-2.4-2.8-3.2c-2.5-1.5-7.3-4.4-12-7.9-7.3-5.4-9.7-8.4-10.5-9.8-1.2-2.3,0-5.2,2-9.3.9-1.9,1.8-3.7,2.3-5.6,1-4-.5-6.5-1.9-7.9-1-1.1-2.2-1.9-3.6-2.4-1.2,1.2-2.4,2.5-3.5,3.8,1.5.2,2.8.8,3.8,1.9,4,4.1-7.8,13.3-3.2,21.8,3.9,7,19.5,16.7,24.2,19.4.8.5,1.2,1.4,1,2.3-1.2,5-2.4,12.2,7.9,15.9.8.3,1.2,1.2.8,1.9-1.4,2.8-4.8,9.2-8.5,16,1.6.4,3.2.7,4.8.9,3.4-6.3,6.4-12,7.8-14.8ZM87.2,61.3c-2.8-7.5-17.5-14.9-29.6-14.9s-6.2.5-8.7,1.6c-.2,0-.5.2-.7.2-.4,0-.8-.2-1.2-.5l-5.9-5.4c-.6-.6-.3-1.6.5-1.7,6.5-.9,16.8-1.7,23.3-23.9,1.2-4.1,2-8.9,2.5-13.4-1.5-.6-3-1.1-4.5-1.5-.5,4.6-1.3,9.5-2.5,13.6-2.4,8.4-5.7,14.2-9.6,17.2-3.1,2.4-6.2,2.8-9.2,3.3h-.6c-1.1.2-2.1.6-3,1.4-.8.7-1.3,1.6-1.6,2.6s-.3,2,0,3,.8,2,1.7,2.8l5.9,5.4c1.2,1.1,2.7,1.7,4.3,1.7s1.8-.2,2.6-.5c1.8-.8,4.1-1.2,6.8-1.2s5.3.4,8.2,1.1c2.8.7,5.5,1.8,8,3,2.4,1.2,4.6,2.6,6.2,4.1,1.4,1.3,2.4,2.5,2.8,3.6.8,2.2.5,4.8-1.1,8s-4.3,6.8-8.2,10.7c-6.4,6.5-14.7,12.6-20.5,16.8,3.7-.3,7.2-1,10.6-2,12.7-9.7,27.8-23.7,23.5-35.1Z"/>
          </g>
        </g>
      </g>
    </g>
  </g>
</svg>