<svg width="50" height="50" viewBox="0 0 50 50" fill="none" xmlns="http://www.w3.org/2000/svg">
<path d="M12.8053 17C13.9776 17.1609 15.2969 17.3412 16.6158 17.5245C16.7181 17.5408 16.8188 17.5662 16.9166 17.6004C17.7557 17.8758 17.8346 18.007 17.7242 18.8721C17.665 19.336 17.6407 19.8052 17.5586 20.2646C17.5362 20.3895 17.3643 20.5743 17.2556 20.5781C17.06 20.5851 16.7191 20.5206 16.6837 20.4086C16.2096 18.9116 14.9971 18.5256 13.6501 18.3743C11.845 18.1715 10.0654 18.2909 8.43729 19.1808C6.33911 20.3275 5.22037 22.1723 5.03147 24.5139C4.81211 27.2331 5.72846 29.4944 8.08304 31.0415C9.34183 31.8686 10.7527 32.1751 12.2399 32.1566C13.3923 32.1422 14.5153 31.962 15.5799 31.4869C15.9302 31.3305 16.1578 31.1153 16.1499 30.7095C16.1323 29.7929 16.1414 28.8748 16.089 27.9602C16.0656 27.5534 15.7607 27.3305 15.3498 27.2776C15.0928 27.2445 14.8048 27.2628 14.5909 27.1471C14.4277 27.0588 14.3034 26.8044 14.2737 26.6072C14.2602 26.5172 14.5128 26.2945 14.6512 26.2887C16.1434 26.2267 17.6368 26.1946 19.1299 26.1583C19.3532 26.1529 19.6132 26.1177 19.6096 26.4675C19.6067 26.7564 19.6608 27.0498 19.2682 27.1853C18.0454 27.6075 18.0364 27.6182 18.0564 28.9231C18.071 29.8773 18.1425 30.8308 18.1454 31.7847C18.146 31.9752 17.9931 32.2857 17.8399 32.3397C14.5229 33.5093 11.1605 33.9591 7.7792 32.6524C5.02052 31.5863 3.49815 29.4639 3.08631 26.5902C2.43928 22.0756 5.49734 18.0137 10.0049 17.3137C10.8764 17.1784 11.759 17.1151 12.8053 17Z" fill="#005489"/>
<path d="M29.706 33.1126C29.2271 33.1126 28.7799 33.1105 28.3326 33.113C27.1159 33.1195 25.8992 33.1307 24.6826 33.1332C24.4579 33.1337 24.1669 33.2318 24.1535 32.8304C24.1428 32.5055 24.1826 32.2851 24.5879 32.205C25.945 31.9368 26.0272 31.8267 26.0287 30.4608C26.0331 26.8657 26.0321 23.2707 26.0261 19.6756C26.0251 18.8118 25.9348 18.7167 25.0665 18.7271C24.199 18.7375 23.3304 18.8201 22.4648 18.7941C21.6984 18.7711 21.4148 19.1965 21.2901 19.8357C21.2179 20.2056 21.0203 20.4134 20.6432 20.3107C20.5641 20.283 20.4929 20.2371 20.4351 20.1765C20.3771 20.116 20.3345 20.0426 20.3105 19.9624C20.2462 19.2718 20.2407 18.576 20.1923 17.8836C20.1628 17.464 20.3006 17.2922 20.7486 17.3043C22.5554 17.3531 24.3629 17.3994 26.17 17.3969C28.4638 17.3937 30.7579 17.3538 33.0512 17.3023C33.5509 17.2911 33.7397 17.4435 33.7117 17.9501C33.6771 18.5734 33.6967 19.2002 33.7062 19.8253C33.7104 20.103 33.6557 20.3144 33.3267 20.3225C33.0546 20.3291 32.73 20.4019 32.67 20.0033C32.5003 18.8772 32.3119 18.8083 30.9093 18.7487C30.163 18.7169 29.4145 18.7355 28.6673 18.7216C28.1969 18.7128 27.96 18.9105 27.957 19.4003C27.9333 23.1331 27.875 26.866 27.8916 30.5986C27.896 31.5604 27.8221 31.9803 29.229 32.1398C29.7654 32.2005 29.7945 32.2846 29.706 33.1126Z" fill="#005489"/>
<path d="M40.8517 17.3188C40.9886 18.1889 40.9887 18.1889 40.2476 18.3536C39.1371 18.6002 39.0606 18.6824 39.0545 19.8552C39.0389 22.8412 39.0307 25.8272 39.0299 28.8131C39.0304 29.4706 39.0712 30.1301 39.1331 30.7849C39.1948 31.4373 39.3885 31.6932 40.0261 31.7086C41.5507 31.7452 43.0806 31.7572 44.6018 31.6673C45.3009 31.626 45.6582 31.0185 45.8746 30.3695C46.0999 29.6945 46.1575 29.6728 46.9999 29.7797C46.9389 30.5591 46.9088 31.3494 46.8081 32.1305C46.676 33.1548 46.6522 33.1337 45.6056 33.131C42.4797 33.1235 39.3538 33.1313 36.2279 33.1339C35.9722 33.134 35.673 33.2092 35.6427 32.8137C35.6176 32.4856 35.6356 32.1745 36.0627 32.1057C36.1814 32.0867 36.296 32.0428 36.4132 32.014C37.0179 31.8649 37.1947 31.6577 37.1963 31.0334C37.2036 28.0311 37.2075 25.0288 37.2078 22.0265C37.2081 21.1932 37.2081 20.3597 37.1942 19.5266C37.1804 18.7132 36.95 18.4372 36.1524 18.3127C35.7358 18.2477 35.6086 18.0314 35.6321 17.6339C35.6572 17.2096 35.9499 17.3019 36.1962 17.3013C37.602 17.298 39.0078 17.2975 40.4136 17.2998C40.55 17.2999 40.6864 17.3113 40.8517 17.3188Z" fill="#005489"/>
</svg>
