<svg width="50" height="50" viewBox="0 0 50 50" fill="none" xmlns="http://www.w3.org/2000/svg">
<rect width="50" height="50" rx="8" fill="#004614"/>
<path d="M3.77539 36.5687C4.77187 33.1808 6.23242 29.9471 8.11548 26.9596C8.41098 26.5004 8.60431 25.9831 8.68239 25.4426C8.76047 24.9022 8.72146 24.3513 8.56802 23.8272C8.37091 23.0561 8.22358 22.2723 8.05401 21.4942L8.28138 21.4211L9.61498 24.2179C9.85307 23.8853 10.0501 23.6218 10.2348 23.35C11.832 21.0004 13.6871 18.8979 16.0427 17.2734C16.1487 17.1788 16.2678 17.0999 16.3963 17.0391C18.4665 16.3942 19.8519 14.8396 21.3266 13.3873C22.0091 12.7153 22.7905 12.1437 23.5271 11.5266L23.6894 11.6977L20.7448 15.1256L22.5846 14.7591L22.6491 14.9321C22.4449 15.0656 22.2292 15.1806 22.0044 15.2754C21.1995 15.5171 20.453 15.9218 19.8113 16.4645C19.1696 17.0072 18.6465 17.6762 18.2746 18.4299C18.022 18.9262 17.6473 19.3603 17.3644 19.8638C18.9014 18.6619 20.3626 17.3575 22.2853 16.7346C22.0169 16.9382 21.7547 17.1503 21.4794 17.3439C18.5657 19.3928 15.9686 21.7488 14.1705 24.8788C13.344 26.3036 12.7067 27.8301 12.2748 29.4196C13.6989 27.9965 15.4 27.3798 17.0707 26.6948C17.4758 26.5255 17.8367 26.2656 18.1255 25.935C20.2875 23.407 22.3896 20.8214 24.9756 18.7003C26.0598 17.825 27.1947 17.0144 28.3743 16.2728C25.1516 19.5184 22.0632 22.8397 20.3096 27.2522C20.8292 27.3926 21.2999 27.5464 21.7827 27.633C21.9149 27.6568 22.1048 27.5038 22.2319 27.391C25.62 24.3674 29.7004 22.2246 34.1128 21.1517C35.2543 20.8689 36.4406 20.7671 37.6064 20.5821C37.6279 20.6597 37.6495 20.7373 37.671 20.8149C36.9515 21.1495 36.2353 21.4916 35.5118 21.8173C33.2578 22.832 30.9839 23.8042 28.7499 24.861C26.2627 26.0677 23.9999 27.6907 22.0595 29.6599C20.4751 31.2288 18.8266 32.733 17.2061 34.2655C16.9903 34.4695 16.7718 34.6708 16.5547 34.8734L16.6483 35.0086C18.2993 34.2076 19.987 33.4731 21.5909 32.587C23.2332 31.7057 24.8154 30.717 26.3273 29.6272C27.7805 28.5514 29.071 27.2556 30.4981 26.1084C30.0975 27.125 29.642 28.0851 28.8497 28.8686C26.5641 31.1288 23.812 32.6668 20.9569 34.0567C19.6816 34.6775 18.415 35.3159 17.157 35.9719C16.8633 36.1502 16.583 36.3497 16.3183 36.5687H11.2037C11.7466 36.2417 12.3771 36.0695 12.7112 35.4224C13.4167 34.056 14.1891 32.7242 14.9202 31.3707C15.4519 30.3866 15.9615 29.3905 16.4809 28.3998C16.4201 28.3395 16.3593 28.2792 16.2985 28.219C15.7805 28.5418 15.2055 28.8002 14.7547 29.1988C12.9988 30.7514 11.8672 32.7286 11.0983 34.9147C10.9162 35.4325 10.92 36.0156 10.8382 36.5687H6.69801C6.83093 36.3936 6.97309 36.2247 7.09515 36.0424C7.64422 35.2224 8.26047 34.4363 8.71088 33.5648C9.10875 32.7478 9.21236 31.8184 9.00419 30.9339C7.94006 32.9083 6.9537 34.7385 5.96736 36.5687L3.77539 36.5687ZM10.0123 27.4811C12.6997 24.7465 15.0225 21.676 16.9229 18.346C16.6527 18.4865 16.3988 18.6566 16.166 18.8529C13.8933 20.7491 12.1669 23.1364 10.3278 25.4171C10.0858 25.6963 9.9277 26.0383 9.87187 26.4035C9.81603 26.7688 9.86474 27.1424 10.0123 27.4811ZM18.4119 30.4569L18.5182 30.5151L21.1637 28.0361C20.7671 28.0153 20.3697 28.0195 19.9736 28.0487C19.7524 28.0656 19.5468 28.1695 19.4021 28.3377C19.0391 29.0267 18.7365 29.7475 18.4119 30.4569ZM10.503 30.6961C11.0452 29.3154 11.5592 28.0068 12.0732 26.6981C11.2779 27.9001 9.67094 28.7749 10.503 30.6961Z" fill="white"/>
<path d="M22.0417 36.5687C22.7855 35.8613 23.4912 35.108 24.2799 34.455C26.8794 32.2499 29.6823 30.2965 32.6509 28.6209C34.9741 27.3451 37.5283 26.66 40.0738 25.9786C40.7584 25.7953 41.4453 25.621 42.1347 25.4556C42.3003 25.4286 42.4679 25.4151 42.6358 25.415L42.6883 25.5924C40.9862 26.3642 39.2711 27.1087 37.5857 27.9156C35.9221 28.7121 34.2888 29.5717 32.6914 30.5071C35.7848 29.4272 38.733 27.9685 41.9896 27.36C37.4174 29.9691 32.4598 31.9651 28.666 35.789C34.2977 31.4246 40.8903 30.2625 47.7754 30.0578C41.8423 31.6813 36.0064 33.5627 30.5468 36.4965C31.7749 36.1877 33.023 35.9417 34.2265 35.5563C36.3654 34.8714 38.4668 34.0699 40.6057 33.3853C41.3964 33.1324 42.2485 33.0714 43.0726 32.9229L43.1538 33.1903L36.1679 36.5686L22.0417 36.5687Z" fill="white"/>
</svg>
