<svg xmlns="http://www.w3.org/2000/svg" xmlns:xlink="http://www.w3.org/1999/xlink" version="1.1" id="Layer_1" x="0px" y="0px" viewBox="0 0 466.7 145.9" style="enable-background:new 0 0 466.7 145.9;" xml:space="preserve" width="466.7"  height="145.9" >
<style type="text/css">
	.st0{fill-rule:evenodd;clip-rule:evenodd;fill:#231F20;}
	.st1{fill:#231F20;}
	.st2{fill:#6CADDF;}
</style>
<g>
	<g>
		<g>
			<rect x="161.5" y="30.2" class="st0" width="3.1" height="13.4"/>
			<path class="st0" d="M183.8,43.7V30.2h-3.1v6.2c0,0.5,0,1.5,0,2.2h0c-0.4-0.6-0.8-1.1-1.2-1.6l-5.4-6.8H171v13.4h3.1v-6.8     c0-0.6,0-1.5-0.1-1.9h0c0.5,0.6,0.8,1.1,1.3,1.7l5.6,7.1H183.8z"/>
			<path class="st0" d="M199,39.8c0-4.3-5.7-4-5.7-6.2c0-0.7,0.7-1.1,1.6-1.1c1.1,0,2,0.4,3.3,1l0.1-2.6c-0.8-0.5-2.1-0.8-3.5-0.8     c-3.1,0-4.7,1.9-4.7,3.9c0,1,0.3,1.8,0.8,2.4c1.6,1.9,4.9,2.1,4.9,3.8c0,0.9-1,1.2-1.9,1.2c-1.2,0-2.2-0.5-3.1-1.1l-1.2,2.2     c1,0.7,2.4,1.3,4.4,1.3C196.8,43.9,199,42.3,199,39.8z"/>
			<path class="st0" d="M216.7,38.3v-8h-3.1v8.3c0,0.8-0.2,1.5-0.6,2c-0.5,0.5-1.2,0.8-2.3,0.8c-0.9,0-1.7-0.3-2.2-0.8     c-0.4-0.4-0.7-1.1-0.7-2.1v-8.2h-3.1v8.4c0,1.7,0.5,2.9,1.3,3.8c1,1,2.6,1.4,4.6,1.4c2.1,0,3.6-0.5,4.7-1.6     C216.2,41.4,216.7,40,216.7,38.3z"/>
			<path class="st0" d="M233.8,43.7c-2-3.4-3.2-5.6-4-6.1v0c1.2-0.6,2.4-1.7,2.4-3.4c0-2.1-1.3-3.9-5-3.9H223v13.4h3.1v-5h0.9     c0.5,0.2,1.2,1.5,3.2,5H233.8z M229.2,34.5c0,1.1-0.8,1.9-1.9,1.9h-1.1v-3.6h1.2C228.4,32.8,229.2,33.5,229.2,34.5z"/>
			<rect x="239.1" y="30.2" class="st0" width="3.1" height="13.4"/>
			<path class="st0" d="M261.3,43.7V30.2h-3.1v6.2c0,0.5,0,1.5,0,2.2h0c-0.4-0.6-0.8-1.1-1.2-1.6l-5.4-6.8h-3.1v13.4h3.1v-6.8     c0-0.6,0-1.5-0.1-1.9h0c0.4,0.6,0.8,1.1,1.3,1.7l5.6,7.1H261.3z"/>
			<path class="st0" d="M279.7,42.5v-5.8h-3.1v4.5c-0.5,0.2-1.2,0.3-1.8,0.3c-2.7,0-4.2-2.2-4.2-4.5c0-2.2,1.2-4.3,4.8-4.3     c1.3,0,2.4,0.3,3.6,0.9l0.1-2.8c-1.2-0.4-2.3-0.6-4.1-0.6c-4.7,0-7.8,3.1-7.8,7c0,3.7,2.5,6.8,6.8,6.8     C276.2,43.9,278.1,43.3,279.7,42.5z"/>
			<polygon class="st0" points="302.3,43.7 302.3,41.2 297.7,41.2 297.7,30.2 294.6,30.2 294.6,43.7    "/>
			<rect x="307.6" y="30.2" class="st0" width="3.1" height="13.4"/>
			<path class="st0" d="M329.9,30.3h-3.2l-2.9,6.8c-0.4,0.9-0.7,1.8-0.9,2.5h0c-0.3-0.8-0.6-1.7-0.9-2.6l-2.6-6.7H316l5.6,13.5h2.4     L329.9,30.3z"/>
			<polygon class="st0" points="343.2,43.7 343.2,41.2 338.3,41.2 338.3,38.1 342.5,38.1 342.5,35.6 338.3,35.6 338.3,32.7      342.5,32.7 343.2,30.2 335.2,30.2 335.2,43.7    "/>
			<path class="st0" d="M358,39.8c0-4.3-5.7-4-5.7-6.2c0-0.7,0.7-1.1,1.6-1.1c1.1,0,2,0.4,3.3,1l0.1-2.6c-0.8-0.5-2.1-0.8-3.5-0.8     c-3.1,0-4.7,1.9-4.7,3.9c0,1,0.3,1.8,0.8,2.4c1.6,1.9,4.9,2.1,4.9,3.8c0,0.9-1,1.2-1.9,1.2c-1.2,0-2.2-0.5-3.1-1.1l-1.2,2.2     c1,0.7,2.4,1.3,4.4,1.3C355.7,43.9,358,42.3,358,39.8z"/>
		</g>
		<g>
			<path class="st0" d="M171.1,76.1c0-4.3-5.7-4-5.7-6.2c0-0.7,0.7-1.1,1.6-1.1c1.1,0,2,0.4,3.3,1l0.1-2.6c-0.8-0.5-2.1-0.8-3.5-0.8     c-3.1,0-4.7,1.9-4.7,3.9c0,1,0.3,1.8,0.8,2.4c1.6,1.9,4.9,2.1,4.9,3.8c0,0.9-1,1.2-1.9,1.2c-1.2,0-2.2-0.5-3.1-1.1l-1.2,2.2     c1,0.7,2.4,1.3,4.4,1.3C168.8,80.2,171.1,78.6,171.1,76.1z"/>
			<path class="st0" d="M188.7,74.6v-8h-3.1v8.3c0,0.8-0.2,1.5-0.6,2c-0.5,0.5-1.2,0.8-2.3,0.8c-0.9,0-1.7-0.3-2.2-0.8     c-0.4-0.4-0.7-1.1-0.7-2.1v-8.2h-3.1V75c0,1.7,0.5,2.9,1.3,3.8c1,1,2.6,1.4,4.6,1.4c2.1,0,3.6-0.5,4.7-1.6     C188.2,77.7,188.7,76.3,188.7,74.6z"/>
			<path class="st0" d="M204,71c0-2.9-2-4.4-5-4.4H195V80h3.1v-4.5h0.3C202.7,75.4,204,72.6,204,71z M200.9,71.1c0,1.3-0.7,2-2.3,2     h-0.5v-4h0.5C200.1,69.1,200.9,70,200.9,71.1z"/>
			<path class="st0" d="M218.6,71c0-2.9-2-4.4-5-4.4h-3.9V80h3.1v-4.5h0.3C217.3,75.4,218.6,72.6,218.6,71z M215.5,71.1     c0,1.3-0.7,2-2.3,2h-0.4v-4h0.4C214.7,69.1,215.5,70,215.5,71.1z"/>
			<path class="st0" d="M237.7,73.2c0-1.9-0.5-3.6-1.7-4.8c-1.2-1.3-3.1-2.1-5.3-2.1c-2.1,0-3.8,0.8-5.1,2c-1.3,1.3-2,3.1-2,5     c0,2.1,0.8,3.9,2.1,5.1c1.2,1.1,2.8,1.6,4.9,1.6c2.1,0,3.9-0.8,5.2-2.1C237.1,76.9,237.7,75.1,237.7,73.2z M234.4,73.3     c0,2.8-1.6,4.4-3.7,4.4c-2.1,0-3.8-1.6-3.8-4.4c0-2.8,1.6-4.4,3.8-4.4C232.8,68.9,234.4,70.5,234.4,73.3z"/>
			<path class="st0" d="M254.3,80c-2-3.4-3.2-5.6-4-6.1v0c1.2-0.6,2.4-1.7,2.4-3.4c0-2.1-1.3-3.9-5-3.9h-4.2V80h3.1v-5h0.9     c0.5,0.2,1.2,1.5,3.2,5H254.3z M249.7,70.8c0,1.1-0.8,1.9-1.9,1.9h-1.1v-3.6h1.2C248.9,69.1,249.7,69.8,249.7,70.8z"/>
			<polygon class="st0" points="269,66.5 257.7,66.5 257.7,69.1 261.7,69.1 261.7,80 264.8,80 264.8,69.1 268.4,69.1    "/>
			<rect x="274.2" y="66.5" class="st0" width="3.1" height="13.4"/>
			<path class="st0" d="M296.5,80V66.5h-3.1v6.2c0,0.5,0,1.5,0,2.2h0c-0.4-0.6-0.8-1.1-1.2-1.6l-5.4-6.8h-3.1V80h3.1v-6.8     c0-0.6,0-1.5-0.1-1.9h0c0.5,0.6,0.8,1.1,1.3,1.7l5.6,7.1H296.5z"/>
			<path class="st0" d="M314.9,78.8V73h-3.1v4.5c-0.5,0.2-1.2,0.3-1.8,0.3c-2.7,0-4.2-2.2-4.2-4.5c0-2.2,1.2-4.3,4.8-4.3     c1.3,0,2.4,0.3,3.6,0.9l0.1-2.8c-1.2-0.4-2.3-0.6-4.1-0.6c-4.7,0-7.8,3.1-7.8,7c0,3.7,2.5,6.8,6.8,6.8     C311.4,80.2,313.3,79.6,314.9,78.8z"/>
			<path class="st0" d="M347.2,66.5h-3.2l-2.2,7.3c-0.2,0.7-0.3,1.3-0.5,1.9h-0.1c-0.2-0.7-0.4-1.3-0.6-2l-2.5-7.3h-3.1L336,69     l-1.7,5.1c-0.2,0.6-0.4,1.1-0.5,1.7h-0.1c-0.2-0.6-0.3-1.2-0.5-1.7l-2.4-7.5h-3.5l4.9,13.5h2.6l1.9-5.3c0.2-0.5,0.4-1.2,0.6-1.8     h0.1c0.1,0.6,0.4,1.2,0.6,1.8l1.9,5.3h2.7L347.2,66.5z"/>
			<path class="st0" d="M365.4,73.2c0-1.9-0.5-3.6-1.7-4.8c-1.2-1.3-3.1-2.1-5.3-2.1c-2.1,0-3.8,0.8-5,2c-1.3,1.3-2,3.1-2,5     c0,2.1,0.8,3.9,2.2,5.1c1.2,1.1,2.8,1.6,4.9,1.6c2.1,0,3.9-0.8,5.2-2.1C364.8,76.9,365.4,75.1,365.4,73.2z M362.1,73.3     c0,2.8-1.6,4.4-3.7,4.4c-2.1,0-3.8-1.6-3.8-4.4c0-2.8,1.6-4.4,3.8-4.4C360.5,68.9,362.1,70.5,362.1,73.3z"/>
			<path class="st0" d="M385.3,80V66.5h-2.8l-3,4.6c-0.4,0.6-0.7,1.2-1,1.7h0c-0.3-0.5-0.6-1-1-1.6l-3.4-4.7h-2.8V80h3.1v-7     c0-0.4,0-0.9,0-1.3h0c0.3,0.5,0.6,0.9,0.9,1.3l2.5,3.4h1.4l2.2-3.3c0.2-0.3,0.8-1.1,0.9-1.4h0c0,0.4,0,1,0,1.5V80H385.3z"/>
			<polygon class="st0" points="399.7,80 399.7,77.5 394.8,77.5 394.8,74.4 399,74.4 399,71.9 394.8,71.9 394.8,69.1 399,69.1      399.7,66.5 391.6,66.5 391.6,80    "/>
			<path class="st0" d="M418.4,80V66.5h-3.1v6.2c0,0.5,0,1.5,0,2.2h0c-0.4-0.6-0.8-1.1-1.2-1.6l-5.4-6.8h-3.1V80h3.1v-6.8     c0-0.6,0-1.5-0.1-1.9h0c0.4,0.6,0.8,1.1,1.3,1.7l5.6,7.1H418.4z"/>
		</g>
		<g>
			<path class="st0" d="M171.1,111.7c0-4.3-5.7-4-5.7-6.2c0-0.7,0.7-1.1,1.6-1.1c1.1,0,2,0.4,3.3,1l0.1-2.6     c-0.8-0.5-2.1-0.8-3.5-0.8c-3.1,0-4.7,1.9-4.7,3.9c0,1,0.3,1.8,0.8,2.4c1.6,1.9,4.9,2.1,4.9,3.8c0,0.9-1,1.2-1.9,1.2     c-1.2,0-2.2-0.5-3.1-1.1l-1.2,2.2c1,0.7,2.5,1.3,4.5,1.3C168.8,115.8,171.1,114.3,171.1,111.7z"/>
			<polygon class="st0" points="184.8,115.6 184.8,113.1 179.8,113.1 179.8,110 184.1,110 184.1,107.5 179.8,107.5 179.8,104.7      184,104.7 184.8,102.2 176.7,102.2 176.7,115.6    "/>
			<path class="st0" d="M201.4,115.6c-2-3.4-3.2-5.6-4-6v0c1.2-0.6,2.4-1.7,2.4-3.4c0-2.1-1.3-3.9-5-3.9h-4.2v13.4h3.1v-5h0.9     c0.5,0.2,1.2,1.5,3.2,5H201.4z M196.7,106.5c0,1.1-0.8,1.9-1.9,1.9h-1.1v-3.6h1.2C196,104.7,196.7,105.5,196.7,106.5z"/>
			<path class="st0" d="M218.3,102.2h-3.2l-2.9,6.8c-0.4,0.9-0.7,1.8-0.9,2.5h0c-0.3-0.8-0.6-1.7-0.9-2.6l-2.6-6.7h-3.4l5.6,13.5     h2.4L218.3,102.2z"/>
			<rect x="223.5" y="102.2" class="st0" width="3.1" height="13.4"/>
			<path class="st0" d="M245.8,115.6v-13.4h-3.1v6.2c0,0.5,0,1.5,0,2.2h0c-0.4-0.6-0.8-1.1-1.2-1.6l-5.4-6.8h-3.1v13.4h3.1v-6.8     c0-0.6,0-1.5-0.1-1.9h0c0.5,0.6,0.8,1.1,1.3,1.7l5.6,7.1H245.8z"/>
			<path class="st0" d="M264.2,114.5v-5.8H261v4.5c-0.5,0.2-1.2,0.3-1.8,0.3c-2.7,0-4.3-2.2-4.3-4.5c0-2.2,1.2-4.3,4.8-4.3     c1.3,0,2.4,0.3,3.6,0.9l0.1-2.8c-1.2-0.4-2.3-0.6-4.1-0.6c-4.7,0-7.8,3.1-7.8,7c0,3.7,2.5,6.8,6.8,6.8     C260.7,115.8,262.6,115.3,264.2,114.5z"/>
			<path class="st0" d="M290.3,114.4l-0.8-2.1c-1.1,0.6-2.1,0.9-3.4,0.9c-2.5,0-4.1-1.9-4.1-4.3c0-2.1,1.2-4.3,4.4-4.3     c0.9,0,2.1,0.2,3.3,0.9l0.1-2.7c-0.9-0.5-2.2-0.7-3.5-0.7c-4.8,0-7.7,3.1-7.7,7c0,3.8,2.5,6.8,7,6.8     C287.1,115.8,288.6,115.4,290.3,114.4z"/>
			<path class="st0" d="M309.4,108.9c0-1.9-0.5-3.6-1.7-4.8c-1.2-1.3-3.1-2.1-5.3-2.1c-2.1,0-3.8,0.8-5.1,2c-1.3,1.3-2,3.1-2,5     c0,2.1,0.8,3.9,2.1,5.1c1.2,1.1,2.8,1.6,4.9,1.6c2.1,0,3.9-0.8,5.2-2.1C308.8,112.6,309.4,110.8,309.4,108.9z M306.1,109     c0,2.8-1.6,4.4-3.7,4.4c-2.1,0-3.7-1.6-3.7-4.4c0-2.8,1.6-4.4,3.7-4.4C304.4,104.5,306.1,106.1,306.1,109z"/>
			<path class="st0" d="M329.3,115.6v-13.4h-2.8l-3,4.6c-0.4,0.6-0.7,1.2-1,1.7h0c-0.3-0.5-0.6-1-1-1.6l-3.4-4.7h-2.8v13.4h3.1v-7     c0-0.4,0-0.9,0-1.3h0c0.3,0.5,0.6,0.9,0.9,1.3l2.5,3.4h1.4l2.2-3.3c0.2-0.3,0.8-1.1,0.9-1.4h0c0,0.4,0,1,0,1.5v6.8H329.3z"/>
			<path class="st0" d="M349.7,115.6v-13.4h-2.8l-3,4.6c-0.4,0.6-0.7,1.2-1,1.7h0c-0.3-0.5-0.6-1-1-1.6l-3.4-4.7h-2.8v13.4h3.1v-7     c0-0.4,0-0.9,0-1.3h0c0.3,0.5,0.6,0.9,0.9,1.3l2.5,3.4h1.4l2.2-3.3c0.2-0.3,0.8-1.1,0.9-1.4h0c0,0.4,0,1,0,1.5v6.8H349.7z"/>
			<path class="st0" d="M368,110.2v-8h-3.1v8.3c0,0.8-0.2,1.5-0.6,2c-0.5,0.5-1.2,0.8-2.3,0.8c-0.9,0-1.7-0.3-2.2-0.8     c-0.4-0.4-0.7-1.1-0.7-2.1v-8.2H356v8.4c0,1.7,0.5,2.9,1.3,3.8c1,1,2.6,1.4,4.6,1.4c2.1,0,3.6-0.5,4.7-1.6     C367.5,113.3,368,111.9,368,110.2z"/>
			<path class="st0" d="M387.1,115.6v-13.4H384v6.2c0,0.5,0,1.5,0,2.2h0c-0.4-0.6-0.8-1.1-1.2-1.6l-5.4-6.8h-3.1v13.4h3.1v-6.8     c0-0.6,0-1.5-0.1-1.9h0c0.5,0.6,0.8,1.1,1.3,1.7l5.6,7.1H387.1z"/>
			<rect x="393.5" y="102.2" class="st0" width="3.1" height="13.4"/>
			<polygon class="st0" points="413.3,102.2 402,102.2 402,104.7 405.9,104.7 405.9,115.6 409.1,115.6 409.1,104.7 412.6,104.7         "/>
			<rect x="418.5" y="102.2" class="st0" width="3.1" height="13.4"/>
			<polygon class="st0" points="435.9,115.6 435.9,113.1 431,113.1 431,110 435.2,110 435.2,107.5 431,107.5 431,104.7 435.2,104.7      436,102.2 427.9,102.2 427.9,115.6    "/>
			<path class="st0" d="M450.7,111.7c0-4.3-5.7-4-5.7-6.2c0-0.7,0.7-1.1,1.6-1.1c1.1,0,2,0.4,3.3,1l0.1-2.6     c-0.8-0.5-2.1-0.8-3.5-0.8c-3.1,0-4.7,1.9-4.7,3.9c0,1,0.3,1.8,0.8,2.4c1.6,1.9,4.9,2.1,4.9,3.8c0,0.9-1,1.2-1.9,1.2     c-1.2,0-2.2-0.5-3.1-1.1l-1.2,2.2c1,0.7,2.4,1.3,4.4,1.3C448.5,115.8,450.7,114.3,450.7,111.7z"/>
			<path class="st0" d="M457,103.1c0-2.3-3.1-2.2-3.1-3.3c0-0.3,0.4-0.6,0.9-0.6c0.6,0,1.1,0.2,1.8,0.5l0-1.4     c-0.5-0.3-1.1-0.5-1.9-0.5c-1.7,0-2.6,1-2.6,2.1c0,0.6,0.2,1,0.5,1.3c0.9,1,2.6,1.2,2.6,2c0,0.5-0.5,0.7-1,0.7     c-0.6,0-1.2-0.3-1.7-0.6l-0.6,1.2c0.6,0.4,1.3,0.7,2.4,0.7C455.8,105.3,457,104.4,457,103.1z"/>
			<path class="st0" d="M466.7,105.2v-7.3h-1.5l-1.6,2.5c-0.2,0.3-0.4,0.6-0.5,0.9h0c-0.2-0.3-0.3-0.5-0.6-0.9l-1.8-2.5h-1.5v7.3     h1.7v-3.8c0-0.2,0-0.5,0-0.7h0c0.2,0.3,0.3,0.5,0.5,0.7l1.4,1.9h0.7l1.2-1.8c0.1-0.2,0.4-0.6,0.5-0.8h0c0,0.2,0,0.5,0,0.8v3.7     H466.7z"/>
		</g>
	</g>
	<g>
		<g>
			<path class="st1" d="M7.4,63.6l4.2-2.3l0.5-0.3c1.3-0.7,2-1.4,2.1-2.1l0.1-0.3c0-0.1,0.1-0.2,0.2-0.1c0.1,0,0.2,0.2,0.2,0.5     c0.1,0.3,0.1,0.6,0,1c-0.1,0.6-0.3,1.1-0.6,1.5c-0.4,0.4-0.9,0.8-1.7,1.2l-4,2l-0.2,0.1c-0.3,0.1-0.4,0.4-0.5,0.7l-0.1,1.3l0,0.2     c0,0.1,0.1,0.1,0.3,0.1l3.1,0.3l0.4,0c0.6,0.1,1,0.1,1.2,0c0.2,0,0.4-0.1,0.6-0.3c0.3-0.3,0.4-0.7,0.6-1.2c0-0.2,0.1-0.3,0.3-0.3     c0.1,0,0.2,0.1,0.2,0.3c0,0.1,0,0.3-0.1,0.6c-0.1,0.3-0.1,0.7-0.2,1.2l-0.1,0.9l0,0.5c0,0.2,0,0.5,0,0.8c0,0.3,0,0.4,0,0.5     c0,0.2-0.1,0.2-0.2,0.2c-0.1,0-0.1-0.1-0.2-0.3c0-0.5-0.2-0.9-0.6-1.1c-0.4-0.2-1.1-0.4-2.2-0.5l-7-0.7l-1-0.1     c-1-0.1-1.6,0.2-1.8,0.9l-0.1,0.4c-0.1,0.2-0.1,0.3-0.3,0.3C0,69.8,0,69.7,0,69.5c0-0.1,0-0.3,0.1-0.7c0-0.2,0.1-0.5,0.1-0.9     c0-0.3,0.1-0.8,0.1-1.5c0-0.5,0.1-1,0.1-1.4c0.2-1.5,0.6-2.6,1.2-3.3c0.6-0.7,1.5-1,2.6-0.9C5.7,61,6.8,61.9,7.4,63.6z M6.9,66.5     L7,65.4c0.1-0.9-0.1-1.5-0.5-2.1c-0.4-0.5-1-0.8-1.8-0.9c-0.9-0.1-1.8,0.1-2.4,0.7S1.2,64.5,1,65.5c0,0.4,0,0.7,0.1,0.8     c0.1,0.2,0.3,0.3,0.7,0.3l0.3,0l4,0.4c0.3,0,0.5,0,0.6-0.1C6.8,67,6.8,66.8,6.9,66.5z"/>
			<path class="st1" d="M4.1,47.6c0.7-1.9,1.8-3.3,3.5-4.1c1.6-0.8,3.4-0.9,5.2-0.2c2,0.7,3.4,1.9,4.2,3.6c0.8,1.7,0.9,3.5,0.2,5.4     c-0.7,2-1.9,3.4-3.5,4.2c-1.6,0.8-3.4,0.9-5.4,0.2c-0.9-0.3-1.6-0.8-2.4-1.4c-0.7-0.6-1.3-1.3-1.6-2c-0.4-0.8-0.6-1.7-0.6-2.7     C3.6,49.5,3.8,48.5,4.1,47.6z M4.5,48.4c-0.5,1.4-0.4,2.7,0.2,3.9c0.7,1.2,1.8,2.1,3.4,2.6c1.9,0.7,3.6,0.7,5.3,0.1     c1.7-0.6,2.8-1.7,3.3-3.3c0.5-1.4,0.4-2.8-0.3-4.1c-0.7-1.3-1.9-2.2-3.5-2.8c-1.8-0.7-3.6-0.6-5.2,0C6.2,45.6,5.1,46.8,4.5,48.4z     "/>
			<path class="st1" d="M21.3,38.9c0.6,0.4,1.1,0.6,1.3,0.6c0.2,0,0.5-0.3,0.9-0.7c0.1-0.2,0.2-0.2,0.3-0.2c0.1,0.1,0.1,0.2,0,0.4     c0,0.1-0.1,0.2-0.3,0.4c-0.1,0.1-0.2,0.3-0.4,0.6l-0.4,0.6l-0.4,0.7c-0.3,0.4-0.4,0.7-0.5,0.8c-0.1,0.2-0.1,0.3-0.2,0.3     c-0.1,0.1-0.2,0.2-0.3,0.1c-0.1-0.1-0.1-0.2,0-0.4c0.2-0.5,0.3-0.9,0.2-1.1c-0.1-0.2-0.4-0.5-1-0.9L20,40l-2.5-1.6     c-0.4-0.2-0.6-0.4-0.8-0.4c-0.2-0.1-0.5-0.1-0.9-0.1l-5.1,0l-0.6,0c-0.4,0-0.7,0.1-1.1,0.3c-0.3,0.2-0.6,0.4-0.8,0.7     c-0.1,0.2-0.2,0.2-0.3,0.1c-0.1-0.1-0.1-0.2,0-0.4C8,38.5,8,38.4,8.2,38.3c0.3-0.3,0.5-0.7,0.8-1.1c0.5-0.8,0.8-1.3,0.9-1.6     c0.1-0.3,0.2-0.4,0.2-0.5c0.1-0.2,0.2-0.2,0.3-0.1c0.1,0.1,0.1,0.2,0.1,0.3c-0.1,0.4,0,0.7,0.2,0.9c0.1,0.1,0.5,0.1,1,0.1l0.5,0     l3.8,0l0.2,0c0.1,0,0.2,0,0.2-0.1c0-0.1,0-0.1,0-0.2l-0.1-0.2l-1.1-2.3L15,32.7c-0.4-0.8-0.7-1.2-0.9-1.4     c-0.4-0.2-0.9-0.1-1.5,0.5c-0.1,0.1-0.2,0.1-0.3,0.1c-0.1-0.1-0.1-0.2,0-0.3c0.1-0.1,0.2-0.2,0.3-0.4c0.1-0.1,0.4-0.5,0.8-1.1     c0.4-0.6,0.6-0.9,0.7-1.1c0.1-0.2,0.2-0.4,0.2-0.5c0.1-0.2,0.2-0.2,0.3-0.1c0.1,0.1,0.1,0.2,0.1,0.3c-0.1,0.6-0.1,1.2,0.2,1.8     l0.5,1l1.7,3.9l0.2,0.4c0.2,0.4,0.4,0.7,0.6,0.8L21.3,38.9z"/>
			<path class="st1" d="M27,27l-2.5,2.6c-0.3,0.3-0.5,0.6-0.5,0.7c0,0.1,0.1,0.4,0.2,0.9l0.6,1.5c0.3,0.7,0.5,1.1,0.8,1.3     c0.2,0.2,0.4,0.3,0.6,0.3c0.2,0,0.5-0.2,0.9-0.4c0.2-0.1,0.3-0.1,0.4-0.1c0.1,0.1,0.1,0.2-0.1,0.3c0,0.1-0.1,0.1-0.2,0.2     l-0.7,0.6c-0.2,0.2-0.5,0.5-0.8,0.8c-0.1,0.1-0.2,0.2-0.3,0.3c-0.2,0.3-0.3,0.4-0.3,0.4c-0.1,0.1-0.2,0.1-0.3,0.1     c-0.1-0.1-0.1-0.2,0-0.3l0.2-0.3c0.1-0.1,0.1-0.4,0-0.7c0-0.4-0.1-0.7-0.3-1l-0.3-0.7l-4.6-11.4c-0.1-0.2-0.1-0.3,0-0.4     c0.1-0.1,0.2-0.1,0.4,0l10.7,4.4l0.5,0.2c0.8,0.3,1.3,0.5,1.6,0.5c0.3,0,0.7-0.2,1.2-0.6c0.2-0.1,0.3-0.1,0.4,0     c0.1,0.1,0.1,0.2-0.1,0.3c0,0-0.1,0.1-0.3,0.3c-0.3,0.2-0.7,0.6-1.3,1.3c-0.6,0.7-1,1.1-1.1,1.3c-0.1,0.1-0.1,0.2-0.2,0.2     c-0.1,0.1-0.2,0.1-0.3,0c-0.1-0.1-0.1-0.2,0-0.3l0.2-0.3c0.2-0.3,0.1-0.6-0.1-0.8c-0.3-0.2-0.9-0.6-1.9-1l-1.3-0.5     c-0.4-0.2-0.6-0.2-0.7-0.2C27.4,26.6,27.3,26.7,27,27z M25.9,25.8l-3.9-1.6l-0.2-0.1c-0.2-0.1-0.3-0.1-0.4,0c0,0,0,0.1,0,0.2     l1.7,4.3c0.1,0.2,0.1,0.3,0.2,0.3c0.1,0.1,0.3,0.1,0.5-0.1l0.2-0.2l2-2.1c0.2-0.2,0.3-0.4,0.2-0.5c0,0-0.1-0.1-0.2-0.1L25.9,25.8     z"/>
			<path class="st1" d="M36.4,22.2l0.2,0.3c0.4,0.6,0.8,1,1,1c0.2,0,0.7-0.2,1.3-0.6c1-0.7,1.8-1.4,2.4-2.1c0.6-0.7,0.8-1.4,0.8-1.9     c0-0.2,0-0.3,0.1-0.4c0.1-0.1,0.2,0,0.2,0.1c0.2,0.4,0.3,0.9,0.3,1.5c-0.1,0.9-0.6,1.7-1.7,2.4c-0.2,0.1-0.4,0.2-0.6,0.4     l-0.9,0.5c-0.5,0.3-1.1,0.7-1.7,1.1c-0.7,0.5-1.2,0.9-1.6,1.2C36,25.8,35.8,26,35.7,26c-0.1,0.1-0.2,0.1-0.3,0     c-0.1-0.1,0-0.2,0.1-0.3c0.3-0.4,0.4-0.7,0.4-1c0-0.3-0.2-0.7-0.6-1.2l-0.2-0.4l-4.9-7.3c-0.5-0.7-1.1-0.9-1.7-0.7L28,15.3     c-0.1,0.1-0.2,0.1-0.3,0c-0.1-0.1,0-0.2,0.2-0.4c0.1-0.1,0.3-0.2,0.5-0.3c0.4-0.2,0.8-0.5,1.3-0.8c0.5-0.3,0.9-0.7,1.3-1     c0.2-0.2,0.3-0.2,0.3-0.3c0.1-0.1,0.2-0.1,0.3,0c0.1,0.1,0.1,0.2-0.1,0.4l-0.2,0.3c-0.4,0.4-0.3,1.1,0.3,1.9L36.4,22.2z"/>
			<path class="st1" d="M57.5,5.3l2.3,7.9c0.2,0.7,0.3,1.1,0.3,1.3c0,0.2-0.1,0.3-0.2,0.3c-0.1,0-0.2,0-0.2,0l-0.3-0.2L48.8,7.8     l-0.1-0.1c0,0-0.1,0-0.1,0c-0.1,0-0.1,0.2-0.1,0.5l1.9,6.4l0.1,0.4l0.2,0.7c0.2,0.4,0.4,0.7,0.6,0.8c0.2,0.1,0.6,0.1,1.1,0.1     c0.2,0,0.3,0,0.4,0.1c0,0.1,0,0.2-0.1,0.2c-0.1,0-0.2,0-0.3,0.1c-0.1,0-0.3,0.1-0.8,0.2l-1,0.2l-0.4,0.2     c-0.2,0.1-0.5,0.2-0.7,0.2c-0.2,0.1-0.3,0.1-0.3,0.1c-0.2,0-0.3,0-0.3-0.1c0-0.1,0-0.2,0.2-0.3c0.5-0.3,0.8-0.7,0.8-1     c0.1-0.4,0-0.9-0.2-1.6l-1.9-6.4c-0.3-1.1-0.7-1.9-1.3-2.4c-0.5-0.5-1.1-0.7-1.8-0.6c-0.2,0-0.3,0-0.3-0.1c0-0.1,0-0.2,0.2-0.2     c0,0,0.1,0,0.2,0L45,4.9l0.6-0.2l0.1-0.1c0.1-0.1,0.3-0.1,0.3-0.1c0.2,0,0.3,0,0.6,0.1L58.2,12c0.2,0.1,0.3,0.2,0.3,0.1     c0.1,0,0.1-0.1,0.1-0.2l-1.4-4.6L56.9,6l-0.8-2.1c-0.2-0.5-0.5-0.8-0.8-1c-0.3-0.1-0.8-0.2-1.5-0.1c-0.2,0-0.3,0-0.3-0.1     c0-0.1,0-0.2,0.2-0.3c0.1,0,0.2-0.1,0.4-0.1c0.4-0.1,1-0.2,1.8-0.5c0.4-0.1,0.7-0.2,0.9-0.3c0.2-0.1,0.3-0.2,0.4-0.2     c0.2,0,0.3,0,0.3,0.1c0,0.1,0,0.2-0.1,0.2c-0.4,0.2-0.6,0.4-0.6,0.7c-0.1,0.3,0,0.7,0.2,1.3l0.3,1L57.5,5.3z"/>
			<path class="st1" d="M65.7,2l0.2,4c0,0.3,0.1,0.5,0.1,0.5c0.1,0.1,0.2,0.1,0.5,0.1L68,6.5c0.7,0,1.2-0.1,1.6-0.2     c0.3-0.1,0.6-0.2,0.7-0.3c0.1-0.1,0.2-0.4,0.2-0.8c0-0.2,0.1-0.2,0.2-0.3c0.1,0,0.2,0.1,0.2,0.3c0,0,0,0.1,0,0.2     c0,0.6,0,1.2,0,1.7c0,0.4,0.1,0.8,0.1,1.2c0,0.1,0,0.2,0,0.3c0,0.2,0,0.2-0.2,0.3c-0.1,0-0.2-0.1-0.3-0.2l-0.1-0.3     c-0.1-0.4-0.3-0.7-0.5-0.9c-0.2-0.1-0.7-0.2-1.2-0.2l-2.2,0.1c-0.3,0-0.5,0.1-0.6,0.1C66,7.6,66,7.7,66,7.9l0,0.3l0.2,3.6     c0,0.6,0.2,0.9,0.4,1c0.2,0.1,0.7,0.2,1.5,0.1c2.6-0.1,4.2-0.8,4.8-2c0.1-0.1,0.1-0.2,0.2-0.2c0.1,0,0.2,0.1,0.2,0.2     c0,0.4-0.2,0.9-0.6,1.6c-0.5,0.7-1.2,1.1-2.1,1.2c-0.2,0-0.4,0-0.8,0c-1.3,0-2.3,0-3.1,0c-1.1,0.1-1.9,0.2-2.4,0.3     c-0.2,0.1-0.4,0.1-0.5,0.1c-0.2,0-0.3-0.1-0.3-0.2c0-0.1,0.1-0.2,0.2-0.2l0.4-0.1c0.5-0.2,0.7-0.6,0.6-1.4l0-0.6l-0.5-8.3     c-0.1-0.9-0.2-1.6-0.4-1.9c-0.2-0.3-0.6-0.5-1.2-0.4c-0.2,0-0.3,0-0.3-0.2c0-0.2,0.1-0.3,0.4-0.3c0.2,0,0.4,0,0.7,0     c0.9,0.1,2.1,0,3.4,0c0.8,0,1.5-0.1,2.1-0.2l1.4-0.2c0.4,0,0.6-0.1,0.7-0.1C71.1,0,71.3,0,71.4,0c0.2,0,0.3,0.1,0.3,0.3     c0,0.1,0,0.1,0,0.2c0,0.1,0,0.4,0,0.8l0,0.6c0,0.4,0,0.6-0.1,0.7c0,0.1-0.1,0.1-0.2,0.2c-0.1,0-0.2-0.1-0.2-0.3l0-0.3     c0-0.2-0.1-0.4-0.1-0.6c-0.1-0.3-0.4-0.5-0.8-0.5C69.8,1,69.1,1,68.1,1l-1.5,0.1c-0.4,0-0.7,0.1-0.8,0.2     C65.7,1.4,65.7,1.7,65.7,2z"/>
			<path class="st1" d="M79.1,3.5l-0.7,7.3c-0.1,0.9-0.1,1.5,0,1.8c0.1,0.3,0.2,0.6,0.4,0.8c0.2,0.2,0.5,0.3,0.9,0.4     c0.3,0.1,0.5,0.2,0.5,0.3c0,0.2-0.1,0.2-0.3,0.2c-0.1,0-0.2,0-0.4-0.1c-0.2-0.1-0.5-0.1-1-0.1L77,13.9l-1.2,0c-0.2,0-0.3,0-0.5,0     c-0.2,0-0.3-0.1-0.2-0.2c0-0.1,0.1-0.2,0.3-0.2c0.5,0,0.8-0.2,1-0.4c0.2-0.2,0.3-0.8,0.4-1.6L77.6,3c0.1-0.8,0-1.4-0.1-1.7     c-0.2-0.3-0.5-0.5-1.1-0.7c-0.2-0.1-0.3-0.1-0.3-0.3c0-0.1,0.1-0.2,0.3-0.2c0.1,0,0.1,0,0.2,0c0.5,0.1,1.1,0.2,1.9,0.3     c0.5,0,0.9,0.1,1.2,0.1l0.7,0c0.1,0,0.2,0,0.2,0c0.2,0,0.3,0.1,0.2,0.2c0,0.1-0.1,0.2-0.3,0.2l-0.5,0.1     C79.6,1.4,79.2,2.1,79.1,3.5z"/>
			<path class="st1" d="M93,14l0.6-2.1c0.1-0.4,0.1-0.7,0-0.9c-0.1-0.2-0.4-0.4-0.9-0.6c-0.2-0.1-0.3-0.2-0.3-0.3     c0-0.1,0.1-0.1,0.4-0.1l0.4,0.1l0.7,0.2c1,0.3,1.5,0.4,1.7,0.5c0.4,0.1,0.7,0.2,0.8,0.2c0.1,0,0.2,0.1,0.2,0.2     c0,0.1-0.1,0.2-0.3,0.1c-0.5,0-0.8,0.2-1,0.8l-0.1,0.3l-0.9,3l-0.1,0.3L94,16c0,0-0.1,0-0.3,0c-0.2,0-0.5,0-0.9,0.1l-0.7,0.2     c-1.4,0.3-2.8,0.3-4.2-0.1c-1.9-0.6-3.2-1.6-4.1-3.2c-0.8-1.6-1-3.3-0.4-5.2c0.6-2,1.7-3.4,3.4-4.4c1.7-0.9,3.5-1.1,5.4-0.6     c0.7,0.2,1.5,0.6,2.3,1c0.8,0.5,1.4,0.9,1.8,1.4c0.1,0.1,0.1,0.1,0.1,0.1c0,0,0.1,0,0.2,0l0.3-0.1c0.1,0,0.1,0,0.1,0     c0.1,0,0.1,0.2,0,0.5c0,0.1-0.1,0.4-0.1,0.7l-0.2,0.9c0,0.2-0.1,0.5-0.1,0.8c0,0.1,0,0.2,0,0.3c0,0.2-0.1,0.2-0.3,0.2     c-0.1,0-0.1-0.1-0.2-0.2c-0.2-1.1-0.7-2.2-1.5-3.1c-0.8-0.9-1.8-1.5-3-1.9C90.1,3,88.8,3.2,87.6,4c-1.2,0.8-2.1,2.1-2.6,3.8     c-0.5,1.8-0.5,3.5,0.2,5c0.7,1.5,1.8,2.5,3.3,3c1.5,0.4,2.7,0.2,3.9-0.5C92.6,15,92.9,14.6,93,14z"/>
			<path class="st1" d="M103.3,14.4l4.9,3c0.2,0.1,0.4,0.2,0.5,0.2c0.1,0,0.2-0.1,0.3-0.2l1.8-2.9c0.4-0.6,0.5-1,0.5-1.4     c0-0.3-0.2-0.7-0.5-1c-0.1-0.1-0.2-0.3-0.1-0.3c0.1-0.1,0.2-0.1,0.3,0c0.1,0.1,0.3,0.2,0.5,0.4c0.3,0.3,0.7,0.5,1.1,0.8     c0.6,0.4,1,0.6,1.3,0.7c0.2,0.1,0.3,0.1,0.3,0.2c0.1,0.1,0.2,0.2,0.1,0.3c-0.1,0.1-0.2,0.1-0.3,0l-0.4-0.1     c-0.2-0.1-0.4,0-0.7,0.1c-0.3,0.1-0.5,0.4-0.6,0.6l-5,8.1c-0.4,0.6-0.5,1.1-0.5,1.4c0,0.3,0.3,0.7,0.7,1c0.2,0.1,0.2,0.2,0.2,0.3     c-0.1,0.1-0.2,0.2-0.4,0.1c-0.1-0.1-0.3-0.2-0.4-0.3c-0.1-0.1-0.4-0.3-0.8-0.5l-0.6-0.4l-0.6-0.4c-0.1-0.1-0.2-0.1-0.4-0.2     c-0.4-0.2-0.6-0.3-0.6-0.3c-0.1-0.1-0.2-0.2-0.1-0.3c0.1-0.1,0.2-0.1,0.4,0c0.6,0.3,1.2,0,1.8-0.9l0.2-0.3L108,19     c0.2-0.3,0.2-0.4,0.2-0.5c0-0.1-0.2-0.2-0.5-0.4l-4.9-3c-0.3-0.2-0.5-0.3-0.7-0.3c-0.1,0-0.3,0.2-0.4,0.4l-1.9,3.1     c-0.4,0.6-0.5,1-0.5,1.4c0,0.3,0.3,0.7,0.8,1.1c0.2,0.1,0.3,0.3,0.2,0.4c-0.1,0.1-0.2,0.1-0.3,0c-0.1,0-0.2-0.1-0.4-0.3     c-0.1-0.1-0.5-0.3-1-0.7L98,19.8l-0.6-0.3c-0.1-0.1-0.3-0.2-0.5-0.3c-0.3-0.2-0.5-0.2-0.6-0.3c-0.1-0.1-0.2-0.2-0.1-0.3     c0.1-0.1,0.2-0.1,0.3-0.1l0.5,0.2c0.3,0.1,0.6,0,0.8-0.2c0.3-0.3,0.7-0.8,1.1-1.6l4.4-7.2c0.3-0.5,0.4-0.9,0.4-1.2     c-0.1-0.3-0.3-0.7-0.7-1c-0.1-0.1-0.2-0.2-0.1-0.3c0.1-0.1,0.2-0.1,0.3,0c0.1,0.1,0.3,0.2,0.5,0.4c0.4,0.3,0.9,0.7,1.5,1     c0.4,0.2,0.8,0.4,1.1,0.6c0.2,0.1,0.3,0.1,0.4,0.2c0.2,0.1,0.2,0.2,0.1,0.3c0,0.1-0.2,0.1-0.3,0c-0.4-0.1-0.8-0.2-1-0.1     c-0.2,0.1-0.5,0.4-0.7,0.8l-1.8,3c-0.2,0.3-0.3,0.5-0.3,0.6C102.7,14.1,102.9,14.2,103.3,14.4z"/>
			<path class="st1" d="M112.2,26.1l5.4-5.3c0.6-0.6,1-1.1,1.1-1.6c0.1-0.5,0-0.9-0.4-1.3c-0.2-0.2-0.2-0.3-0.1-0.4     c0.1-0.1,0.2-0.1,0.4,0.1c0,0,0.1,0.2,0.3,0.4c0.1,0.1,0.3,0.3,0.6,0.6c0.3,0.3,0.6,0.6,0.8,0.8l0.8,0.7c0.3,0.2,0.5,0.5,0.7,0.7     c1,1,1.6,2,1.8,3c0.2,1-0.1,1.8-0.8,2.5c-0.7,0.7-1.6,1-2.6,0.8l-0.5-0.1c-0.1,0-0.2,0-0.2,0c0,0.1,0,0.2,0.2,0.5     c0.4,0.6,0.5,1.3,0.4,2.1c-0.1,0.8-0.5,1.4-1,2c-0.8,0.8-1.9,1.2-3,1.2c-1.2-0.1-2.2-0.6-3.2-1.6l-0.5-0.6l-0.6-0.7l-0.5-0.6     c-0.3-0.4-0.6-0.7-0.8-0.9c-0.2-0.2-0.4-0.4-0.6-0.5c-0.3-0.2-0.4-0.3-0.5-0.4c-0.1-0.1-0.1-0.2,0-0.3c0.1-0.1,0.2-0.1,0.3,0.1     c0.4,0.3,0.9,0.4,1.3,0C111.3,26.9,111.7,26.5,112.2,26.1z M116.4,24.7c-0.2-0.2-0.3-0.3-0.4-0.3c-0.1,0-0.2,0-0.3,0.2l-3.2,3.2     l-0.3,0.3l-0.2,0.3c-0.1,0.3-0.1,0.6,0.1,0.9c0.2,0.4,0.6,0.8,1.1,1.4c0.7,0.7,1.5,1.1,2.3,1.1c0.8,0,1.5-0.3,2.2-1     c0.7-0.7,1.1-1.5,1.1-2.4c0-0.9-0.3-1.7-1-2.4L116.4,24.7z M117,24.3l1.1,1.1c1.2,1.2,2.3,1.2,3.3,0.2c0.6-0.6,0.9-1.4,0.9-2.4     c-0.1-0.9-0.4-1.8-1.2-2.5c-0.3-0.3-0.6-0.5-0.8-0.5c-0.2,0-0.4,0.1-0.7,0.4l-2.8,2.8c-0.2,0.2-0.2,0.3-0.2,0.4     C116.7,24,116.8,24.1,117,24.3z"/>
			<path class="st1" d="M132.7,34.3c1.1,1.7,1.4,3.5,1,5.3c-0.4,1.8-1.4,3.2-3.1,4.2c-1.8,1.1-3.6,1.4-5.4,1     c-1.8-0.4-3.3-1.5-4.4-3.3c-1.1-1.8-1.4-3.6-1-5.4c0.4-1.8,1.5-3.2,3.3-4.3c0.8-0.5,1.6-0.8,2.6-1c0.9-0.2,1.8-0.2,2.6,0     c0.9,0.2,1.7,0.6,2.5,1.2C131.6,32.8,132.2,33.5,132.7,34.3z M131.9,34.1c-0.8-1.3-1.9-2.1-3.2-2.3c-1.3-0.2-2.7,0.1-4.2,1     c-1.7,1-2.8,2.4-3.4,4.1c-0.6,1.7-0.4,3.2,0.5,4.6c0.8,1.3,1.9,2.1,3.4,2.3c1.5,0.3,2.9,0,4.4-0.9c1.7-1,2.7-2.4,3.2-4.1     C133,37.2,132.8,35.6,131.9,34.1z"/>
			<path class="st1" d="M133.7,53.5l-3,3.8l-0.4,0.4c-0.9,1.2-1.3,2.1-1.1,2.8l0.1,0.3c0,0.1,0,0.2-0.1,0.2c-0.1,0-0.2-0.1-0.4-0.3     c-0.2-0.2-0.3-0.5-0.4-0.9c-0.2-0.6-0.2-1.1,0-1.7c0.2-0.5,0.5-1.1,1.1-1.8l2.8-3.4l0.2-0.2c0.2-0.2,0.3-0.5,0.2-0.8l-0.4-1.2     l-0.1-0.2c-0.1-0.1-0.2-0.1-0.3,0l-2.9,0.9l-0.4,0.1c-0.5,0.2-0.9,0.3-1.1,0.4c-0.2,0.1-0.3,0.3-0.4,0.5c-0.1,0.3-0.1,0.8,0,1.4     c0,0.2,0,0.4-0.1,0.4c-0.1,0-0.2,0-0.3-0.3c0-0.1-0.1-0.3-0.1-0.6c0-0.3-0.2-0.7-0.3-1.2l-0.3-0.9l-0.2-0.5     c-0.1-0.2-0.2-0.5-0.3-0.8c-0.1-0.2-0.2-0.4-0.2-0.5c0-0.2,0-0.3,0.1-0.3c0.1,0,0.2,0,0.3,0.2c0.2,0.5,0.6,0.7,1,0.8     c0.4,0,1.1-0.1,2.2-0.4l6.7-2.1l1-0.3c1-0.3,1.4-0.8,1.3-1.5l-0.1-0.5c0-0.2,0-0.3,0.1-0.4c0.1,0,0.2,0,0.3,0.3     c0,0.1,0.1,0.3,0.2,0.7c0,0.2,0.1,0.5,0.2,0.8c0.1,0.3,0.3,0.8,0.5,1.4c0.2,0.5,0.3,0.9,0.4,1.3c0.4,1.4,0.5,2.6,0.2,3.5     c-0.3,0.9-1,1.5-2.1,1.8C136.3,55.3,134.9,54.8,133.7,53.5z M133.1,50.7l0.3,1.1c0.3,0.8,0.7,1.4,1.3,1.7     c0.6,0.3,1.3,0.4,2.1,0.1c0.9-0.3,1.6-0.8,1.9-1.6c0.4-0.8,0.4-1.7,0.1-2.7c-0.1-0.4-0.3-0.6-0.4-0.7c-0.2-0.1-0.4-0.1-0.7,0     l-0.3,0.1l-3.8,1.2c-0.3,0.1-0.5,0.2-0.5,0.3C133,50.2,133,50.4,133.1,50.7z"/>
			<path class="st1" d="M143,65.9c0.1,0.7,0,1.3-0.2,1.8l-0.2,0.7c0,0.1,0,0.1,0,0.2c0,0.1,0,0.2,0.1,0.2l0.1,0.1c0,0,0,0.1,0.1,0.1     c0,0.2-0.1,0.3-0.5,0.3c-0.1,0-0.4,0.1-1,0.2l-1,0.2c-0.2,0-0.3,0.1-0.4,0.1c-0.2,0-0.3,0-0.3-0.2c0-0.1,0.1-0.2,0.4-0.4     c0.7-0.3,1.2-0.8,1.6-1.6c0.4-0.8,0.6-1.6,0.5-2.5c-0.1-0.7-0.3-1.3-0.8-1.7c-0.5-0.4-1-0.6-1.6-0.6c-0.5,0-1,0.2-1.4,0.6     c-0.3,0.3-0.5,0.6-0.7,0.9c-0.1,0.3-0.4,1.1-0.7,2.4c-0.6,2.5-1.8,3.8-3.6,3.9c-1.2,0.1-2.2-0.3-3.1-1.1     c-0.8-0.8-1.3-1.9-1.4-3.3c0-0.5,0-1.1,0.1-1.7c0.1-0.6,0.2-1.1,0.4-1.4c0.1-0.1,0.1-0.2,0.2-0.3c0.1,0,0.3-0.1,0.7-0.2     c0.1,0,0.3-0.1,0.9-0.3c0.6-0.2,1-0.3,1.2-0.4c0.2,0,0.3,0,0.3,0.2c0,0.1-0.1,0.2-0.5,0.4c-0.8,0.3-1.4,0.8-1.9,1.6     c-0.5,0.8-0.7,1.6-0.6,2.5c0.1,0.9,0.4,1.6,1,2.2c0.6,0.6,1.3,0.8,2,0.8c0.7-0.1,1.3-0.4,1.8-1c0.2-0.3,0.5-1.2,0.9-2.6     c0.4-1.5,0.8-2.5,1.4-3.2c0.5-0.6,1.3-1,2.2-1.1c1.1-0.1,1.9,0.2,2.7,1C142.4,63.6,142.9,64.6,143,65.9z"/>
		</g>
		<g>
			<path class="st1" d="M131.1,107.6l-1.9,3c-0.3,0.4-0.4,0.7-0.4,0.8c0,0.1,0.1,0.4,0.4,0.8l0.9,1.3c0.4,0.6,0.7,1,1,1.2     c0.3,0.2,0.5,0.2,0.7,0.2c0.2-0.1,0.5-0.2,0.8-0.6c0.1-0.1,0.3-0.2,0.4-0.1c0.1,0.1,0.1,0.2,0,0.3c0,0.1-0.1,0.2-0.2,0.3     l-0.6,0.8c-0.2,0.3-0.4,0.6-0.6,0.9c-0.1,0.2-0.2,0.3-0.2,0.4c-0.2,0.3-0.2,0.5-0.3,0.5c-0.1,0.1-0.2,0.2-0.3,0.1     c-0.1-0.1-0.1-0.1-0.1-0.3l0.1-0.4c0-0.1,0-0.4-0.1-0.7c-0.1-0.3-0.3-0.7-0.4-0.9l-0.4-0.6l-6.7-10.3c-0.1-0.2-0.2-0.3-0.1-0.4     c0.1-0.1,0.2-0.1,0.4-0.1l11.3,2.3l0.6,0.1c0.8,0.2,1.4,0.2,1.7,0.2c0.3-0.1,0.6-0.3,1.1-0.8c0.1-0.1,0.3-0.2,0.4-0.1     c0.1,0.1,0.1,0.2,0,0.3c0,0-0.1,0.1-0.2,0.3c-0.2,0.3-0.6,0.8-1,1.5c-0.5,0.8-0.8,1.2-0.9,1.5c-0.1,0.1-0.1,0.2-0.1,0.3     c-0.1,0.1-0.2,0.2-0.3,0.1c-0.1-0.1-0.1-0.2,0-0.3l0.1-0.3c0.1-0.3,0-0.6-0.3-0.8c-0.3-0.2-1-0.4-2.1-0.6l-1.4-0.3     c-0.4-0.1-0.6-0.1-0.7-0.1C131.4,107.1,131.3,107.3,131.1,107.6z M129.8,106.6l-4.1-0.8l-0.2,0c-0.2,0-0.4,0-0.4,0     c0,0,0,0.1,0.1,0.2l2.5,3.9c0.1,0.2,0.2,0.3,0.2,0.3c0.1,0.1,0.3,0,0.5-0.2l0.2-0.2l1.6-2.5c0.2-0.3,0.2-0.5,0.1-0.5     c0,0-0.1,0-0.2-0.1L129.8,106.6z"/>
			<path class="st1" d="M118.5,112.9l1.8,1.5l0.2,0.2l0,0.1c0,0.1,0,0.1,0,0.2c-0.1,0.1-0.2,0-0.5-0.1c-2.3-0.8-4.3-0.4-5.8,1     c-1.2,1.1-1.8,2.4-1.9,3.8c0,1.4,0.6,2.8,1.8,4.1c1.4,1.5,2.9,2.4,4.6,2.6c1.7,0.2,3.1-0.2,4.4-1.4c0.7-0.7,1.3-1.5,1.6-2.5     c0.3-1,0.4-1.9,0.2-2.7c-0.1-0.4-0.1-0.6-0.1-0.7c0.1-0.1,0.2-0.1,0.2,0l0.1,0.1l0.1,0.2l0.6,1l0.1,0.2c0.1,0.1,0.1,0.4,0,0.7     c-0.5,1.7-1.4,3.2-2.7,4.4c-1.5,1.4-3.2,2.1-5,2.1c-1.8-0.1-3.4-0.8-4.8-2.3c-1.4-1.5-2-3.2-2-5.1c0.1-1.9,0.8-3.5,2.3-4.9     c1-0.9,2.2-1.6,3.4-1.9l0.4-0.1l0.2-0.1l0.2-0.1c0,0,0-0.1,0.1-0.2c0-0.2,0.1-0.3,0.1-0.3C118.2,112.7,118.3,112.8,118.5,112.9z"/>
			<path class="st1" d="M106,125.3l3.8,6.3c0.5,0.8,0.8,1.3,1.1,1.5c0.3,0.2,0.5,0.3,0.8,0.4c0.2,0,0.5-0.1,0.9-0.2     c0.3-0.1,0.5-0.1,0.5,0c0.1,0.1,0,0.3-0.1,0.4c-0.1,0.1-0.2,0.1-0.3,0.2c-0.2,0.1-0.5,0.2-0.9,0.5l-1.2,0.7l-0.9,0.7     c-0.2,0.1-0.3,0.2-0.4,0.3c-0.2,0.1-0.3,0.1-0.3,0c-0.1-0.1,0-0.2,0.1-0.3c0.4-0.3,0.6-0.6,0.5-0.9c0-0.3-0.2-0.8-0.7-1.5     l-4.4-7.2c-0.4-0.7-0.8-1.1-1.1-1.3c-0.3-0.1-0.7-0.1-1.3,0.1c-0.2,0.1-0.3,0.1-0.4,0c-0.1-0.1,0-0.2,0.1-0.3     c0,0,0.1-0.1,0.2-0.1c0.4-0.2,1-0.5,1.7-0.9c0.4-0.3,0.8-0.5,1-0.7l0.5-0.4c0.1-0.1,0.2-0.1,0.2-0.1c0.2-0.1,0.3-0.1,0.3,0     c0.1,0.1,0,0.2-0.1,0.4l-0.3,0.4C105,123.3,105.2,124.1,106,125.3z"/>
			<path class="st1" d="M96.9,134.1l3.9,2.8l0.5,0.3c1.2,0.9,2.1,1.2,2.8,1l0.3-0.1c0.1,0,0.2,0,0.2,0.1c0,0.1-0.1,0.2-0.3,0.4     c-0.2,0.2-0.5,0.3-0.9,0.5c-0.5,0.2-1.1,0.2-1.6,0.1c-0.6-0.1-1.2-0.5-1.9-1l-3.6-2.6l-0.2-0.2c-0.2-0.2-0.5-0.2-0.9-0.1     l-1.2,0.5l-0.2,0.1c-0.1,0.1-0.1,0.2,0,0.3l1.1,2.9l0.1,0.4c0.2,0.5,0.4,0.9,0.5,1.1c0.1,0.2,0.3,0.3,0.6,0.4     c0.3,0.1,0.8,0.1,1.4-0.1c0.2-0.1,0.4,0,0.4,0.1c0.1,0.1,0,0.2-0.2,0.3c-0.1,0-0.3,0.1-0.6,0.2c-0.3,0.1-0.7,0.2-1.2,0.4L95,142     l-0.5,0.2c-0.2,0.1-0.5,0.2-0.7,0.3c-0.2,0.1-0.4,0.2-0.5,0.2c-0.2,0.1-0.3,0-0.3-0.1c0-0.1,0-0.2,0.2-0.3c0.5-0.3,0.7-0.6,0.7-1     c0-0.4-0.2-1.1-0.6-2.2l-2.5-6.6l-0.4-0.9c-0.4-1-0.9-1.4-1.6-1.2l-0.5,0.1c-0.2,0-0.3,0-0.4-0.1c0-0.1,0-0.2,0.2-0.3     c0,0,0.3-0.1,0.7-0.2c0.2-0.1,0.5-0.2,0.8-0.3c0.3-0.1,0.8-0.3,1.4-0.6c0.5-0.2,0.9-0.4,1.3-0.5c1.4-0.5,2.6-0.7,3.5-0.4     c0.9,0.3,1.6,0.9,2,2C98.5,131.4,98.1,132.8,96.9,134.1z M94.1,134.9l1-0.4c0.8-0.3,1.4-0.8,1.6-1.4c0.3-0.6,0.3-1.3,0-2.1     c-0.3-0.9-0.9-1.5-1.8-1.8c-0.8-0.3-1.7-0.3-2.7,0c-0.4,0.1-0.6,0.3-0.7,0.5c-0.1,0.2-0.1,0.4,0,0.7l0.1,0.3l1.4,3.7     c0.1,0.3,0.2,0.5,0.3,0.5C93.6,135,93.8,135,94.1,134.9z"/>
			<path class="st1" d="M78.3,133.3l0.5,3.9c0,0.3,0.1,0.5,0.1,0.5c0.1,0.1,0.2,0.1,0.5,0l1.5-0.2c0.7-0.1,1.2-0.2,1.6-0.3     c0.3-0.1,0.6-0.2,0.6-0.4c0.1-0.1,0.1-0.4,0.2-0.9c0-0.2,0.1-0.3,0.2-0.3c0.1,0,0.2,0.1,0.2,0.2c0,0,0,0.1,0,0.2     c0,0.6,0.1,1.2,0.1,1.7c0.1,0.4,0.1,0.8,0.2,1.2c0,0.1,0,0.2,0.1,0.3c0,0.2,0,0.3-0.2,0.3c-0.1,0-0.2,0-0.3-0.2l-0.1-0.3     c-0.1-0.4-0.3-0.7-0.6-0.8c-0.3-0.1-0.7-0.2-1.2-0.1l-2.1,0.3c-0.3,0-0.5,0.1-0.6,0.2c-0.1,0.1-0.1,0.2-0.1,0.4l0.1,0.3l0.5,3.6     c0.1,0.6,0.2,0.9,0.4,1c0.2,0.1,0.7,0.1,1.5,0c2.5-0.3,4.1-1.1,4.7-2.3c0.1-0.1,0.1-0.2,0.2-0.2c0.1,0,0.2,0.1,0.2,0.2     c0,0.4-0.1,0.9-0.5,1.6c-0.5,0.8-1.2,1.2-2,1.3c-0.2,0-0.4,0-0.8,0.1c-1.2,0-2.3,0.1-3.1,0.2c-1.1,0.1-1.9,0.3-2.4,0.4     c-0.2,0.1-0.4,0.1-0.5,0.1c-0.2,0-0.3,0-0.3-0.2c0-0.1,0.1-0.2,0.2-0.3l0.4-0.2c0.4-0.2,0.6-0.7,0.5-1.5l-0.1-0.6l-1-8.2     c-0.1-0.9-0.3-1.5-0.5-1.8c-0.2-0.3-0.7-0.4-1.2-0.3c-0.2,0-0.3,0-0.3-0.1c0-0.2,0.1-0.3,0.4-0.3c0.2,0,0.4,0,0.7,0     c0.9,0,2.1-0.1,3.4-0.3c0.8-0.1,1.5-0.2,2.1-0.3l1.4-0.2c0.4-0.1,0.6-0.1,0.7-0.1c0.2,0,0.3-0.1,0.4-0.1c0.2,0,0.3,0.1,0.4,0.2     c0,0.1,0,0.1,0,0.2c0,0.1,0,0.4,0,0.8l0,0.6c0,0.4,0,0.6,0,0.7c0,0.1-0.1,0.2-0.2,0.2c-0.1,0-0.2-0.1-0.2-0.3l0-0.3     c0-0.2-0.1-0.4-0.2-0.6c-0.2-0.3-0.4-0.4-0.8-0.5c-0.4,0-1.1,0-2.1,0.1l-1.5,0.2c-0.4,0.1-0.7,0.1-0.8,0.3     C78.3,132.8,78.2,133,78.3,133.3z"/>
			<path class="st1" d="M67.5,135.6c-0.7,0.9-1.1,1.5-1.4,1.9l-1.1,1.7l-1.3,1.9c-0.1,0.1-0.4,0.7-1.1,1.7c-0.3,0.4-0.5,0.8-0.7,1     c-0.1,0.2-0.2,0.3-0.2,0.3c-0.2,0.3-0.3,0.4-0.5,0.4c-0.2,0-0.3-0.2-0.4-0.5c0-0.1-0.1-0.3-0.2-0.6l-0.1-0.4l-2.5-8.4l-0.9,4.8     c-0.1,0.4-0.2,1.2-0.4,2.4c-0.2,1.1,0.2,1.8,0.9,2.1c0.4,0.1,0.6,0.2,0.6,0.4c0,0.1-0.1,0.2-0.3,0.2c-0.1,0-0.2,0-0.4-0.1     c-0.7-0.2-1.3-0.3-1.7-0.3c-0.5-0.1-0.9-0.1-1.4-0.1c-0.1,0-0.2,0-0.3,0c-0.2,0-0.3-0.1-0.3-0.3c0-0.1,0.1-0.2,0.3-0.2     c0.5,0,0.8-0.2,1.1-0.5c0.2-0.3,0.4-0.9,0.6-1.6l0.5-2.8c0.4-2,0.6-3.3,0.7-3.8c0.2-1.2,0.1-2-0.1-2.6c-0.2-0.6-0.7-1-1.4-1.2     c-0.2-0.1-0.3-0.1-0.3-0.3c0-0.1,0.1-0.2,0.3-0.2c0.1,0,0.2,0,0.3,0.1c0.1,0,0.3,0.1,0.7,0.1c0.5,0.1,0.9,0.1,1,0.1     c0.1,0,0.3,0,0.4,0c0.3,0,0.5,0.3,0.6,0.7l0.1,0.2l2.8,9.3l0.4,1.1c0,0.2,0.1,0.3,0.1,0.3c0,0,0.1,0,0.2-0.2l0.2-0.3l0.1-0.2     l5.9-9.1c0.1-0.2,0.2-0.3,0.3-0.4c0.1,0,0.1,0,0.3,0c0.1,0,0.2,0,0.4,0.1c0.1,0,0.2,0,0.3,0c0.4,0.1,0.7,0.1,1,0.1     c0.1,0,0.2,0,0.3,0c0.1,0,0.2,0.1,0.2,0.2c0,0.1-0.1,0.2-0.2,0.2l-0.4,0c-0.3,0-0.6,0.2-0.8,0.5c-0.2,0.3-0.3,0.8-0.4,1.6     l-0.3,2.4l-0.6,5.3l-0.1,1.2c-0.1,0.5,0,0.9,0.1,1.1c0.2,0.2,0.5,0.4,0.9,0.6c0.3,0.1,0.5,0.2,0.5,0.3c0,0.1-0.1,0.2-0.4,0.1     c-0.1,0-0.2,0-0.2,0l-0.7-0.2c-0.3-0.1-0.5-0.1-0.8-0.2c-0.2,0-0.5-0.1-1-0.1c-0.7-0.1-1.1-0.1-1.2-0.1c-0.2,0-0.3-0.1-0.3-0.2     c0-0.1,0.1-0.2,0.3-0.2c0.4,0,0.7-0.2,0.8-0.4c0.2-0.2,0.3-0.6,0.4-1.2l0.2-1.6L67.5,135.6z"/>
			<path class="st1" d="M45.1,134.8l-3.2-1.5c-0.4-0.2-0.7-0.3-0.9-0.3c-0.1,0-0.4,0.2-0.7,0.5l-1.2,1c-0.5,0.5-0.9,0.9-1,1.2     c-0.1,0.3-0.1,0.5-0.1,0.7c0.1,0.2,0.3,0.4,0.7,0.7c0.2,0.1,0.2,0.2,0.2,0.3c0,0.1-0.1,0.1-0.3,0c-0.1,0-0.2-0.1-0.3-0.1     l-0.8-0.4c-0.3-0.1-0.6-0.3-1-0.5c-0.2-0.1-0.3-0.1-0.4-0.2c-0.3-0.1-0.5-0.2-0.5-0.2c-0.2-0.1-0.2-0.2-0.2-0.3     c0-0.1,0.1-0.1,0.2-0.1l0.4,0.1c0.1,0,0.4-0.1,0.7-0.2c0.3-0.2,0.6-0.3,0.9-0.6l0.5-0.5l9.2-8.1c0.2-0.1,0.3-0.2,0.4-0.2     c0.1,0,0.1,0.2,0.1,0.4l-0.6,11.6l0,0.6c0,0.8,0,1.4,0.1,1.7c0.1,0.3,0.4,0.6,0.9,0.9c0.2,0.1,0.2,0.2,0.2,0.3     c-0.1,0.1-0.2,0.1-0.3,0c-0.1,0-0.2-0.1-0.3-0.2c-0.3-0.2-0.8-0.4-1.6-0.8c-0.8-0.4-1.3-0.6-1.6-0.6c-0.1,0-0.2-0.1-0.3-0.1     c-0.2-0.1-0.2-0.2-0.2-0.3c0-0.1,0.1-0.1,0.3-0.1l0.3,0.1c0.3,0.1,0.6-0.1,0.7-0.4c0.1-0.3,0.2-1,0.3-2.1l0.1-1.4     c0-0.4,0-0.6,0-0.7C45.7,135.1,45.5,135,45.1,134.8z M45.9,133.4l0.2-4.2l0-0.2c0-0.2,0-0.4-0.1-0.4c0,0-0.1,0-0.2,0.1l-3.5,3.1     c-0.2,0.1-0.2,0.2-0.3,0.3c-0.1,0.2,0,0.3,0.3,0.4l0.2,0.1l2.7,1.2c0.3,0.1,0.5,0.1,0.5,0c0,0,0-0.1,0-0.2L45.9,133.4z"/>
			<path class="st1" d="M29,116.1l-2.6,2.8l-0.1,0.1l-0.2,0.2c-0.1,0.1,0,0.3,0.2,0.6l0.6,0.6l0.2,0.2l0.9,0.8     c0.4,0.4,0.8,0.6,1.1,0.7c0.3,0.1,0.7-0.1,1-0.3c0.1-0.1,0.2-0.1,0.3,0c0.1,0.1,0.1,0.2-0.1,0.3l-0.7,0.7     c-0.1,0.1-0.2,0.2-0.4,0.4c-0.5,0.6-0.8,0.9-1,1.1c-0.1,0.1-0.1,0.2-0.2,0.2c-0.1,0.1-0.2,0.1-0.3,0c-0.1-0.1-0.1-0.3,0.1-0.6     c0.2-0.3,0.3-0.5,0.3-0.7c0-0.2,0-0.3-0.2-0.5c-0.2-0.4-0.7-0.9-1.3-1.4c-0.6-0.5-1-0.9-1.1-1c-0.2-0.1-0.3-0.2-0.4-0.1     c-0.1,0.1-0.3,0.2-0.4,0.4l-2.5,2.7c-0.4,0.4-0.5,0.8-0.5,1.2c0,0.4,0.2,0.8,0.5,1.1c0.2,0.2,0.2,0.3,0.1,0.4     c-0.1,0.1-0.2,0.1-0.4,0c-0.1-0.1-0.2-0.2-0.4-0.4c-0.1-0.2-0.4-0.4-0.7-0.7l-0.5-0.5l-0.6-0.5c-0.1-0.1-0.3-0.3-0.5-0.4     c-0.2-0.1-0.3-0.3-0.4-0.3c-0.1-0.1-0.2-0.2-0.1-0.3c0.1-0.1,0.2-0.1,0.4,0c0.4,0.2,0.7,0.3,1,0.2c0.3-0.1,0.7-0.4,1.1-0.8l6-6.5     c0.4-0.5,0.7-0.9,0.8-1.3c0.1-0.3,0.1-0.5,0-0.6c-0.1-0.2-0.2-0.4-0.5-0.7c-0.1-0.1-0.1-0.2-0.1-0.3c0.1-0.1,0.3-0.1,0.5,0.1     c0.1,0.1,0.2,0.2,0.4,0.5c0.4,0.4,1.1,1.1,2.1,2.1c0.9,0.8,1.5,1.4,1.8,1.6l1,0.9c0.4,0.4,0.7,0.6,0.9,0.7     c0.1,0.1,0.2,0.1,0.3,0.2c0.1,0.1,0.1,0.2,0,0.3c-0.1,0.1-0.1,0.1-0.3,0.2c-0.4,0.2-0.8,0.6-1.3,1.1c-0.2,0.2-0.4,0.3-0.5,0.2     c-0.1-0.1-0.1-0.2,0-0.3c0.1-0.2,0.2-0.3,0.3-0.5c0.2-0.3,0.2-0.5,0.2-0.7c0-0.2-0.2-0.4-0.5-0.7l-0.8-0.9c-0.2-0.3-0.6-0.6-1-1     c-0.5-0.5-0.9-0.8-1.1-0.8C29.5,115.7,29.2,115.9,29,116.1z"/>
			<path class="st1" d="M21.6,104.5c1.1,1.7,1.5,3.5,1.2,5.2c-0.3,1.8-1.3,3.2-3,4.3c-1.7,1.1-3.5,1.5-5.4,1.2     c-1.8-0.4-3.3-1.4-4.5-3.1c-1.2-1.8-1.6-3.5-1.2-5.3c0.4-1.8,1.4-3.3,3.1-4.4c0.8-0.5,1.6-0.8,2.5-1c0.9-0.2,1.8-0.2,2.6-0.1     c0.9,0.2,1.7,0.5,2.5,1.1C20.3,103,21,103.7,21.6,104.5z M20.7,104.3c-0.8-1.3-1.9-2-3.3-2.2c-1.3-0.2-2.7,0.2-4.2,1.1     c-1.7,1.1-2.7,2.5-3.2,4.2c-0.5,1.7-0.3,3.2,0.6,4.6c0.8,1.3,2,2,3.4,2.2c1.5,0.2,2.9-0.1,4.3-1.1c1.6-1.1,2.7-2.5,3.1-4.2     C21.9,107.4,21.7,105.8,20.7,104.3z"/>
		</g>
		<g>
			<g>
				<defs>
					<path id="SVGID_1_" d="M51.9,36.2c-1.3,6.6,0,14,2.1,20.1c3.7,9.1,9.8,16.9,17.9,16.8l0.1,0c0.6-5.1,3.8-7.2,5.5-11       c1.2-2.7,2.6-4.4,4.5-6.4c7.4-7.9,4.8-5.3,8.1-6.8c1.3-2.4,1-10,0.7-12.4C88.2,15.5,56.3,14,51.9,36.2z"/>
				</defs>
				
					<linearGradient id="SVGID_00000012433482865310858440000012016599362192346279_" gradientUnits="userSpaceOnUse" x1="91.0549" y1="46.674" x2="51.4262" y2="46.674">
					<stop offset="0" style="stop-color:#FFFFFF"/>
					<stop offset="1" style="stop-color:#6CADDF"/>
				</linearGradient>
				
					<use xlink:href="#SVGID_1_" style="overflow:visible;fill:url(#SVGID_00000012433482865310858440000012016599362192346279_);"/>
				<clipPath id="SVGID_00000144319930109148027810000016448425367015641500_">
					<use xlink:href="#SVGID_1_" style="overflow:visible;"/>
				</clipPath>
			</g>
			<g>
				<defs>
					<path id="SVGID_00000009586008617587053300000007620132780165295527_" d="M102,43.7c-6.7,0.6-13.4,3.9-18.8,7.5       C75.5,57.3,69.7,65.4,72,73.1l0,0.1c5.6-1.1,9.1,0.6,13.2,1.2c2.9,0.5,2,0.2,4.4,1.4c9.6,4.9,9.2,5,11.5,7.7       c2.6,0.4,9.4-1.2,11.7-2.2C132.3,73,124.6,41.8,102,43.7z"/>
				</defs>
				
					<linearGradient id="SVGID_00000171678998375282082110000003363268522803518618_" gradientUnits="userSpaceOnUse" x1="97.6913" y1="83.5756" x2="97.6913" y2="43.6432">
					<stop offset="0" style="stop-color:#FFFFFF"/>
					<stop offset="1" style="stop-color:#EF4123"/>
				</linearGradient>
				
					<use xlink:href="#SVGID_00000009586008617587053300000007620132780165295527_" style="overflow:visible;fill:url(#SVGID_00000171678998375282082110000003363268522803518618_);"/>
				<clipPath id="SVGID_00000149358526253753781290000003710972540551476412_">
					<use xlink:href="#SVGID_00000009586008617587053300000007620132780165295527_" style="overflow:visible;"/>
				</clipPath>
			</g>
			<g>
				<defs>
					<path id="SVGID_00000015344651140484964830000013105541619545023882_" d="M109.6,91.9c-2.7-6.1-8-11.4-13.2-15.3       c-8.2-5.4-17.7-8.2-24.3-3.5L72,73.2c2.7,6.2,0.7,6.5,1.5,10.6c0.5,2.9,0.9,4.3,0.5,6.9c-1.6,10.7-0.1,12.5-1.9,15.5       c1.4,3.9,4.3,6.7,6,8.5C92.3,130.6,118.8,112.7,109.6,91.9z"/>
				</defs>
				
					<linearGradient id="SVGID_00000073705776082586092210000002294130960928229016_" gradientUnits="userSpaceOnUse" x1="70.3203" y1="101.4253" x2="108.1352" y2="87.6618">
					<stop offset="0" style="stop-color:#FFFFFF"/>
					<stop offset="1" style="stop-color:#49A942"/>
				</linearGradient>
				
					<use xlink:href="#SVGID_00000015344651140484964830000013105541619545023882_" style="overflow:visible;fill:url(#SVGID_00000073705776082586092210000002294130960928229016_);"/>
				<clipPath id="SVGID_00000056418897943002105860000004405789229352005799_">
					<use xlink:href="#SVGID_00000015344651140484964830000013105541619545023882_" style="overflow:visible;"/>
				</clipPath>
			</g>
			<g>
				<defs>
					<path id="SVGID_00000129186312525792782420000017866307309458376873_" d="M66.5,114.8c4.9-4.6,8.2-11.3,10.2-17.5       c2.4-9.5,2-19.5-4.6-24.1L72,73.2c-2.4,4-4.8,4.1-8.4,6.2c-2.6,1.4-3.4,3.5-6,4.1c-10.6,2-13.8,1.5-17.3,0.7       c-3.1,3.1-4.3,6-5.5,8.1C24.5,110.9,49.9,130.3,66.5,114.8z"/>
				</defs>
				
					<linearGradient id="SVGID_00000057839781514889792620000014877074593037772468_" gradientUnits="userSpaceOnUse" x1="36.0972" y1="87.853" x2="75.0284" y2="102.0228">
					<stop offset="0" style="stop-color:#FFFFFF"/>
					<stop offset="1" style="stop-color:#9B5BA5"/>
				</linearGradient>
				
					<use xlink:href="#SVGID_00000129186312525792782420000017866307309458376873_" style="overflow:visible;fill:url(#SVGID_00000057839781514889792620000014877074593037772468_);"/>
				<clipPath id="SVGID_00000137836336290269581090000006641506370489310858_">
					<use xlink:href="#SVGID_00000129186312525792782420000017866307309458376873_" style="overflow:visible;"/>
				</clipPath>
			</g>
			<g>
				<defs>
					<path id="SVGID_00000013885408219746737250000007264538104770132913_" d="M31,82.2c6,3.1,13.5,3.8,19.9,3.6       c9.8-1,19-4.8,21.1-12.5l0-0.1c-1,0.2-5.6-0.3-9.4-3.6c-2.2-1.9-4.5-5-5.9-7.3c-3.4-5.9-4.6-12.1-5.1-15.6       c-3.5-2-8.6-2.2-10.9-2.4C19.6,42.1,10.8,71.9,31,82.2z"/>
				</defs>
				
					<linearGradient id="SVGID_00000178921566037238971150000008853282205729477802_" gradientUnits="userSpaceOnUse" x1="45.8292" y1="44.0156" x2="45.8292" y2="85.8607">
					<stop offset="0" style="stop-color:#FFFFFF"/>
					<stop offset="1" style="stop-color:#FFEA53"/>
				</linearGradient>
				
					<use xlink:href="#SVGID_00000013885408219746737250000007264538104770132913_" style="overflow:visible;fill:url(#SVGID_00000178921566037238971150000008853282205729477802_);"/>
				<clipPath id="SVGID_00000174572863124398378460000005161066716974041493_">
					<use xlink:href="#SVGID_00000013885408219746737250000007264538104770132913_" style="overflow:visible;"/>
				</clipPath>
			</g>
		</g>
		<path class="st2" d="M10.4,85.8c0,1.9-1.5,3.4-3.4,3.4c-1.9,0-3.5-1.5-3.5-3.4c0-1.9,1.5-3.4,3.5-3.4    C8.9,82.4,10.4,83.9,10.4,85.8z"/>
		<path class="st2" d="M140.4,85.8c0,1.9-1.5,3.4-3.4,3.4c-1.9,0-3.5-1.5-3.5-3.4c0-1.9,1.5-3.4,3.5-3.4    C138.9,82.4,140.4,83.9,140.4,85.8z"/>
		<g>
			<path class="st1" d="M127.2,101.9c-1.2-0.6-1.7-2-1-3.3c0.6-1.2,2.1-1.6,3.3-1c1.2,0.6,1.7,2.1,1,3.3     C129.8,102.2,128.4,102.5,127.2,101.9z M129.2,98.1c-1-0.5-2.2-0.3-2.7,0.7c-0.5,1-0.1,2.1,0.9,2.7c1,0.5,2.2,0.3,2.7-0.8     C130.6,99.7,130.2,98.6,129.2,98.1z M126.8,99.8l0.3-0.6c0.1-0.2,0.2-0.3,0.3-0.4c0.2-0.2,0.5-0.2,0.8-0.1     c0.3,0.2,0.4,0.5,0.3,0.9l0,0c0.2-0.1,0.7-0.1,1.4-0.1l-0.2,0.4c-0.7,0-1.2,0-1.3,0.1l-0.1,0.2l1,0.5l-0.2,0.4L126.8,99.8z      M128.1,99.9c0.1-0.3,0.2-0.6-0.1-0.7c-0.1-0.1-0.3-0.1-0.4,0c-0.1,0.1-0.1,0.2-0.2,0.3l-0.1,0.2l0.7,0.4L128.1,99.9z"/>
		</g>
	</g>
</g>
</svg>