<svg xmlns="http://www.w3.org/2000/svg" xmlns:xlink="http://www.w3.org/1999/xlink" width="180" height="25" viewBox="0 0 180 25" version="1.1">
  <title>DDD84118-A1D4-496E-A8E7-312E5FEC341F</title>
  <defs>
    <polygon id="path-1" points="0 0 5 0 5 5 0 5"/>
  </defs>
  <g id="Pattern-Library" stroke="none" stroke-width="1" fill="none" fill-rule="evenodd">
    <g id="1.0-Components" transform="translate(-196.000000, -2622.000000)">
      <g id="Group-6" transform="translate(196.000000, 2622.000000)">
        <path d="M28.3155788,23.1871556 C26.1143594,23.1871556 24.0775353,22.5980313 22.5761702,21.525103 C21.2730859,20.5929359 20.5416946,19.3983042 20.5416946,18.1605414 C20.5463916,16.5011635 21.8249844,15.3613652 22.5761702,14.8314209 C24.0825679,13.7668512 26.1284505,13.1884261 28.3367153,13.1884261 C30.5506837,13.1884261 32.6039473,13.7691917 34.124436,14.8340957 C34.8850158,15.3657118 36.1716606,16.5038383 36.1763576,18.1605414 C36.1632731,20.9249452 32.5499317,23.1834778 28.3155788,23.1871556 L28.3155788,23.1871556 Z M16.5220621,13.4040817 C17.3014299,13.5488552 18.1197159,13.6264243 18.9661839,13.6264243 C19.8304334,13.6264243 20.6695203,13.545846 21.4666698,13.3947199 C20.2786622,14.2483149 19.4134061,15.322915 19.0014114,16.5332611 C18.5837132,15.3292676 17.7100696,14.2546675 16.5220621,13.4040817 L16.5220621,13.4040817 Z M9.58860686,23.1871556 C7.391078,23.1871556 5.35559592,22.5980313 3.84953377,21.525103 C2.54980448,20.5929359 1.8194197,19.3983042 1.8194197,18.1605414 C1.8221037,16.5011635 3.10036095,15.3613652 3.85154677,14.8280774 C5.35794442,13.7668512 7.40181402,13.1867544 9.61444041,13.1867544 C11.8274023,13.1867544 13.8830144,13.7668512 15.4021611,14.8340957 C16.1617344,15.3687209 17.4517342,16.5038383 17.4554247,18.1605414 C17.4413337,20.9249452 13.8266503,23.1834778 9.58860686,23.1871556 L9.58860686,23.1871556 Z M11.1959902,6.78596266 C11.1993452,5.12424437 12.4755894,3.98645215 13.2281173,3.45416734 C14.7375344,2.39227251 16.7790555,1.81284438 18.9896689,1.81284438 C21.2059858,1.81284438 23.2619334,2.39427861 24.7783961,3.45684213 C25.5366274,3.99213609 26.8269627,5.12992832 26.8316597,6.78596266 C26.8152202,9.55103515 23.2028853,11.8085647 18.9675259,11.8115739 C16.7663065,11.8115739 14.7294824,11.2241213 13.2281173,10.1488525 C11.9260395,9.21768844 11.1959902,8.02439416 11.1959902,6.78596266 L11.1959902,6.78596266 Z M28.3367153,11.3745787 C27.4714593,11.3745787 26.6320368,11.455157 25.8385779,11.6049457 C27.5758,10.3688547 28.6477244,8.66500829 28.6477244,6.78730006 C28.6477244,3.00781041 24.3382193,0 18.9896689,0 C13.643467,0 9.37858349,3.00781041 9.37858349,6.78730006 C9.37858349,8.67136094 10.4303778,10.3728668 12.1514959,11.6112983 C11.3439459,11.4581662 10.491439,11.3745787 9.6120919,11.3745787 C4.267232,11.3745787 0,14.3823891 0,18.1605414 C0,21.9370219 4.24374696,25 9.58860686,25 C14.1413499,25 17.9637081,22.7805863 18.9957079,19.7914995 C20.0122747,22.7805863 23.7618293,25 28.3108818,25 C33.6594322,25 37.9947708,21.9370219 37.9947708,18.1605414 C37.9947708,14.3823891 33.6829172,11.3745787 28.3367153,11.3745787 L28.3367153,11.3745787 Z M35.3053981,18.1705719 C35.3053981,19.3046862 34.5444828,20.3471888 33.2789745,21.111178 C32.0195053,21.8738298 30.2641662,22.3512812 28.3273213,22.3506132 C26.3881279,22.3512812 24.6505704,21.8738298 23.4048567,21.111178 C22.1594785,20.3471888 21.4116477,19.3053549 21.4149914,18.1705719 C21.4116477,17.034117 22.1628335,15.9989702 23.4142507,15.2463489 C24.6609709,14.4897154 26.4055739,14.0226288 28.3424188,14.0236302 C30.2819478,14.0226288 32.0299058,14.4897154 33.2883685,15.2463489 C34.5481733,15.9989702 35.3053981,17.034117 35.3053981,18.1705719 L35.3053981,18.1705719 Z M12.0682899,6.7936527 C12.0669497,5.65987268 12.818471,4.62506018 14.0672042,3.86942973 C15.3176149,3.11714278 17.0598695,2.64738137 18.9957079,2.64871592 C20.9328883,2.64738137 22.6855434,3.11714278 23.9413221,3.86942973 C25.2011268,4.62572888 25.9583517,5.65987268 25.9583517,6.7936527 C25.9583517,7.92910448 25.1954233,8.97093832 23.9319281,9.73659926 C22.6711169,10.4992511 20.9184618,10.9750308 18.9812814,10.9750308 C17.040746,10.9750308 15.3058724,10.4992511 14.0604942,9.73659926 C12.8134385,8.97093832 12.0669497,7.93044188 12.0682899,6.7936527 L12.0682899,6.7936527 Z M16.5831232,18.1705719 C16.5831232,19.3046862 15.8225433,20.3471888 14.5566996,21.111178 C13.2948819,21.8738298 11.5422268,22.3506125 9.60303339,22.3506125 C7.66216247,22.3506125 5.92829543,21.8738298 4.68526574,21.111178 C3.43720354,20.3471888 2.69071473,19.3053549 2.69305771,18.1705719 C2.69071473,17.034117 3.43955205,15.9989702 4.69096925,15.2443428 C5.94003795,14.4893811 7.68095051,14.0236318 9.62047942,14.0236318 C11.5586663,14.0236318 13.3079664,14.4893811 14.5650871,15.2443428 C15.8235498,16.0009763 16.5831232,17.034117 16.5831232,18.1705719 L16.5831232,18.1705719 Z M57.4212615,2.37856417 L56.605324,6.54924303 L56.4268377,6.61009469 C56.1003957,6.15604772 55.9078183,5.9765019 55.457241,5.63011555 C54.4547653,4.86345156 53.2738032,4.42812818 52.0623106,4.42812818 C51.1101599,4.42812818 50.324753,4.72335901 49.776545,5.2145188 C49.2246466,5.70835339 48.915986,6.40413524 48.915986,7.18183277 C48.9183345,8.65397475 49.9241653,9.36981758 51.724126,10.4467581 L52.4236447,10.8416252 C53.9310488,11.8256165 56.2671395,13.334537 56.269488,16.7602846 C56.2624424,20.6491066 53.7606145,24.5559835 47.758509,24.5626705 C46.2863324,24.5626705 44.8436799,24.3018777 43.4594044,23.7812951 C42.5226868,23.4305622 42.073116,23.1169422 41.504778,22.7016798 L41.4614984,22.4338656 L42.2573058,18.3634917 L42.4367986,18.3019713 C42.7937713,18.7647114 43.2493811,19.1472075 43.9287698,19.5942331 C45.3730998,20.555823 46.7593882,20.657131 47.3522178,20.657131 C49.473588,20.6564623 51.1359934,19.4521345 51.1359934,17.5781041 C51.1336449,15.9036805 49.8047271,15.0631252 48.4134061,14.2459744 L47.455552,13.6568502 C45.9468058,12.670184 43.8469076,11.3284385 43.8408686,7.97056385 C43.8408686,6.67562724 44.2142808,4.82466699 45.3637058,3.30671909 C46.8768134,1.3089793 49.2575256,0.591464719 51.6536708,0.588121222 C54.7399408,0.591464719 56.5080289,1.67743273 57.3330248,2.20771144 L57.4212615,2.37856417 Z M67.4715172,10.2815894 L67.2856498,10.4608008 L64.6113746,10.395937 L63.3720354,16.2109479 C63.1992526,16.9391617 62.818795,18.7600305 62.818795,19.3481517 C62.8177885,19.8958166 63.0197598,20.269954 63.3119808,20.4909592 C63.6018534,20.7149735 63.960168,20.7888648 64.279229,20.7891992 C65.0237049,20.7891992 65.2840533,20.5822367 65.7809297,20.3933291 L65.8678243,20.4769165 L65.2115852,23.8254293 L64.9837803,24.0464345 C64.0681992,24.240023 63.3847845,24.3998422 62.4208913,24.3998422 C59.9334899,24.3831247 58.1348712,23.5515969 58.1244707,20.6601402 C58.1244707,19.3046862 58.6760337,16.8432033 59.0799764,15.0082919 L60.0670191,10.3922591 L57.9647724,10.4608008 L57.8403017,10.2799176 L58.4542678,7.02736318 L58.6468451,6.92003691 L60.7799579,6.92003691 L61.6368264,2.63567913 L61.8022282,2.44911197 C63.9386959,1.90345316 64.558701,1.64132296 66.506282,1.00304927 L66.6062611,1.11706254 L65.9604225,3.88113197 L65.2957958,6.98690686 L68.0348226,6.90733162 L68.1089683,7.04642112 L67.4715172,10.2815894 Z M76.8276221,19.0853528 C76.8276221,19.0853528 75.9002985,20.5370994 74.5609801,21.056679 C73.2189778,21.5755898 72.2587751,21.1653426 71.8736204,20.6491066 C71.5706634,20.2458808 70.9355607,18.9676617 72.1423564,17.5306264 C73.364585,16.0815546 77.4147481,15.9909458 77.4147481,15.9909458 L76.8276221,19.0853528 Z M80.8214211,7.64958808 C79.8424304,6.96116193 78.2716167,6.60574814 76.1210579,6.60574814 C75.060876,6.60574814 73.9879451,6.70705612 72.9136722,6.91167817 C71.951121,7.09323009 71.3522525,7.24636227 70.8453111,7.39481357 L70.7054073,7.53590916 L70.0105856,11.0967341 L70.2347,11.2328144 C70.6832643,11.0281924 71.341852,10.7737522 72.207108,10.4688252 C73.0968555,10.1562082 73.9104445,10.0004012 74.6488813,10.0004012 C75.7278512,10.0004012 76.5434531,10.1471808 77.1081006,10.4507703 C77.6787871,10.7580378 78.0954788,11.4371021 78.0921238,12.1863799 C78.0921238,12.3679318 78.0780328,12.5297571 78.0508573,12.6762023 C78.0240172,12.812617 78.0052292,12.9122532 78.0015387,12.9707645 L77.9921447,13.048668 C77.9921447,13.048668 77.641211,13.0710694 77.2714894,13.10417 C77.0235545,13.125234 76.7148939,13.1593377 76.3555728,13.2034719 C75.7617367,13.2673327 75.0853675,13.3499171 74.49388,13.449219 C73.0733705,13.6866073 69.0795715,14.3034826 67.8821699,16.971928 C66.6237072,19.1579067 66.8397695,22.0533756 68.0723987,23.4690125 C68.50553,23.9658562 69.1711631,24.4349489 70.0682917,24.6161665 L70.0669497,24.6208474 C70.1078808,24.6278687 70.2477845,24.6489328 70.2736181,24.6546167 C73.7319582,25.1865672 76.2079525,22.1857781 76.2079525,22.1857781 L75.8382309,24.0387444 L75.9895416,24.1681378 L79.8753095,24.0387444 L80.0303107,23.8979832 L82.3133923,12.4625528 C82.3640528,12.2214867 82.4006224,11.935952 82.4321595,11.6112983 C82.457993,11.2833012 82.4744325,11.0188306 82.4744325,10.8205612 C82.4697355,9.35577489 81.8064509,8.34068903 80.8214211,7.64958808 L80.8214211,7.64958808 Z M174,10.681806 C174,11.7176216 173.768505,12.7935591 173.539693,13.8400738 L171.554536,23.9177098 L171.403225,24.0387444 L166.944423,24.1938827 L166.830352,24.0387444 C166.830352,24.0387444 169.118466,12.907238 169.118466,12.3532205 C169.118466,11.8476836 168.852079,10.4959076 167.429221,10.4959076 C166.31301,10.4959076 165.15654,11.6223319 165.15654,11.6223319 L162.748652,23.9177098 L162.598348,24.0387444 L160.677943,24.104277 L160.677943,24.1036083 L158.960515,24.1634569 L158.10935,24.1938827 L158.055334,24.1213288 L158.001319,24.0387444 C158.001319,24.0387444 158.349904,22.3429225 158.773641,20.2458808 L158.764583,20.2458808 C159.431222,16.9649066 160.283394,12.6912481 160.283394,12.3532205 C160.283394,11.8476836 160.017006,10.4959076 158.593142,10.4959076 C157.478609,10.4959076 156.322474,11.6223319 156.322474,11.6223319 L153.911231,23.9177098 L153.763275,24.0387444 L153.073151,24.0614802 L149.272936,24.1892018 L149.177989,24.0387444 L152.521252,6.92003691 L152.689338,6.75252768 L157.139418,6.33291874 L157.320253,6.51580806 L156.848539,8.9224576 C156.848539,8.9224576 158.992052,6.58200931 161.733427,6.52450115 C164.288935,6.47802653 164.824059,8.9224576 164.824059,8.9224576 C164.824059,8.9224576 167.367153,6.46598994 170.078669,6.52450115 C171.452544,6.53620339 173.991612,7.13937035 174,10.681806 L174,10.681806 Z M151.177237,6.37070026 L150.227435,11.2906569 L150.02647,11.4916011 C149.754379,11.4447922 149.411497,11.4033328 149.001851,11.4033328 C147.719903,11.4013267 145.8978,11.8115739 144.472929,13.694966 L144.457496,13.7120179 L142.495824,23.9177098 L142.356255,24.0387444 L138.095733,24.1641256 L137.983341,24.0541245 L141.335998,6.92003691 L141.517839,6.74149414 L145.735753,6.33291874 L145.903839,6.51580806 L145.417698,8.99601455 L145.624367,8.80777564 C146.502372,8.01336062 147.287779,7.45934307 148.164777,6.96149628 C149.030033,6.46799604 149.896296,6.22091157 150.768597,6.22091157 C150.851801,6.22091157 150.94138,6.22224897 151.030288,6.22692987 L151.177237,6.37070026 Z M132.334182,19.0853528 C132.334182,19.0853528 131.406858,20.5370994 130.068546,21.056679 C128.726544,21.5755898 127.760302,21.1653426 127.378838,20.6491066 C127.073868,20.2458808 126.440778,18.9676617 127.647574,17.5306264 C128.871145,16.0815546 132.917617,15.9909458 132.917617,15.9909458 L132.334182,19.0853528 Z M136.330329,7.64958808 C135.347648,6.96116193 133.778176,6.60574814 131.628624,6.60574814 C130.565087,6.60574814 129.494169,6.70705612 128.416877,6.91167817 C127.458687,7.09323009 126.860154,7.24636227 126.349187,7.39481357 L126.21096,7.53590916 L125.514797,11.0967341 L125.738911,11.2328144 C126.189824,11.0281924 126.846063,10.7737522 127.714674,10.4688252 C128.599725,10.1562082 129.415662,10.0004012 130.156447,10.0004012 C131.232062,10.0004012 132.048671,10.1471808 132.613654,10.4507703 C133.186353,10.7580378 133.59969,11.4371021 133.598348,12.1863799 C133.598348,12.3679318 133.584257,12.5297571 133.558423,12.6762023 C133.529235,12.812617 133.510447,12.9122532 133.50575,12.9707645 L133.496356,13.048668 C133.496356,13.048668 133.147771,13.0710694 132.778049,13.10417 C132.531456,13.125234 132.217763,13.1593377 131.864481,13.2034719 C131.266954,13.2673327 130.591927,13.3499171 130.002788,13.449219 C128.578588,13.6866073 124.584789,14.3034826 123.387387,16.971928 C122.131273,19.1579067 122.347336,22.0533756 123.579965,23.4690125 C124.013432,23.9658562 124.676381,24.4349489 125.573509,24.6161665 L125.573509,24.6208474 C125.612092,24.6278687 125.750654,24.6489328 125.778836,24.6546167 C129.236169,25.1865672 131.710822,22.1857781 131.710822,22.1857781 L131.343113,24.0387444 L131.492411,24.1681378 L135.379521,24.0387444 L135.534522,23.8979832 L137.819952,12.4625528 C137.86927,12.2214867 137.908189,11.935952 137.936371,11.6112983 C137.95952,11.2833012 137.977302,11.0188306 137.977302,10.8205612 C137.974953,9.35577489 137.311668,8.34068903 136.330329,7.64958808 L136.330329,7.64958808 Z M126.349187,4.79256941 L126.202908,4.95339164 L119.143641,4.93934895 L117.992203,10.8118681 L124.171788,10.6256353 L124.26338,10.7700744 C123.753754,12.4632215 123.637671,12.9373295 123.294789,14.4108089 L123.138446,14.5609319 L117.260811,14.5478923 L116.485805,18.6242845 L115.509163,23.9177098 L115.381337,24.0387444 L110.315614,24.1681378 L110.255894,24.0387444 L111.132557,19.5327128 L112.472211,13.1713743 C113.48643,8.22801316 113.778651,6.64921361 114.73315,1.26517948 L114.885803,1.11438774 L122.283926,1.11438774 L126.980934,0.993687477 L127.072526,1.11438774 L126.349187,4.79256941 Z M93.3402902,10.2815894 L93.1561003,10.4608008 L90.4794766,10.395937 L89.2411439,16.2109479 C89.0660126,16.9391617 88.6892455,18.7600305 88.6892455,19.3481517 C88.686897,19.8958166 88.8898748,20.269954 89.1810893,20.4909592 C89.4686133,20.7149735 89.830283,20.7888648 90.147331,20.7891992 C90.8914713,20.7891992 91.1545038,20.5822367 91.6500382,20.3933291 L91.7355908,20.4769165 L91.0806937,23.8254293 L90.8538953,24.0464345 C89.9383142,24.240023 89.2548995,24.3998422 88.2866448,24.3998422 C85.8036049,24.3831247 84.0039797,23.5515969 83.9922372,20.6601402 C83.9922372,19.3046862 84.5427937,16.8432033 84.9500914,15.0082919 L85.9364631,10.3922591 L83.8338809,10.4608008 L83.7094102,10.2799176 L84.3220343,7.02736318 L84.5159536,6.92003691 L86.6500729,6.92003691 L87.5035864,2.63567913 L87.6713367,2.44911197 C89.8067979,1.90345316 90.4231125,1.64132296 92.374384,1.00304927 L92.4750341,1.11706254 L91.828189,3.88113197 L91.1638978,6.98690686 L93.9025891,6.90733162 L93.9763993,7.04642112 L93.3402902,10.2815894 Z M103.897823,13.3328652 L103.883396,13.4114374 L101.163493,13.4445381 L98.4751267,13.4786417 L98.5023022,13.3903734 L98.5140447,13.3509201 C98.5657118,13.1613438 98.6220759,12.9567218 98.6911891,12.7457471 C98.8780629,12.1559541 99.1407599,11.5146713 99.6114672,10.9245439 C99.6913163,10.8222329 99.7758625,10.7232654 99.8711446,10.6239635 C100.700838,9.71821003 101.490941,9.57577703 102.000567,9.57577703 C102.723571,9.57577703 103.251984,9.86231477 103.588827,10.2899481 C103.646533,10.3635051 103.692161,10.4390681 103.740473,10.5209838 C103.907217,10.804178 104.008202,11.130169 104.045443,11.4651875 C104.065573,11.5878939 104.072619,11.7149468 104.072619,11.8383218 C104.072619,12.34319 103.983375,12.8390307 103.897823,13.3328652 L103.897823,13.3328652 Z M105.73234,7.46168352 L105.783001,7.37976783 L105.729991,7.46001177 C104.793274,6.82106938 103.443219,6.52450115 102.119334,6.52450115 C99.1125778,6.5268416 96.966716,8.00734232 95.5569425,10.0873322 C94.1515306,12.1699968 93.4916009,14.8564971 93.4916009,17.2474322 C93.4916009,18.9776922 93.7499364,20.589258 94.8091117,22.0430108 C95.3324927,22.7538383 96.5922974,24.4593564 100.669301,24.4653747 C103.505623,24.4640373 104.847289,23.7318114 105.573984,23.3065185 L105.695099,23.1413497 C105.83601,22.5261462 106.316111,19.7122586 106.509695,19.0087867 L106.360397,18.8964452 C104.930829,20.0282191 103.370751,20.8547317 101.595618,20.8547317 C100.40761,20.8547317 99.500081,20.5728749 98.8918184,20.0329 C98.2828848,19.4895817 97.9822763,18.6948323 97.9856313,17.7095036 C97.9856313,17.3433906 98.0128069,17.0123843 98.0433374,16.6496148 L98.0513894,16.5630182 L98.1335871,16.5606778 C100.907506,16.4887926 102.32097,16.4520141 104.645318,16.4520141 C105.401536,16.4520141 106.257398,16.4546889 107.292753,16.462379 L107.469897,16.3383352 C107.702399,15.2657412 107.954696,14.0376745 107.954696,12.527751 C107.954696,11.1883459 107.811437,8.80877869 105.73234,7.46168352 L105.73234,7.46168352 Z" id="Fill-1" fill="#EC0C21"/>
        <g id="Group-5" transform="translate(175.000000, 6.000000)">
          <mask id="mask-2" fill="white">
            <use xlink:href="#path-1"/>
          </mask>
          <g id="Clip-4"/>
          <path d="M2.35708082,2.34730229 C2.72433815,2.34730229 2.86693248,2.3262517 2.97943496,2.24075393 C3.09775063,2.16335255 3.16477339,2.02085627 3.16477339,1.86508194 C3.16477339,1.66008161 3.0690266,1.51110823 2.8812945,1.4463372 C2.77734084,1.40391217 2.61217762,1.39031025 2.28424487,1.39031025 L1.96109945,1.39031025 L1.96109945,2.34730229 L2.35708082,2.34730229 Z M2.38135947,1.08491483 C2.69458825,1.08491483 2.84538945,1.09981216 3.02388882,1.15648682 C3.33951128,1.25493879 3.54057954,1.53928363 3.54057954,1.85892869 C3.54057954,2.19832891 3.31694239,2.46810027 2.95789193,2.57464862 L3.56314843,3.92123842 L3.14459817,3.92123842 L2.58208578,2.64460133 L2.55233588,2.63812423 L2.29005806,2.63812423 L2.00657917,2.63812423 L1.96109945,2.64460133 L1.96109945,3.92123842 L1.57811228,3.92123842 L1.57811228,1.08491483 L2.38135947,1.08491483 Z M0.328958617,2.49562796 C0.328958617,3.70943714 1.3018144,4.69395686 2.500701,4.69395686 C3.69821979,4.69395686 4.67004972,3.70943714 4.67004972,2.488827 C4.67004972,1.90783082 4.44025742,1.31906212 4.0504312,0.929140488 C3.67565091,0.54601982 3.07620761,0.304747717 2.52942504,0.304747717 C1.26351569,0.304747717 0.328958617,1.24068916 0.328958617,2.49562796 L0.328958617,2.49562796 Z M5.0000342,2.50372433 C5.0000342,3.92123842 3.92219889,5 2.500701,5 C1.08535826,5 0,3.92123842 0,2.50372433 C0,1.05673943 1.06244742,0 2.51506302,0 C3.92219889,0 5.0000342,1.08491483 5.0000342,2.50372433 L5.0000342,2.50372433 Z" id="Fill-3" fill="#EC0C21" mask="url(#mask-2)"/>
        </g>
      </g>
    </g>
  </g>
</svg>