<?xml version="1.0" encoding="UTF-8"?>
<svg id="Layer_1" xmlns="http://www.w3.org/2000/svg" version="1.1" viewBox="0 0 180 60">
  <!-- Generator: Adobe Illustrator 29.8.3, SVG Export Plug-In . SVG Version: 2.1.1 Build 3)  -->
  <defs>
    <style>
      .st0 {
        fill: #b5c4eb;
      }

      .st1, .st2, .st3 {
        fill: #fff;
      }

      .st2 {
        fill-rule: evenodd;
      }

      .st4 {
        fill: #606060;
      }

      .st3, .st5, .st6 {
        display: none;
      }

      .st7 {
        fill: #ccc;
      }

      .st8 {
        fill: #013088;
      }

      .st6 {
        fill: #ed1d24;
      }
    </style>
  </defs>
  <rect class="st6" x="-21.7" y="-24" width="233.9" height="108.6"/>
  <path id="StateFarm" class="st3" d="M109.3,25.2h0c0,0,0,0,0,0-.9-.6-2.2-.9-3.4-.9-2.8,0-4.9,1.4-6.2,3.4-1.3,2-2,4.5-2,6.8s.2,3.2,1.2,4.5c.5.7,1.7,2.3,5.5,2.3,2.7,0,3.9-.7,4.6-1.1v-.2c.2-.6.7-3.3.9-3.9h-.1c-1.4,1-2.8,1.7-4.5,1.7s-2-.3-2.6-.8c-.6-.5-.9-1.3-.9-2.2s0-.7,0-1h0c0,0,0,0,0,0,2.6,0,4-.1,6.1-.1s1.5,0,2.5,0h.2c.2-1.1.5-2.3.5-3.7,0-1.3-.1-3.5-2.1-4.8M107.6,30.8h0c0,0-2.6.1-2.6.1h-2.5s0,0,0,0h0c0-.2.1-.4.2-.6.2-.6.4-1.2.9-1.7,0,0,.2-.2.2-.3.8-.9,1.5-1,2-1s1.2.3,1.5.7c0,0,0,.1.1.2.2.3.3.6.3.9,0,.1,0,.2,0,.4,0,.5,0,1-.2,1.4M97.6,27.9l-.2.2h-2.5c0,0-1.2,5.4-1.2,5.4-.2.7-.5,2.4-.5,3,0,.5.2.9.5,1.1.3.2.6.3.9.3.7,0,.9-.2,1.4-.4h0c0,0-.6,3.3-.6,3.3l-.2.2c-.9.2-1.5.3-2.4.3-2.4,0-4-.8-4.1-3.5,0-1.3.5-3.6.9-5.4l.9-4.4h-2c0,0-.1-.1-.1-.1l.6-3.1h.2c0,0,2,0,2,0l.8-4.1.2-.2c2-.5,2.6-.8,4.4-1.4h0c0,.1-.6,2.7-.6,2.7l-.6,2.9h2.6c0,0,0,0,0,0l-.6,3.1ZM128.8,22.7v.2c-.1,0-6.8,0-6.8,0l-1.1,5.6,5.8-.2h0c-.5,1.7-.6,2.2-.9,3.6h-.1c0,.1-5.6.1-5.6.1l-.7,3.9-.9,5h-.1c0,.1-4.8.2-4.8.2h0c0-.1.8-4.4.8-4.4l1.3-6c1-4.7,1.2-6.2,2.1-11.3h.1c0-.1,7-.1,7-.1h4.4c0-.1,0,0,0,0l-.7,3.5ZM138.2,25.4c-.9-.7-2.4-1-4.4-1s-2,0-3,.3c-.9.2-1.5.3-2,.5h-.1c0,.1-.7,3.5-.7,3.5h.2c.4,0,1-.3,1.9-.6.8-.3,1.6-.4,2.3-.4,1,0,1.8.1,2.3.4.5.3.9.9.9,1.6,0,.2,0,.3,0,.5,0,.1,0,.2,0,.3h0c0,0-.3,0-.7.1-.2,0-.5,0-.9,0-.6,0-1.2.1-1.8.2-1.3.2-5.1.8-6.2,3.3-1.2,2.1-1,4.8.2,6.2.4.5,1,.9,1.9,1.1h0s.2,0,.2,0c3.3.5,5.6-2.3,5.6-2.3l-.3,1.8h.1c0,.1,3.7,0,3.7,0h.2c0-.1,2.2-11,2.2-11,0-.2,0-.5.1-.8,0-.3,0-.6,0-.7,0-1.4-.6-2.4-1.6-3M134.4,36.2s-.9,1.4-2.1,1.9c-1.3.5-2.2.1-2.5-.4-.3-.4-.9-1.6.3-3,1.2-1.4,5-1.5,5-1.5l-.6,2.9ZM152.2,24.2l-.9,4.7-.2.2c-.3,0-.6,0-1,0-1.2,0-2.9.4-4.3,2.2h0s-1.9,9.7-1.9,9.7h-.1c0,.1-4,.2-4,.2h-.1c0-.1,3.2-16.3,3.2-16.3l.2-.2,4-.4.2.2-.5,2.4.2-.2c.8-.8,1.6-1.3,2.4-1.7.8-.5,1.6-.7,2.5-.7s.2,0,.2,0h.1ZM173.8,28.2c0,1-.2,2-.4,3l-1.9,9.6h-.1c0,.1-4.2.3-4.2.3h-.1c0-.1,2.2-10.7,2.2-11.2s-.3-1.8-1.6-1.8-2.1,1.1-2.1,1.1l-2.3,11.7h-.1c0,.1-1.8.2-1.8.2h-1.6c0,0-.8,0-.8,0h0c0,0,0-.1,0-.1,0,0,.3-1.6.7-3.6h0c.6-3.1,1.4-7.2,1.4-7.5,0-.5-.3-1.8-1.6-1.8s-2.1,1.1-2.1,1.1l-2.3,11.7h-.1c0,.1-.7.1-.7.1h-3.6c0,.1,0,0,0,0l3.2-16.2.2-.2,4.2-.4.2.2-.4,2.3s2-2.2,4.6-2.3c2.4,0,2.9,2.3,2.9,2.3,0,0,2.4-2.3,5-2.3,1.3,0,3.7.6,3.7,3.9M85.8,25.4c-.9-.7-2.4-1-4.4-1s-2,0-3,.3c-.9.2-1.5.3-2,.5h-.1c0,.1-.7,3.5-.7,3.5h.2c.4,0,1-.3,1.9-.6.8-.3,1.6-.4,2.3-.4,1,0,1.8.1,2.3.4.5.3.9.9.9,1.6s0,.3,0,.5c0,.1,0,.2,0,.3h0c0,0-.3,0-.7.1-.2,0-.5,0-.9,0-.6,0-1.2.1-1.8.2-1.3.2-5.1.8-6.2,3.3-1.2,2.1-1,4.8.2,6.2.4.5,1,.9,1.9,1.1h0s.2,0,.2,0c3.3.5,5.6-2.3,5.6-2.3l-.4,1.8h.1c0,.1,3.7,0,3.7,0h.2c0-.1,2.2-11,2.2-11,0-.2,0-.5.1-.8,0-.3,0-.6,0-.7,0-1.4-.6-2.4-1.6-3M82,36.2s-.9,1.4-2.1,1.9c-1.3.5-2.2.1-2.5-.4-.3-.4-.9-1.6.3-3,1.2-1.4,5-1.5,5-1.5l-.6,2.9ZM73.1,27.9l-.2.2h-2.5c0,0-1.2,5.4-1.2,5.4-.2.7-.5,2.4-.5,3,0,.5.2.9.5,1.1.3.2.6.3.9.3.7,0,1-.2,1.4-.4h0c0,0-.6,3.3-.6,3.3l-.2.2c-.9.2-1.5.3-2.4.3-2.3,0-4-.8-4.1-3.5,0-1.3.5-3.6.9-5.4l.9-4.4h-2c0,0-.1-.1-.1-.1l.6-3.1h.2c0,0,2,0,2,0l.8-4.1.2-.2c2-.5,2.6-.8,4.4-1.4h0c0,.1-.6,2.7-.6,2.7l-.6,2.9h2.6c0,0,0,0,0,0l-.6,3.1ZM63.7,20.4l-.8,4h-.2c-.3-.4-.5-.5-.9-.9-.9-.7-2.1-1.1-3.2-1.1s-1.6.3-2.2.7c-.5.5-.8,1.1-.8,1.9,0,1.4,1,2.1,2.7,3.1l.7.4c1.4.9,3.6,2.4,3.6,5.6,0,3.7-2.4,7.4-8,7.4-1.4,0-2.8-.2-4.1-.7-.9-.3-1.3-.6-1.8-1v-.3s.7-3.9.7-3.9h.2c.3.4.8.7,1.4,1.2,1.4.9,2.7,1,3.2,1,2,0,3.6-1.1,3.6-2.9,0-1.6-1.3-2.4-2.6-3.2l-.9-.6c-1.4-.9-3.4-2.2-3.4-5.4,0-1.2.4-3,1.4-4.4,1.4-1.9,3.7-2.6,5.9-2.6s4.6,1,5.4,1.5v.2ZM22.7,27.3c1.1.7,2.8,1.2,4.6,1.2s3.4-.5,4.6-1.2c1.2-.7,1.9-1.7,1.9-2.7,0-1-.7-2-1.9-2.7-1.2-.7-2.8-1.1-4.6-1.1-1.8,0-3.4.4-4.6,1.1-1.2.7-1.8,1.6-1.8,2.7,0,1,.7,2,1.8,2.7M22.9,32.8c-1.2-.7-2.8-1.1-4.6-1.1s-3.4.4-4.6,1.1c-1.2.7-1.8,1.6-1.8,2.7,0,1,.7,2,1.8,2.7,1.1.7,2.8,1.2,4.6,1.2,1.8,0,3.4-.5,4.6-1.2,1.2-.7,1.9-1.7,1.9-2.7,0-1-.7-2-1.9-2.7M40.7,32.8c-1.2-.7-2.8-1.1-4.6-1.1s-3.4.4-4.6,1.1c-1.2.7-1.8,1.6-1.8,2.7,0,1,.7,2,1.8,2.7,1.1.7,2.8,1.2,4.6,1.2,1.8,0,3.4-.5,4.6-1.2,1.2-.7,1.9-1.7,1.9-2.7,0-1-.7-2-1.9-2.7M36.1,29c-.8,0-1.6,0-2.4.2,1.6-1.2,2.7-2.8,2.7-4.6,0-3.6-4.1-6.4-9.1-6.4-5.1,0-9.1,2.9-9.1,6.4s1,3.4,2.6,4.6c-.8-.1-1.6-.2-2.4-.2-5.1,0-9.1,2.9-9.1,6.4s4,6.5,9.1,6.5,7.9-2.1,8.9-4.9c1,2.8,4.5,4.9,8.8,4.9s9.2-2.9,9.2-6.5-4.1-6.4-9.1-6.4M19.8,24.7c0-1.6,1.2-2.7,2-3.2,1.4-1,3.4-1.6,5.5-1.6s4.1.6,5.5,1.6c.7.5,2,1.6,2,3.2,0,2.7-3.5,4.8-7.5,4.8-2.1,0-4-.6-5.5-1.6-1.2-.9-2-2-2-3.3M18.3,40.3c-2.1,0-4-.6-5.5-1.6-1.2-.9-2-2-2-3.3,0-1.6,1.2-2.7,2-3.2,1.4-1,3.4-1.6,5.5-1.6,2.1,0,4.1.6,5.5,1.6.7.5,2,1.6,2,3.2,0,2.7-3.5,4.8-7.5,4.8M27.3,33.9c-.4-1.1-1.2-2.2-2.3-3,.7.1,1.5.2,2.3.2s1.6,0,2.4-.2c-1.1.8-1.9,1.8-2.3,3M36.1,40.3c-2.1,0-4-.6-5.5-1.6-1.2-.9-2-2-2-3.3,0-1.6,1.2-2.7,2-3.2,1.4-1,3.4-1.6,5.5-1.6,2.1,0,4.1.6,5.5,1.6.7.5,2,1.6,2,3.2,0,2.7-3.5,4.8-7.5,4.8"/>
  <g id="Progressive" class="st5">
    <g id="g98">
      <path id="path53" class="st1" d="M89.1,30.9c1.8-.2,3.1-1,3.8-2.6.6-1.2,1.5-3.2,1.5-3.3.9-1.9.6-3.1.2-3.7-.6-1-1.8-1.3-2.7-1.3h-9.1l-9.4,20h4.7l3.6-7.9h2.5c.4,0,.8.2,1.1.6.3.5.2,1.3-.3,2.3-1.1,2.4-2,5-2,5h4.8c.1-.7.3-1.3.6-1.9.4-.9,1.5-3.6,1.5-3.7.9-2.2-.2-3.1-.9-3.6h0ZM88.6,27.6c-.4.8-1,1.3-1.8,1.3h-3.3l2.5-5.4h3.6c.2,0,.4.1.5.3.1.2,0,.6-.1,1.1l-.8,1.7-.5,1Z"/>
      <path id="path55" class="st1" d="M38.6,30.9c1.8-.2,3.1-1,3.8-2.6.6-1.2,1.5-3.2,1.5-3.3.9-1.9.6-3.1.2-3.7-.6-.9-1.8-1.3-2.7-1.3h-9.1l-9.4,20h4.7l3.6-7.9h2.5c.4,0,.8.2,1.1.6.3.5.2,1.3-.3,2.3-1.1,2.4-2,5-2,5h4.8c.1-.7.3-1.3.6-1.9.4-.9,1.5-3.6,1.5-3.7.9-2.3-.2-3.1-.9-3.6ZM38.1,27.6c-.4.8-1,1.3-1.8,1.3h-3.3l2.6-5.4h3.5c.2,0,.4.1.5.3.1.2,0,.6-.1,1.1l-.8,1.7-.5,1Z"/>
      <path id="path57" class="st1" d="M60.8,25.1c1.7-3.5-.2-5.1-2.6-5.1h-5.7c-2.4,0-4.1,1.1-5.2,3.5-.6,1.3-1.6,3.3-2.7,5.7l-2.4,5.1c-2.4,5.1,1.2,5.9,3,5.9h3.6c3.6,0,5.4-1,6.8-3.9.9-2,2.2-4.7,3.6-7.7l1.6-3.5ZM56.1,24.5l-4.8,10.3c-.7,1.4-1.1,1.7-2.2,1.7h-2.1c-.4,0-1.1,0-.6-1.3.8-1.7,4.2-9,4.9-10.5.5-1,1-1.2,1.6-1.2h2.6c.5,0,.9.2.5,1.1h0Z"/>
      <path id="path59" class="st1" d="M68.7,29l-1.6,3.3h2.5l-1.4,3c-.4.9-.7,1.1-1.6,1.1h-2.5c-.7,0-1-.4-.6-1.3.6-1.2,5-10.5,5-10.5.5-1.1.8-1.2,1.6-1.2h2.6c.6,0,1,.3.5,1.1,0,.2-1.1,2.4-1.1,2.4h4.5s1-2.2,1-2.2c1.5-3.2.2-4.7-2.9-4.8h-4.9c-2.4,0-4.6,1.3-5.6,3.5-.9,1.9-5.1,10.8-5.1,10.8-1.5,3.2-.6,5.9,3.6,5.9h3.8c3,0,4.5-.4,5.9-3.4l3.5-7.7h-7.1Z"/>
      <polygon id="polygon61" class="st1" points="136.6 20.1 127.2 40.1 132.1 40.1 141.6 20.1 136.6 20.1"/>
      <polygon id="polygon63" class="st1" points="142.6 37.7 148.2 20.1 143.1 20.1 138.4 40.1 145 40.1 158.7 20.1 153.6 20.1 142.6 37.7"/>
      <path id="path65" class="st1" d="M116,33.1l-.4-7.4c0-.9.2-2.1,1.8-2.1h3.3l1.7-3.6h-5.6c-4.4,0-5.9,2.7-5.8,5.9.1,1.9.4,8.3.4,8.3,0,1.5-.5,2.2-1.9,2.2h-3.7l-1.7,3.6h6c4,0,6.3-2.6,6-6.9h0Z"/>
      <path id="path67" class="st1" d="M126.8,25.7c0-.9.2-2.1,1.8-2.1h3.3l1.7-3.6h-5.6c-3.7,0-6,2-5.8,5.9.1,1.9.4,8.3.4,8.3,0,1.5-.5,2.2-1.9,2.2h-3.6l-1.7,3.6h5.9c4.3,0,6.3-3.1,6-7l-.4-7.4Z"/>
      <path id="path69" class="st1" d="M99.3,31.1h6.1l1.6-3.3h-6.1l1.9-4.2h6.3l1.7-3.6h-11l-9.4,20h11.9l1.7-3.6h-7.2l2.5-5.3Z"/>
      <path id="path71" class="st1" d="M151,40.1h11.9l1.7-3.6h-7.2l2.5-5.3h6.1l1.6-3.3h-6.1l1.9-4.2h6.3l1.6-3.6h-11l-9.4,20Z"/>
      <path id="path73" class="st1" d="M25.7,29.7c.4-.8,1.2-2.5,2.1-4.5,1.6-3.5-.4-5.1-2.4-5.1h-9l-9.3,20h4.9l3.3-7h4.7c3,0,4.6-.9,5.8-3.5ZM23.2,25c-.9,1.9-1.5,3.2-1.6,3.4-.4.8-1,1.2-1.8,1.2h-3l2.9-6.2h3.1c.7,0,1.1.3.5,1.6Z"/>
      <path id="path75" class="st1" d="M175.2,21.4c0-.2,0-.3-.2-.4-.1,0-.3-.1-.4,0h-.8v1.8h.2v-.8h.4l.5.8h.3l-.5-.8c.3,0,.6-.1.6-.5h0ZM174.3,21.8h-.3v-.7h.5c.2,0,.5,0,.5.3,0,.4-.4.3-.7.3Z"/>
      <path id="path77" class="st1" d="M174.4,20.2c-.9,0-1.6.7-1.6,1.6,0,.9.7,1.6,1.6,1.6.9,0,1.6-.7,1.6-1.6h0c0-.9-.7-1.6-1.6-1.6ZM174.4,23.3c-.8,0-1.4-.7-1.4-1.4,0-.8.7-1.4,1.4-1.4.8,0,1.4.6,1.4,1.4,0,.8-.6,1.4-1.4,1.4,0,0,0,0,0,0h0Z"/>
    </g>
  </g>
  <g id="Geico" class="st5">
    <path id="path82" class="st1" d="M14.1,26.2c0-7.6,4.3-9.4,11.5-9.4h12c9.1,0,10.4,3.3,10.4,8.4v.8h-7.9c0-2.6-1.5-2.9-4-2.9h-8.7c-4,0-5.1,1-5.1,5.4v3.2c0,4.5,1,5.4,5.1,5.4h8.5c2.1,0,4.2-.3,4.2-2.8v-.8h-10v-5.4h18v7.4c0,7.5-3.9,7.9-12.9,7.9h-9.6c-7.2,0-11.5-1.8-11.5-9.4v-7.8h0Z"/>
    <path id="path86" class="st1" d="M50.1,17h28.6v6.1h-20.6v4.2h19.5v5.4h-19.5v4.2h21v6.3h-29v-26.1h0Z"/>
    <path id="path88" class="st1" d="M81.6,17h8v26.1h-8v-26.1Z"/>
    <path id="path92" class="st1" d="M92,26.2c0-7.6,4.3-9.4,11.5-9.4h9.4c11.4,0,12.9,2.5,12.8,9.8h-8v-.7c0-1.9-1.4-2.4-3.8-2.4h-8.7c-4.2,0-5,2-5,5.2v2.8c0,3.8.8,5.2,4.6,5.2h8.5c3.6,0,4.7-.4,4.7-3.6h8v2.5c0,4.4-1.6,7.9-9.6,7.9h-12.9c-7.2,0-11.5-1.8-11.5-9.4v-7.8h0Z"/>
    <path id="path96" class="st1" d="M135.7,31.5c0,3.8.8,5.2,4.6,5.2h10.2c3.8,0,4.6-1.4,4.6-5.2v-2.8c0-3.2-.8-5.2-5-5.2h-9.4c-4.2,0-5,2-5,5.2v2.8ZM127.4,26.2c0-7.6,4.3-9.4,11.5-9.4h12.8c7.2,0,11.5,1.8,11.5,9.4v7.8c0,7.6-4.3,9.4-11.5,9.4h-12.8c-7.2,0-11.5-1.8-11.5-9.4v-7.8Z"/>
    <path id="path100" class="st1" d="M166.3,40.2c.4,0,1,0,1-.5s-.4-.5-.8-.5h-.8v1h.5ZM167.7,41.8h-.4l-.8-1.3h-.6v1.3h-.4v-2.9h1.3c.2,0,.5,0,.7.1.2.1.3.4.3.6,0,.6-.4.8-.9.8l.9,1.3h0ZM168.7,40.3c0-1.3-1-2.3-2.3-2.3s-2.3,1-2.3,2.3,1,2.3,2.3,2.3,2.3-1,2.3-2.3M163.8,40.3c0-1.4,1.2-2.6,2.6-2.6s2.6,1.2,2.6,2.6-1.2,2.6-2.6,2.6-2.6-1.2-2.6-2.6"/>
  </g>
  <g id="Farmers" class="st5">
    <path id="path3010" class="st1" d="M70.1,27.1h17.5s2.3,2.6,3.9,2.6,3.9-2.6,3.9-2.6h17.6s1-22.4-21.5-22.4-21.4,22.4-21.4,22.4Z"/>
    <path id="path2995" class="st8" d="M71,26.1h40.9s0-20.3-20.4-20.3-20.5,20.3-20.5,20.3Z"/>
    <path id="path2997" class="st0" d="M85.2,6.6c-.3,3.5-.3,7-.2,10.5-3.3-1.4-6.6-2.3-9.9-3.1,1.9,3,3.9,5.9,6.1,8.6-3.5.9-6.9,1.9-10.1,3.3h40.8c-3-1.4-6.7-2.3-10.1-3.3,2-2.6,4.1-4.9,6.1-8.6-3.4.7-6.7,1.8-9.9,3.1.1-3.5.2-6.9-.2-10.5-2.4,2.6-4.3,5.6-6.3,8.5-1.8-2.8-3.9-5.6-6.2-8.5h0Z"/>
    <path id="path3002" class="st1" d="M81.8,26.1c-2.6-1.8-4.7-3.6-6.4-5.2,2.8-.4,5.5-.4,8.3-.5-1.3-2.6-1.5-5.2-2.2-7.9,2.5,1.6,5.2,2.9,7.1,4.9.4-2.7,1.5-5.5,2.8-8.1,1.1,2.7,2.3,5.4,2.8,7.9,2.3-2.1,4.6-3.3,6.9-4.6-.5,2.9-1.2,5.6-2.2,7.9,2.8,0,5.5-.1,8.4.5-2.1,2.1-4.3,3.6-6.4,5.1h-19.2s0,0,0,0Z"/>
    <path id="path3004" class="st7" d="M91.5,28.5v-11.4h-6.5c0,6.7,3.2,10,6.5,11.4Z"/>
    <path id="path3006" class="st4" d="M91.4,28.5v-11.4h6.5c0,6.7-3.2,10-6.5,11.4h0Z"/>
    <path id="rect3012" class="st1" d="M43.8,31.6v11.3h2.2v-4.6h4.6v-1.9h-4.6v-2.8h5l.7-1.9h-7.9Z"/>
    <path id="path3019" class="st1" d="M103.7,31.6v11.3h2.2s5.1,0,5.1,0v-1.9h-5.1v-3h4.6v-1.9h-4.6v-2.5h5l.7-1.9h-7.9Z"/>
    <path id="path3029" class="st1" d="M58.8,31.6l-4.5,11.4h2.4l.9-2.4h4.5l.8,2.4h2.6l-4.5-11.3h-2.2,0ZM59.8,34.6l1.7,4.2h-3.4l1.7-4.2Z"/>
    <path id="path3034" class="st1" d="M70.5,31.6v11.4h2.4v-4.4h1.1l3,4.4h2.8l-3.4-4.8s2.3-.7,2.3-3c0-3.6-3.6-3.7-3.6-3.7h-4.6ZM72.9,33.4h1.9s1.7.1,1.7,1.8-1.7,1.7-1.7,1.7h-1.9v-3.5Z"/>
    <path id="path3039" class="st1" d="M117.1,31.6v11.4h2.4v-4.4h1.1l3,4.4h2.8l-3.4-4.8s2.3-.7,2.3-3c0-3.6-3.6-3.7-3.6-3.7h-4.6ZM119.5,33.4h1.9s1.7.1,1.7,1.8-1.7,1.7-1.7,1.7h-1.9v-3.5Z"/>
    <path id="path3041" class="st1" d="M87.4,35.9l-.5,7.1h-2.2l.9-11.4h2.3l3.4,7.4,3.2-7.4h2.1l1,11.3h-2.4l-.4-7.1-3.3,7.1h-1l-3.2-7.1h0Z"/>
    <path id="path3043" class="st1" d="M130.8,41.7l1.1-1.7c2.1,1.4,3.6,1.4,4.9.5.3-.9,0-1.4-.4-1.7l-3.7-1.5c-1.6-1.3-2.2-2.8-.4-4.8,1.6-1.4,3.7-1.4,6.2-.2v2.1c-1.5-.5-2.9-1.6-4.6-.7-.8,1.1,0,1.6.4,2,2.4.9,4.2,1.6,4.6,2.5.6,1.9,0,2.9-.7,3.7-2.7,2.1-5.8,1.1-7.5-.1h0Z"/>
    <path id="rect3045" class="st1" d="M59.7,49.1h1.3v6.2h-1.3v-6.2Z"/>
    <path id="path3054" class="st1" d="M65.2,51.1v4.2h-1.1v-6.1h1l3,4.1v-4.2h1v6.2h-.9l-3.1-4.2h0Z"/>
    <path id="path3056" class="st1" d="M104.1,51.1v4.2h-1.1v-6.1h1l3,4.1v-4.2h1v6.2h-.9l-3.1-4.2Z"/>
    <path id="path3058" class="st1" d="M72.1,54.7l.6-.9c1.2.8,1.8.9,2.5.3.3-.2.4-.7,0-1l-2.1-.9c-1-.5-1.2-1.5-.2-2.7.9-.8,2.1-.8,3.5-.1v1.2c-.9-.3-1.9-.8-2.5-.3-.4.4-.2.7.1.9,1.3.5,2.4,1,2.7,1.5.4,1.1-.1,1.6-.5,2.1-1.3,1.1-3.1.6-4.1-.1Z"/>
    <path id="path3060" class="st1" d="M82,55.4c-2.4,0-2.6-2.1-2.6-2.1v-4.2h1.3v4.2s0,1.1,1.3,1.1,1.3-1,1.3-1v-4.4h1.2v4.2s0,2.2-2.4,2.2Z"/>
    <path id="path3062" class="st1" d="M87.6,49.1v6.3h1.3v-2.4h.6l1.6,2.4h1.5l-1.9-2.6s1.3-.4,1.3-1.6c0-2-2-2-2-2h-2.5ZM88.9,50.1h1.1s.9,0,.9,1-.9.9-.9.9h-1v-1.9Z"/>
    <path id="path3064" class="st1" d="M97,49.2l-2.5,6.3h1.4l.5-1.3h2.5l.5,1.3h1.4l-2.5-6.2h-1.2ZM97.5,50.8l.9,2.3h-1.9l.9-2.3Z"/>
    <path id="path3066" class="st1" d="M111,52.4c0-1.7.9-3.3,3.1-3.4.7,0,1.8.4,1.8.4v1.2c0,0-1.1-.6-1.8-.5-1.1.1-2,.6-2,2.3s.9,1.9,1.9,1.9,1.6-.5,1.6-.5l.4,1s-1.1.6-2,.6c-1.6,0-3.1-1.1-3.1-3.1h0Z"/>
    <path id="path3068" class="st1" d="M119.1,49.2v6.1h4v-1h-2.8v-1.6h2.5v-1h-2.5v-1.4h2.7l.4-1h-4.3Z"/>
  </g>
  <g id="USAA" class="st5">
    <path class="st1" d="M66.4,42.1v8.5c0,4.8,2.9,5.6,5.4,5.6,3.6,0,5.3-2.4,5.3-5.6v-8.5h-2.4v8.8c0,1.1-.4,3.2-2.9,3.1-2.3,0-2.7-2.2-2.7-3.5v-8.4h-2.6Z"/>
    <path class="st1" d="M87,42.7s-1.5-.8-3.2-.8-4.9,1.1-4.9,4.1,1.5,3.1,2.6,3.6c.6.3,1.2.6,1.8.9.3.2,1.4.5,1.4,1.8s-1.4,1.8-2.1,1.8c-2.3,0-3.9-1.1-3.9-1.1l.2,2.7s.9.5,3.8.5c2.7,0,4.7-1.7,4.7-4.2s-1.3-2.9-2.3-3.5c-.8-.4-1.3-.6-2.1-1-.7-.3-1.5-.9-1.5-1.9s.9-1.7,2.3-1.7c2,0,2.8.9,3.2,1.2v-2.5h0Z"/>
    <path class="st1" d="M103.3,51.6l1.9-5.4,1.7,5.4h-3.6ZM91.9,51.6l1.9-5.4,1.7,5.4h-3.6ZM106.4,42.1h-2.9l.5,1.2-4.5,11.9-4.6-13h-2.9l.5,1.2-4.7,12.7h2.6l.8-2.4h4.9l.8,2.4h4.9l.8-2.4h4.9l.8,2.4h2.9l-4.9-13.8Z"/>
    <path class="st1" d="M66.3,26.5v4.3c.1,0,1.2-.8,2.4-.8s2.5.9,2.5.9l10.6,6.2.9-3.9-11.5-6.7s-1.3-.8-2.5-.8c-1.2,0-2.4.9-2.4.9"/>
    <path class="st1" d="M66.3,20.9v4.3c.1,0,1.2-.8,2.4-.8s2.5.9,2.5.9l11.8,6.9.9-3.9-12.7-7.4s-1.3-.8-2.5-.8-2.4.9-2.4.9"/>
    <path class="st1" d="M66.3,15.3v4.3c.1,0,1.2-.8,2.4-.8s2.5.8,2.5.8l12.9,7.6.9-3.9-13.8-8.1s-1.3-.8-2.5-.8c-1.2,0-2.4.9-2.4.9"/>
    <path class="st1" d="M88.4,8.4l1.2,5.1,16.2,9.4s1.3.8,2.5.8,2.4-.9,2.4-.9v-4.3c-.1,0-1.1.8-2.4.8s-2.5-.9-2.5-.9l-12.5-7.3-.9-3.3c0-.1.1-.2.2-.2l2.1-.7c.3,0,.4.2.4.5v.2c.2,0,.5-.1.5-.1v-1.3c0-.9-.7-1.6-1.6-1.6h-2.1s-.3-.7-1.2-.7h-4c-1.1,0-1.3,1-1.3,1l-2.8,11.3-11.4-6.7s-1.2-.8-2.5-.8-2.4.9-2.4.9v4.3c.1,0,1.1-.8,2.4-.8s2.5.9,2.5.9l14,8.2,3.2-13.8Z"/>
    <path class="st1" d="M89.9,14.9l1.2,5.1,14.7,8.6s1.3.9,2.5.9,2.4-.9,2.4-.9v-4.3c-.1,0-1.1.8-2.4.8s-2.5-.8-2.5-.8l-15.8-9.3Z"/>
    <path class="st1" d="M91.4,21.4l1.2,5.1,13.2,7.7s1.3.9,2.5.9,2.4-.9,2.4-.9v-4.3c-.1,0-1.1.8-2.4.8s-2.5-.8-2.5-.8l-14.3-8.4Z"/>
    <path class="st1" d="M92.9,27.9l1.2,5.1,11.7,6.8s1.3.9,2.5.9,2.4-.9,2.4-.9v-4.3c-.1,0-1.1.8-2.4.8s-2.5-.9-2.5-.9l-12.8-7.5Z"/>
    <path class="st1" d="M114,41.3c1.6,0,2.8,1.3,2.8,2.9s-1.2,2.9-2.8,2.9-2.8-1.3-2.8-2.9,1.3-2.9,2.9-2.9h0ZM113.9,41.7c-1.3,0-2.3,1.1-2.3,2.4s1,2.4,2.3,2.4c1.3,0,2.3-1.1,2.3-2.4,0-1.3-1-2.4-2.3-2.4h0ZM113.4,45.8h-.5v-3.2c.3,0,.5,0,.9,0s.8.1,1,.2c.2.1.3.4.3.7,0,.4-.3.7-.6.8h0c.3,0,.5.3.5.8,0,.5.2.7.2.8h-.5c0-.1-.2-.4-.2-.8,0-.4-.3-.6-.7-.6h-.4v1.4h0ZM113.4,44.1h.4c.4,0,.8-.2.8-.5s-.2-.6-.8-.6-.3,0-.4,0v1.1Z"/>
  </g>
  <g id="Layer">
    <path id="Layer1" data-name="Layer" class="st2" d="M160.9,45.8c-1.3,0-2.4-1.1-2.4-2.5s1.1-2.5,2.4-2.5,2.4,1.1,2.4,2.5-1.1,2.5-2.4,2.5ZM162.9,43.3c0-1.2-.9-2.2-2-2.2s-2,1-2,2.2.9,2.2,2,2.2,2-1,2-2.2ZM161.6,44.7l-.8-1.2h-.3v1.1h-.5v-2.8h.8c.6,0,.9.3.9.8s-.2.7-.5.8l.8,1.1h-.5ZM160.9,42.3h-.3v.8h.3c.3,0,.5-.1.5-.4s-.2-.4-.5-.4h0ZM45,15.6v30.2h-5.9v-7.8h-10.4c-.2.3-4.6,7.8-4.6,7.8h-6.2l18.2-30.2s8.9,0,8.9,0h0ZM39.2,20.6s-6.7,11.3-7.2,12h7.2v-12ZM54.9,15.6v30.2h-5.7V15.6h5.7ZM59,15.6h5.7v30.2h-5.7V15.6ZM85,39.1c0,2-.5,3.6-1.7,4.8-1.4,1.5-3.8,2.3-7,2.3s-6.4-1.1-8.2-2.1h-.2c0,0,.8-5.2.8-5.2l.3.2c2.3,1.6,5,2.5,7.4,2.5s3.1-.6,3.2-2.1c0-1.7-.7-2.2-4-3-5.1-1.4-7.2-2.7-7.3-7.3,0-1.7.6-3.3,1.7-4.5,1.4-1.5,3.6-2.3,6.2-2.3s5.2.5,7.4,1.5h.2c0,0-.8,5.1-.8,5.1l-.3-.2c-2.1-1.2-4.5-1.9-6.5-1.9s-2.5.7-2.6,1.9c0,1.3.6,1.8,3.7,2.6,5.2,1.4,7.6,2.6,7.7,7.6h0ZM99.6,45.8h-.3c-.8.2-1.8.4-3.3.4-4.8,0-7.1-2.2-7.1-6.8v-11.6h-2.9v-4.9h2.9v-7.3h5.6v7.3h4.2v4.9h-4.2v10.7c0,1.7.8,2.5,2.5,2.5s1.2,0,1.6-.2h.3c0,0,.7,5,.7,5h0ZM119.3,30.1v15.7h-4.9s-.3-1.9-.4-2.5c-2,2-4.1,3-6.7,3-3.8,0-6.2-2.5-6.2-6.3s4.1-8.2,12.5-9.1v-.6c0-2.1-1.1-3-3.3-3s-4.3.5-6.8,1.7h-.3c0,.1-.7-4.7-.7-4.7h.2c2.1-.9,4.8-1.8,8.3-1.8,5.7,0,8.3,2.5,8.3,7.7ZM113.6,39.5v-5c-4.5.6-6.9,2.3-6.9,4.8s.9,2.3,2.3,2.3,3.2-.8,4.6-2.2ZM134.6,45.8h-.2c-.8.2-1.8.4-3.3.4-4.8,0-7.1-2.2-7.1-6.8v-11.6h-2.9v-4.9h2.9v-7.3h5.6v7.3h4.3v4.9h-4.3v10.7c0,1.7.8,2.5,2.5,2.5s1.2,0,1.6-.2h.3c0,0,.7,5,.7,5ZM153.8,38.7l.7,4.8h-.1c-2.5,1.9-5.3,2.8-8.5,2.8-6.4,0-10.4-4.5-10.4-11.9s1.1-7.3,3.1-9.4c1.7-1.7,3.9-2.6,6.6-2.6,6.2,0,9.3,4,9.3,11.8v1.6h-13.3c.3,3.7,2.2,5.9,5.3,5.9s4.4-.8,7-2.6l.3-.3ZM148.9,31.8c-.1-2.4-.9-5.2-3.8-5.2s-3.6,1.9-3.8,5.2h7.7Z"/>
  </g>
</svg>