<?xml version="1.0" encoding="utf-8"?>
<!-- Generator: Adobe Illustrator 24.1.3, SVG Export Plug-In . SVG Version: 6.00 Build 0)  -->
<svg version="1.1" id="svg2985" xmlns="http://www.w3.org/2000/svg" xmlns:xlink="http://www.w3.org/1999/xlink" x="0px" y="0px"
	 viewBox="0 0 800 425.6" style="enable-background:new 0 0 800 425.6;" xml:space="preserve">
<style type="text/css">
	.st0{fill:#FFFFFF;}
	.st1{fill:#013088;}
	.st2{fill:#B5C4EB;}
	.st3{fill:#E01A33;}
	.st4{fill:#B20032;}
	.st5{fill:#013186;}
	.st6{fill:#E21931;}
	.st7{fill:#003087;}
	.st8{font-family:'MyriadPro-Regular';}
	.st9{font-size:49.1685px;}
</style>
<g id="g3099" transform="translate(-3.969 6.769)">
	<path id="path3010" class="st0" d="M225.2,180.2h145.5c0,0,19.4,22,32.4,22s32.4-22,32.4-22h146.1c0,0,8.5-186-178.5-186
		C218.2-5.8,225.2,180.2,225.2,180.2z"/>
	<path id="path2995" class="st1" d="M232.8,171.7h340.3c0,0-0.6-168.9-169.7-168.9C231.9,2.8,232.8,171.7,232.8,171.7z"/>
	<path id="path2997" class="st2" d="M350.9,10.3c-2.9,29.3-2.5,58.5-1.8,87.7c-27.5-11.4-55.1-19.4-82.6-25.5
		c15.5,24.8,32,49,51,71.5c-28.7,7.6-57,16.2-83.9,27.8h339.1c-25.4-11.5-55.4-19.1-83.9-27.8c17-21.6,34-41,51-71.5
		c-28.5,6.1-56,14.7-82.6,25.5c0.9-28.9,1.4-57.7-1.8-87.7c-20.3,22-35.5,46.6-52.6,70.3C388,57.2,370.2,33.8,350.9,10.3L350.9,10.3
		z"/>
	<path id="path3002" class="st0" d="M323,171.9c-21.4-15.3-39.2-29.8-52.9-43.1c23.7-3.5,45.7-3.7,69.4-3.7
		c-10.5-21.4-12.8-43.3-18.3-65.5c21,13,43.4,24.2,58.7,40.6c3.7-22.6,12.8-45.8,23.5-67.5c9.2,22.2,19,44.5,23.4,65.9
		c19.2-17.1,38.3-27.1,57.6-38.3c-4.1,24.2-9.6,46.6-18.1,65.6c23-0.6,46.1-0.9,70,3.7c-17.8,17.9-35.5,29.7-53.3,42.5L323,171.9
		L323,171.9z"/>
	<path id="path3004" class="st3" d="M403.1,192.4V97.6h-53.8C349.6,152.9,376.2,180.4,403.1,192.4z"/>
	<path id="path3006" class="st4" d="M402.9,192.4V97.6h53.8C456.4,152.9,429.7,180.4,402.9,192.4L402.9,192.4z"/>
	<path id="rect3012" class="st1" d="M7,217.8v93.8h18.5v-38.5H64v-15.9H25.5v-23.7h41.6l5.6-15.9L7,217.8L7,217.8z"/>
	<path id="path3019" class="st5" d="M504.6,217.8v93.8h18.5v-0.1h42.6v-15.8h-42.6v-25.2h38.5v-15.8h-38.5v-21.1h41.7l5.6-15.9
		H504.6z"/>
	<path id="path3029" class="st1" d="M131.7,218.2l-37.7,94.7h20.3l7.3-20.1h37.5l7,19.7h21.3l-37.5-94.2L131.7,218.2L131.7,218.2z
		 M140,243l14.2,35.2H126L140,243z"/>
	<path id="path3034" class="st1" d="M228.7,217.8v94.7h19.9v-36.6h8.8l24.9,36.8h23.3l-28.3-39.9c0,0,19.5-5.6,19.5-24.6
		c0-29.7-29.6-30.5-29.6-30.5L228.7,217.8L228.7,217.8z M248.5,232.7h15.9c0,0,13.8,1.1,13.8,14.7c0,13.8-14.1,14.4-14.1,14.4h-15.8
		L248.5,232.7z"/>
	<path id="path3039" class="st1" d="M616.1,217.8v94.7h19.9v-36.6h8.8l24.9,36.8h23.3l-28.2-39.8c0,0,19.5-5.6,19.5-24.6
		c0-29.7-29.6-30.5-29.6-30.5L616.1,217.8L616.1,217.8z M635.8,232.7h15.9c0,0,13.8,1.1,13.8,14.7c0,13.8-14.1,14.4-14.1,14.4h-15.8
		L635.8,232.7z"/>
	<path id="path3041" class="st1" d="M369.5,253.7l-4.3,59.2h-18.1l7.9-94.6h18.9l28.4,61.9l26.4-61.9H446l8.7,94.2H435l-3.2-59.2
		l-27.6,59.2h-8.3L369.5,253.7L369.5,253.7z"/>
	<path id="path3043" class="st1" d="M729.7,302.1l9.1-13.8c17.2,11.4,29.9,11.6,40.7,4.1c2.3-7.7,0.6-11.7-3-14.5l-31-12.4
		c-13.4-10.7-18.4-23.2-3.5-40.2c13.5-11.4,30.9-11.6,51.7-2l-0.8,17.7c-12-4.2-23.1-13-37.1-5.5c-6.9,9.1-0.7,13.3,3.6,16.3
		c19.9,7.1,34.9,13,38.6,21.1c5.3,16.1-0.8,23.8-5.6,30.4C769.9,320.9,744.6,312.6,729.7,302.1L729.7,302.1z"/>
	<path id="rect3045" class="st6" d="M138.9,363.6h10.6v51.7h-10.6V363.6z"/>
	<path id="path3054" class="st6" d="M184.9,380.3v34.6h-9v-50.5h8.6l25.4,34.4V364h8.2v51.3h-7.7L184.9,380.3L184.9,380.3z"/>
	<path id="path3056" class="st6" d="M507.8,380.3v34.6h-9v-50.5h8.6l25.4,34.4V364h8.2v51.3h-7.7L507.8,380.3z"/>
	<path id="path3058" class="st6" d="M241.8,409.8l5-7.7c9.6,6.3,14.9,7.1,21,2.9c2.5-2.1,3.2-5.7,0.5-8.1l-17.7-7.9
		c-8.1-4.1-10.3-12.6-2-22.1c7.5-6.4,17.1-6.5,28.8-1.1l-0.5,9.9c-6.7-2.4-15.7-6.9-20.2-2.8c-3.4,3.6-1.5,6.2,0.9,7.8
		c11.1,3.9,20.2,8.2,22.2,12.8c2.9,8.9-1.1,13.5-3.8,17.1C265.2,419.8,250.1,415.7,241.8,409.8z"/>
	<path id="path3060" class="st6" d="M324.3,416c-19.9,0-21.6-17.5-21.6-17.5v-35h10.8v34.9c0,0,0.4,8.9,10.4,8.9
		c8.8,0,10.6-8.1,10.6-8.1v-36.2h9.7v35C344.4,398.1,344.6,416,324.3,416z"/>
	<path id="path3062" class="st6" d="M370.6,363.2v52h10.9v-20.1h4.9l13.6,20.2h12.8l-15.5-21.8c0,0,10.7-3.1,10.7-13.6
		c0-16.3-16.3-16.7-16.3-16.7H370.6z M381.4,371.4h8.8c0,0,7.6,0.6,7.6,8.1c0,7.6-7.7,7.9-7.7,7.9h-8.6V371.4z"/>
	<path id="path3064" class="st6" d="M448.9,364l-20.8,52.1h11.2l4-11.1h20.6l3.8,10.8h11.7L458.8,364H448.9z M453.5,377.7l7.8,19.5
		h-15.5L453.5,377.7z"/>
	<path id="path3066" class="st6" d="M565.4,390.4c-0.2-14.4,7.2-27.3,26.1-28c6.1-0.2,14.6,3.7,14.6,3.7l0.6,10
		c0,0-9.4-5.2-15.2-4.5c-9.5,1-16.7,5.3-16.7,19.2c0,9.1,7.2,16.1,16.1,16.1c6.1,0,13.4-4.2,13.4-4.2l3.5,8.2c0,0-9.2,5-16.6,5
		C577.6,415.8,565.6,407,565.4,390.4L565.4,390.4z"/>
	<path id="path3068" class="st6" d="M633,364v51h33.3v-8.6h-23.2v-13.7h21v-8.6h-21v-11.5h22.7l3-8.6H633L633,364z"/>
</g>
<text transform="matrix(1 0 0 1 777.0635 226.0637)" class="st7 st8 st9">®</text>
</svg>
