<svg xmlns="http://www.w3.org/2000/svg" viewBox="0 0 359.62 91.3"><defs><style>.cls-1{fill:#1a1446;}.cls-2{fill:#fff;}</style></defs><g id="Layer_2" data-name="Layer 2"><g id="Layer_1-2" data-name="Layer 1"><path class="cls-1" d="M80.92,50.5c0,2.3,1,3,4.4,3s5-1,7.2-5.6h.8l-.8,7.2H71.32v-.8c3.2-.8,3.5-1.5,3.5-4.5V32c0-2.5-.6-3.2-3.5-3.9v-.8h13.1v.8c-2.8.7-3.5,1.3-3.5,3.7Z"/><path class="cls-1" d="M102.22,51.2c0,1.8.9,2.8,2.9,3V55H93.82v-.7c2.4-.5,3-1.1,3-3.4V41.3c0-2.2-.6-2.8-3.2-3.3v-.8l7.8-.7h.8Zm-2.7-25.8a3.1,3.1,0,1,1-3.1,3.1,3.12,3.12,0,0,1,3.1-3.1"/><path class="cls-1" d="M113.92,41c1.8-1.7,2.8-2.1,4.2-2.1,3.2,0,5.3,3,5.3,7.4,0,5.8-2.7,8.2-6.6,8.2-2.1,0-2.8-.9-2.8-3V41Zm0-15.6h-.8l-7.3.5v.8c1.7.3,2.7,1.1,2.7,2.7V55.1a46.46,46.46,0,0,0,8.7.7c8.7,0,12.1-4.6,12.1-10.1,0-5.2-3.7-9.3-8.5-9.3-2.6,0-4.7,1-6.9,3.3Z"/><path class="cls-1" d="M137.22,43.5c.1-3.4,1.6-5.7,3.8-5.7s3.8,2.4,4,5.7Zm13.6,1.1a9,9,0,0,0-9.4-8.1,9.74,9.74,0,0,0-10,9.8c0,5.5,4.2,9.5,9.8,9.5a10.22,10.22,0,0,0,9.6-6.2H150c-1.7,2.6-3.8,3.9-6.4,3.9-3.3,0-6.6-3-6.4-8.9Z"/><path class="cls-1" d="M167.92,43.4c-1.6-1.5-2.8-2.3-4-2.3-1.6,0-2.6.7-4,2.6V51c0,2.1.4,2.8,3,3.3v.8h-11.4v-.8c2.4-.6,3-1.3,3-3.3V41.6c0-2.3-1-3.3-3.3-3.5v-.8l7.8-.7h.8v5.7h.1c1.8-3.9,3.7-5.7,5.9-5.7a4.22,4.22,0,0,1,3.2,1.5Z"/><path class="cls-1" d="M198.22,37.2V38c2.3.5,2.8,1.9,1.2,5.7l-2.5,5.7-3.8-7.8c-1.1-2.3-1.1-3.3.9-3.6v-.8h-15.9V30.3h-.8a35.49,35.49,0,0,1-7.7,7.5v.9h3.2V50.2c0,4.1,2.7,5.7,6.1,5.7a5.8,5.8,0,0,0,5.7-3.2l-.6-.5a3.42,3.42,0,0,1-2.6,1.4c-2.5,0-3.3-1.7-3.3-4.6V38.6h4.8c2.6,0,3.4.9,4.5,3.4l6.5,13.8c-2.2,5.9-4.1,8.3-7.4,8.3a5.94,5.94,0,0,1-2.4-.4L183,69.1a8.64,8.64,0,0,0,1.5.1c3.7,0,5.7-1.6,7.6-5.9l9-20.6c1.5-3.3,2-4,4.3-4.6v-.8h-7.2Z"/><path class="cls-1" d="M250,50.1c.3,2.4,1.5,3.8,4.2,4.3v.8h-13.7v-.8c3-.8,3.6-2.5,3-6.1l-2.3-15.9h-.1l-9,22.8h-1l-8.9-22.8h-.1l-2.4,16.3c-.5,3.2.1,5.4,3.3,5.6v.8h-10.1v-.8c3-.1,4.3-1.8,4.9-6.1l2.8-18.1a6,6,0,0,0-4-1.9v-.8h10l7.3,18.3,7.4-18.3h9.4v.9c-2.8.5-3.5,2-3.1,4.5Z"/><path class="cls-1" d="M256.42,41.3c0-2-.7-2.7-2.8-3.1v-.8l7.4-.7h.8V49.9c0,2.1,1.4,3.1,3.3,3.1s2.9-.8,4.5-3.2V40.9c0-1.5-1-2.3-2.8-2.7v-.8l7.4-.7h.8V50.9c0,2.4.5,2.9,2.9,3.6v.8l-8.2.7V51.6h-.1c-2,3-4.2,4.4-7.1,4.4-3.7,0-5.9-2-5.9-5.5V41.3Z"/><path class="cls-1" d="M281.92,38.8h-3.2v-.9a33.27,33.27,0,0,0,7.7-7.5h.9v6.9h5.9v1.4h-5.9V49c0,2.9.8,4.6,3.3,4.6a3.28,3.28,0,0,0,2.6-1.4l.6.5a6.05,6.05,0,0,1-5.7,3.2c-3.4,0-6.1-1.6-6.1-5.7V38.8Z"/><path class="cls-1" d="M296.62,41.3c0-2-.7-2.7-2.8-3.1v-.8l7.4-.7h.8V49.9c0,2.1,1.4,3.1,3.3,3.1s2.9-.8,4.5-3.2V40.9c0-1.5-.9-2.3-2.8-2.7v-.8l7.4-.7h.8V50.9c0,2.4.5,2.9,2.8,3.6v.8l-8.2.7V51.6h-.1c-2,3-4.2,4.4-7.1,4.4-3.7,0-5.9-2-5.9-5.5V41.3Z"/><path class="cls-1" d="M330.22,52.2c-1.2,1.2-2.3,1.9-3.4,1.9-1.5,0-2.5-1.3-2.5-3.2,0-2.4,1.4-3.5,5.8-5.4v6.7Zm5.4-8.9c0-4.9-4-6.7-7.9-6.7-4.2,0-7.1,2.2-8,6.1h.7a5.69,5.69,0,0,1,5.4-3c3.2,0,4.5,1.5,4.5,4.7-4.4,1.6-11.5,2-11.5,6.8,0,2.6,2.4,4.7,5.4,4.7a7.58,7.58,0,0,0,5.6-2.1l.4-.4c.9,1.8,2.1,2.5,4.3,2.5,2.6,0,4.2-1.2,4.4-3.5h-.8c-.2,1.1-.7,1.7-1.4,1.7s-1.1-.7-1.1-2.4Z"/><path class="cls-1" d="M342.62,30.4c0-2.5-.8-3.4-3.4-3.6V26l7.9-.5h.8V50.9c0,2.4.5,2.9,3.2,3.6v.8h-11.9v-.8c2.6-.4,3.4-1.3,3.4-3.6Z"/><path class="cls-1" d="M64.82,36.2c-.2-.3-.7-.1-.7-.1l-8.3,3.2a25.81,25.81,0,0,0-2.2-4.4l2.7-7.4s.3-.7,0-.9-.8.3-.8.3l-4.9,4a23.16,23.16,0,0,0-6.7-4.9c-1-.4-2-.8-3-1.1l-1.5-5.8s-.1-.6-.5-.6-.5.6-.5.6l-1,5.2c-1.1-.1-2.2-.2-3.3-.2a23.49,23.49,0,0,0-9.8,2,14.48,14.48,0,0,0-3.4,2c-.2.1-.3.3-.5.4-1-2.6-1.8-4.7-2-5.4a9.43,9.43,0,0,0,2-3.6,6.35,6.35,0,0,0-.1-3.9,15.77,15.77,0,0,1-.9-2.5,1.37,1.37,0,0,1,.5-1,1.17,1.17,0,0,0-1-1c-.5-.1-.8.1-1.2.1-.1-.2-.3-.2-.2-.8.2-1,2.2-1.5,3.7-2.1a4.66,4.66,0,0,0,3.2-4.5A3.77,3.77,0,0,0,22.32.3a4.56,4.56,0,0,1-1.9,2,3.78,3.78,0,0,1-2.3.4A2.62,2.62,0,0,0,16.82,0a3.39,3.39,0,0,1-3,1.2c-1.6,0-1.7-.4-4-.4-3.3,0-6,2-6.3,4.9A6.34,6.34,0,0,0,4.62,10a7.07,7.07,0,0,0-1.5,1.5,1.26,1.26,0,0,0-1.7-.1,2.2,2.2,0,0,1,.1,1.4A23.57,23.57,0,0,0,0,17.5a5.83,5.83,0,0,0,3.1,5.9,1.66,1.66,0,0,0-.2,1.5,1.22,1.22,0,0,0,1.1.6,1.53,1.53,0,0,0-.3,1.6c.3.7,1.1,1.7,1.7,1.7a10.86,10.86,0,0,0,.4,2.5,2.36,2.36,0,0,0-.4,1.6,1.83,1.83,0,0,0,1.3,1.7,5.82,5.82,0,0,0,.5,1.1,2.25,2.25,0,0,0,1,.9,3.51,3.51,0,0,0,1.8.6,6.66,6.66,0,0,0,1.6-.1c0,.2.1,2,.2,4a48.71,48.71,0,0,0-2.6,16.2h0c0,10.6,3,20.1,8.8,26.2a4.85,4.85,0,0,0,1.3,1,60.32,60.32,0,0,1,4.6-6.6,19.47,19.47,0,0,1,2.4-2.6c1.4-1.2,2.7-2.2,3.9-3.1a34.44,34.44,0,0,1,11.5-5.1c-4.4,2.3-6.8,3.5-10.9,7a42.23,42.23,0,0,0-9.6,11.5,4.4,4.4,0,0,0,2.3,1c.6-.7,3.7-6.3,8.4-10.9,9.6-8.9,20.8-11,26.7-10.9a61.92,61.92,0,0,0,.5-7.6,52.21,52.21,0,0,0-1.3-12.1l7-7.8c-.3-.3.2-.8,0-1.1"/><path class="cls-2" d="M12.52,32.7a4.88,4.88,0,0,0-2.4-.7,4,4,0,0,0-2.4.7.85.85,0,0,1-.2-1.1c.2-.5.5-.5.5-.5l-.3-4.5a15.77,15.77,0,0,1,1.6-1,.75.75,0,0,0,.5-.7,7.69,7.69,0,0,1,1.8,1.8,4.38,4.38,0,0,1,.7,1.9,22.63,22.63,0,0,1-.1,2.5,1.24,1.24,0,0,1,.6.8,1.14,1.14,0,0,1-.3.8"/><path class="cls-2" d="M53.22,46.6a7.89,7.89,0,0,0-1.7-3.7l10.6-4.7Z"/><path class="cls-2" d="M24.12,29l9,8.1a5.93,5.93,0,0,0-2.5,2.9Z"/><path class="cls-2" d="M29.42,45.1a3.49,3.49,0,0,0-.5,1.3,6.53,6.53,0,0,0,0,1.4l-2.7-1.9a15,15,0,0,0-.2-2.2v-.2Z"/><path class="cls-2" d="M14.22,45.9c-.2-.3-1-16.8-1-17.4l.9-.6v-.2a2,2,0,0,1-1.6-.7l-.2-5a4.25,4.25,0,0,1-2.1-.7,1.41,1.41,0,0,1-.3-1.9,6.09,6.09,0,0,0,2.9.7c.2,0,.7.5,1,.6a11.73,11.73,0,0,1,1.1.5,1.23,1.23,0,0,1,.4.8c.1.2,8.3,21.5,8.4,21.7s.6,3.8.6,4.1a25.18,25.18,0,0,0,1.5,3.4,6.66,6.66,0,0,0-4.3,2,15,15,0,0,0-3,5.9c-.1-.6-4.1-12.9-4.3-13.2"/><path class="cls-2" d="M24.62,66.3a21.05,21.05,0,0,1-2.3,8.1,52.1,52.1,0,0,1-3.7,4.9c.8-1.6,1.4-5.6,1.4-8.6,0-2-.6-6.4-.1-9.3a11.19,11.19,0,0,1,3.5-6.8,6.69,6.69,0,0,1,6.4-1.4l2.5,4.7a5.6,5.6,0,0,0-4.3.9c-2.2,1.8-3,4.1-3.4,7.5"/><path class="cls-2" d="M24.92,72.7a42.15,42.15,0,0,0,1.6-6.6c.3-1.7.6-4.1,2.6-5.8a4.27,4.27,0,0,1,3.3-.7l2.8,5.8a1.88,1.88,0,0,0,1.7.8c-2.7.8-9.4,4-12,6.5"/><path class="cls-2" d="M49.12,54.2a1.65,1.65,0,0,0,0,1.9c.3.5,1.8,3.3,1.8,3.3a13.67,13.67,0,0,0,1.3,2.7h2.6c-1-2.2-3.3-6.5-3.3-6.5l-.2-3.5a10.82,10.82,0,0,0-2.2,2.1"/><path class="cls-2" d="M37,35.7a11,11,0,0,1,4.5.4l-2.6-14.6Z"/><path class="cls-2" d="M15.32,22.1c-.1-.2-.2-.7-.4-.8s-.8-.4-1.1-.5-.8-.6-1-.6a6.83,6.83,0,0,1-2.9-.7,1.47,1.47,0,0,0,.3,1.9,4.67,4.67,0,0,0,2.1.7l.2,5.1c.2.4,1,.6,1.6.6V28l-.9.6c0,.6.8,17.1,1,17.4s4.2,12.6,4.3,13.3a15,15,0,0,1,3-5.9,6.37,6.37,0,0,1,4.3-2,25.18,25.18,0,0,1-1.5-3.4c0-.3-.5-3.8-.6-4.1s-8.3-21.5-8.4-21.8"/><path class="cls-2" d="M10.12,18.1a5.58,5.58,0,0,1,4,1.5,2.21,2.21,0,0,0-.8-2.1,5.21,5.21,0,0,0-3.3-.9,4.56,4.56,0,0,0-2.9.9,2,2,0,0,0-.6,2c.2-.6,1.7-1.4,3.6-1.4"/><path class="cls-2" d="M5.92,6a3.75,3.75,0,0,0,.6,2.4c.2.3.8.9,1.2.9.6,0,1.1-1.1,2.5-1.1.9,0,1.5,1.3,2.2,1.3s.9-.5,1.5-.6.7.2,1,.5c.2-.5.5-.8,1.3-1.4s4-1.3,5.4-2.5a2.44,2.44,0,0,0,.6-2.4,4.48,4.48,0,0,1-3.3,1.5A9.37,9.37,0,0,1,16,4a1.54,1.54,0,0,0,.1-1.6,9.59,9.59,0,0,1-3.1.5,29.17,29.17,0,0,0-3.3-.2A3.66,3.66,0,0,0,5.92,6"/><path class="cls-2" d="M10.22,13.7c5.4.1,7.8,2.6,7.9,4.6a4,4,0,0,0,.2-1.9,26.72,26.72,0,0,0-.9-2.6,5.07,5.07,0,0,1,.2-1.3c-.3.1-1.5.5-2,.1s-.2-1.5-.9-1.8-1.8.6-2.6.5-1.3-1.1-2.1-1.1-1.1.9-2,1.1c-.7.2-1.6-.3-2-.2s-.7.4-.9.8a1.45,1.45,0,0,1-.9.8c-.4.1-1.1-.3-1.4-.2a2.13,2.13,0,0,1,.1,1.8A6.3,6.3,0,0,0,2,16.7a3.06,3.06,0,0,0,.4,1.7c-.1-2.9,3.1-4.8,7.8-4.7"/><path class="cls-2" d="M6.82,24a3,3,0,0,0-1.5,1.3,3.36,3.36,0,0,0,1,1.6,4.68,4.68,0,0,1,.8-1.4A9,9,0,0,1,8,25a.55.55,0,0,0,.4-.6,1.2,1.2,0,0,0-.2-.8c.3,0,.8,0,.9-.2a1.14,1.14,0,0,0,.3-.8c0-.3-.1-.4-.4-.4a8.53,8.53,0,0,0-1.6,0s.7-.4.9-.5a.55.55,0,0,0,.3-.5,4.14,4.14,0,0,0-.1-1,6.64,6.64,0,0,0-3.3,1.4l.4.9h-.7a2.85,2.85,0,0,0,.2,1.6,10.9,10.9,0,0,1,1.7-.1"/><path class="cls-2" d="M50.82,45.3c-.1-.7-1.8-2.6-4.6-4.8-2.2-1.7-5.4-3.3-8.1-3.3a6.54,6.54,0,0,0-6.7,4.7,5.64,5.64,0,0,0,0,2.6,2.72,2.72,0,0,0-1.1,1.8,1.92,1.92,0,0,0,.5,1.7,3.26,3.26,0,0,1,.8-1.9c.4-.6,1.1-.8,1.7-1.2l.1,1.2c-.6.3-1.3,1-1.3,1.4v2l1.5-.9.3.6-.6,3.6.9-.2,1.6.6-1.5,1.4v.5a.94.94,0,0,1,.8-.3,8.54,8.54,0,0,1,1.9.6l-.1.3h-2.7c-.1.4.2.6.4.8a9.2,9.2,0,0,1,.9-.3,6.53,6.53,0,0,1,1.1.2l-.5.7a.94.94,0,0,1-.7.1c-.3-.1-.5.3-.5.6a7.47,7.47,0,0,0,.2,1.1,1.35,1.35,0,0,0,1.6.9c.7-.1,3.2-.9,3.2-.9l-2.3,3.3,1,3.5a56.34,56.34,0,0,1,11.1-3.1c-.5-.9-.6-1.3-1.3-2.6l-2.6-5.9.4-.9a2.38,2.38,0,0,0,2-.7,8,8,0,0,0,1.5-1.8.76.76,0,0,0-1,.1c-.3.2-.5.6-1,.4s-.2-.7-.2-1.2-.5-.5-.9-.1-1.3.2-1.8-.4a51.55,51.55,0,0,0-4.2-3.4,7.67,7.67,0,0,0-4.6-.8c-.8.1-1.4.5-1.7.3l-1-1.6.2-.1a1.68,1.68,0,0,0,1.2.3,10.82,10.82,0,0,1,3.3-.5,16.1,16.1,0,0,1,5.6,1.2c0,1.3,2.7,3,3.9,3.2a3,3,0,0,0,2.2-.5l-2.6-2.3,1.4-1.7s2.2,2.1,2.5,2.5a4.5,4.5,0,0,0-.2-.8M35.22,48a11.87,11.87,0,0,1,2.2-.9,5.85,5.85,0,0,1,4.5,1.6l-.2.4-1.8.4a2.67,2.67,0,0,0-1.7-.4,2.39,2.39,0,0,0-1.1.3l.3.6-.8.2a3.92,3.92,0,0,0-1.4-1.2Zm-2.7-4.1c-.5-1.5.8-3.1,1.3-3.6l.9,2a8.88,8.88,0,0,0-2.2,1.6m8.1-1.7c-.8-.6-3.5-.5-4.6-.2l-.8-2.4a5,5,0,0,1,2.9-.8,7.83,7.83,0,0,1,3.1.7Zm5.3,2.4a24.66,24.66,0,0,0-4-2l1-2.5a35.2,35.2,0,0,1,4.3,2.7Z"/><path class="cls-2" d="M45.52,37.9a29.6,29.6,0,0,1,3.7,2.6L54.62,29Z"/><path class="cls-1" d="M356.52,48.9a3.2,3.2,0,1,1-3.1,3.2,3.14,3.14,0,0,1,3.1-3.2m0,5.7a2.5,2.5,0,1,0-2.4-2.5,2.45,2.45,0,0,0,2.4,2.5m-1.2-4.2h1.3c.9,0,1.3.3,1.3,1a.84.84,0,0,1-.9.9l.9,1.5h-.6l-.9-1.5h-.5v1.5h-.6Zm.7,1.5h.6c.4,0,.7-.1.7-.5s-.4-.5-.7-.5H356Z"/><rect class="cls-1" x="71.72" y="65.1" width="108.5" height="1.1"/><rect class="cls-1" x="195.12" y="65.1" width="156.5" height="1.1"/><path class="cls-1" d="M134.22,75.7H137V90.8h-2.8Z"/><path class="cls-1" d="M145.42,75.7H148l6.3,10.7h0V75.7h2.6V90.8h-2.6L148,80.1h0V90.8h-2.6Z"/><path class="cls-1" d="M165.92,86.3a5.26,5.26,0,0,0,4.6,2.3c1.4,0,3.2-.5,3.2-1.9,0-1.2-1.1-1.5-3.1-2l-1.7-.4c-2.4-.6-4.5-1.4-4.5-4.2,0-3.2,3-4.7,5.8-4.7a7.68,7.68,0,0,1,6.3,3l-2.4,1.8a4.17,4.17,0,0,0-4-2.2c-1.6,0-2.9.6-2.9,1.7,0,1.3,1.4,1.5,3.1,1.9l1.8.4c2.2.5,4.4,1.4,4.4,4.3,0,3.7-3.5,5-6.6,5a7.83,7.83,0,0,1-6.5-3.2Z"/><path class="cls-1" d="M196.12,86.2c0,3.1-2.4,5-6.1,5s-6.1-2-6.1-5V75.8h2.8v9.7c0,1.8.8,3,3.2,3s3.2-1.2,3.2-3V75.8h2.8V86.2Z"/><path class="cls-1" d="M204.22,75.7h6.3c3.2,0,5.1,1.9,5.1,4.6a4.35,4.35,0,0,1-3,4.5l3.4,6.1h-3.3l-2.9-5.6h-2.7v5.6h-2.8V75.7Zm2.8,7.1h3.1a2.26,2.26,0,0,0,2.5-2.3c0-1.4-.9-2.3-2.9-2.3H207v4.6Z"/><path class="cls-1" d="M226.62,75.7h3.3l5,15.1h-3l-.9-2.9h-5.7l-.9,2.9h-3Zm1.6,2.8h0l-2.1,6.9h4.2Z"/><path class="cls-1" d="M241.32,75.7h2.6l6.3,10.7h0V75.7h2.6V90.8h-2.5L244,80.1h0V90.8h-2.7Z"/><path class="cls-1" d="M270.72,80.8a3.18,3.18,0,0,0-3.3-2.8c-3,0-4.3,2.7-4.3,5.3s1.3,5.3,4.3,5.3c2,0,3.1-1.3,3.6-3.1l2.6,1.2c-1.2,3-3.2,4.5-6.2,4.5-4.8,0-7.2-3.7-7.2-7.9s2.7-7.9,7.2-7.9a5.92,5.92,0,0,1,6.1,4.7Z"/><path class="cls-1" d="M279.72,75.7h10.7v2.6h-7.8v3.4h7.2v2.5h-7.2v3.9H291v2.6h-11.2v-15Z"/></g></g></svg>