<svg width="50" height="50" viewBox="0 0 50 50" fill="none" xmlns="http://www.w3.org/2000/svg">
<g clip-path="url(#clip0_1895_14449)">
<path d="M20.9474 4.47925C20.9474 4.47925 25.0757 5.35388 28.4693 4.47925C28.4693 4.47925 28.7491 9.37722 26.9299 9.37722H22.8234C22.8234 9.37722 20.6413 9.30724 20.9474 4.47925Z" fill="white"/>
<path d="M26.9299 9.56536H22.8234C22.7941 9.56449 22.2405 9.54026 21.7096 8.95595C20.9439 8.11351 20.6243 6.60337 20.7598 4.46739C20.7615 4.44045 20.7689 4.4142 20.7817 4.39041C20.7944 4.36662 20.8122 4.34586 20.8337 4.32953C20.8552 4.31321 20.8799 4.30171 20.9063 4.29581C20.9326 4.28991 20.9599 4.28975 20.9863 4.29534C21.0271 4.3039 25.1122 5.15031 28.4223 4.29723C28.4492 4.29029 28.4774 4.28939 28.5047 4.29461C28.5319 4.29984 28.5577 4.31104 28.5802 4.32742C28.6026 4.34381 28.6212 4.36496 28.6345 4.38937C28.6478 4.41377 28.6555 4.44082 28.6571 4.46856C28.6654 4.61414 28.8485 8.04817 27.7753 9.18436C27.6693 9.30397 27.5392 9.39977 27.3935 9.46544C27.2477 9.53111 27.0898 9.56516 26.9299 9.56536ZM21.1231 4.70438C21.0061 7.06928 21.5175 8.17571 21.9752 8.68887C22.3972 9.16211 22.8136 9.1885 22.8312 9.18945L26.9299 9.18924C27.0385 9.18884 27.1458 9.16515 27.2445 9.11977C27.3431 9.0744 27.4309 9.00839 27.5019 8.9262C28.3188 8.06128 28.3122 5.49614 28.2903 4.71684C25.3824 5.39504 21.998 4.8633 21.1231 4.70438Z" fill="#3A56A6"/>
<path d="M21.4444 8.29969L21.3396 7.93853C22.6525 7.55806 22.6366 6.15506 22.6354 6.09549L23.0112 6.08594C23.0119 6.10338 23.0392 7.83761 21.4444 8.29969Z" fill="#3A56A6"/>
<path d="M28.1225 8.29979C26.5276 7.8377 26.555 6.10343 26.5555 6.08594L26.9314 6.09549C26.9302 6.15507 26.9143 7.55806 28.2271 7.93853L28.1225 8.29979Z" fill="#3A56A6"/>
<path d="M44.1763 15.2036C44.1763 15.2036 44.6709 19.3945 46.587 22.3287C46.587 22.3287 42.0371 24.1636 41.454 22.4404L40.1379 18.5505C40.1379 18.5505 39.5049 16.461 44.1763 15.2036Z" fill="white"/>
<path d="M42.9513 23.3648C42.5943 23.3772 42.2387 23.314 41.9078 23.1793C41.7605 23.1172 41.6281 23.0246 41.5192 22.9077C41.4103 22.7907 41.3274 22.6519 41.276 22.5006L39.9598 18.6107C39.9512 18.5827 39.7968 18.0506 40.18 17.3604C40.7326 16.365 42.0608 15.5783 44.1274 15.0221C44.1535 15.0151 44.1808 15.0138 44.2074 15.0182C44.234 15.0227 44.2593 15.0328 44.2817 15.048C44.304 15.0631 44.3229 15.0829 44.3369 15.1059C44.3509 15.129 44.3598 15.1548 44.363 15.1816C44.368 15.2231 44.8754 19.3638 46.7444 22.226C46.7596 22.2493 46.7695 22.2756 46.7733 22.3031C46.777 22.3307 46.7747 22.3587 46.7663 22.3852C46.758 22.4117 46.7439 22.4361 46.725 22.4565C46.7061 22.4769 46.683 22.4928 46.6572 22.5032C46.5495 22.5466 44.4985 23.3648 42.9513 23.3648ZM44.0194 15.4421C41.7418 16.0893 40.8576 16.9284 40.5182 17.5263C40.2051 18.0777 40.3136 18.4807 40.3184 18.4976L41.6321 22.3801C41.6673 22.4828 41.7241 22.5768 41.7987 22.6557C41.8733 22.7346 41.9639 22.7966 42.0645 22.8375C43.1451 23.3341 45.5731 22.5058 46.3044 22.2351C44.7303 19.6985 44.1491 16.3217 44.0194 15.4421Z" fill="#3A56A6"/>
<path d="M42.4842 17.8022C42.1374 17.8123 41.7936 17.7349 41.4847 17.577C41.1757 17.4191 40.9115 17.1859 40.7166 16.8989L41.0251 16.6838C41.8102 17.8111 43.1722 17.3259 43.1859 17.3207L43.3159 17.6736C43.0471 17.7597 42.7665 17.803 42.4842 17.8022Z" fill="#3A56A6"/>
<path d="M42.8568 23.2227C42.8048 21.6465 44.2753 21.0969 44.2901 21.0916L44.418 21.4453L44.354 21.2684L44.4184 21.4451C44.3682 21.4636 43.1899 21.9113 43.2327 23.2104L42.8568 23.2227Z" fill="#3A56A6"/>
<path d="M5.81742 15.2036C5.81742 15.2036 5.32285 19.3945 3.40674 22.3287C3.40674 22.3287 7.95665 24.1636 8.5397 22.4404L9.85578 18.5505C9.85578 18.5505 10.4889 16.461 5.81742 15.2036Z" fill="white"/>
<path d="M7.04255 23.3648C5.49531 23.3648 3.44427 22.5466 3.33645 22.5032C3.31068 22.4928 3.28753 22.4768 3.26868 22.4564C3.24982 22.436 3.23572 22.4116 3.22739 22.3851C3.21907 22.3586 3.21672 22.3306 3.22051 22.3031C3.22431 22.2755 3.23416 22.2492 3.24936 22.2259C5.11846 19.3637 5.62587 15.2231 5.63075 15.1816C5.63393 15.1548 5.64285 15.129 5.65689 15.1059C5.67093 15.0829 5.68976 15.0631 5.71212 15.048C5.73447 15.0328 5.75981 15.0227 5.78643 15.0182C5.81305 15.0138 5.84032 15.0151 5.86638 15.0221C7.93304 15.5783 9.26118 16.365 9.81379 17.3604C10.197 18.0506 10.0426 18.5827 10.0358 18.605L8.71787 22.5006C8.66647 22.6519 8.58361 22.7906 8.47473 22.9076C8.36585 23.0246 8.23343 23.1172 8.08617 23.1793C7.75525 23.314 7.39961 23.3772 7.04255 23.3648ZM3.68922 22.2352C4.42066 22.5058 6.84923 23.3339 7.92927 22.8376C8.02985 22.7967 8.12049 22.7347 8.19507 22.6558C8.26966 22.5769 8.32647 22.4829 8.36166 22.3802L9.67776 18.4902C9.68017 18.4808 9.78862 18.0778 9.47563 17.5263C9.13625 16.9284 8.25209 16.0894 5.97442 15.4422C5.84465 16.3217 5.26357 19.6985 3.68922 22.2352Z" fill="#3A56A6"/>
<path d="M7.50959 17.8021C7.22738 17.8031 6.94676 17.7597 6.67798 17.6737L6.80756 17.3206C6.8635 17.3409 8.18742 17.8055 8.96864 16.6838L9.27732 16.8989C9.08233 17.1859 8.81814 17.4191 8.50917 17.577C8.2002 17.7348 7.85641 17.8123 7.50959 17.8021Z" fill="#3A56A6"/>
<path d="M7.13702 23.2225L6.76118 23.2101C6.80426 21.9041 5.58818 21.4495 5.57593 21.4451L5.70369 21.0913C5.71856 21.0967 7.1891 21.6464 7.13702 23.2225Z" fill="#3A56A6"/>
<path d="M9.88303 38.7775L10.9764 37.9954C10.9764 37.9954 16.0143 42.6134 18.1484 43.1032H14.0157L13.2155 45.5872C13.2155 45.5872 9.21044 42.7185 8.90392 42.0012C8.5974 41.284 9.88303 38.7775 9.88303 38.7775Z" fill="white"/>
<path d="M13.2156 45.7754C13.1763 45.7753 13.138 45.763 13.1061 45.7401C12.6918 45.4434 9.04914 42.8193 8.73111 42.0752C8.39947 41.2992 9.58007 38.9564 9.71577 38.6918C9.72944 38.6652 9.74929 38.6422 9.77367 38.6247L10.867 37.8425C10.9021 37.8174 10.9448 37.8051 10.9878 37.8077C11.0309 37.8103 11.0718 37.8277 11.1035 37.8569C11.1536 37.9027 16.1291 42.4469 18.1905 42.92C18.2356 42.9304 18.2752 42.9569 18.3019 42.9946C18.3286 43.0323 18.3405 43.0786 18.3353 43.1245C18.3302 43.1704 18.3082 43.2128 18.2738 43.2436C18.2393 43.2744 18.1947 43.2914 18.1485 43.2914H14.1529L13.3946 45.645C13.3824 45.6829 13.3585 45.7159 13.3263 45.7393C13.2941 45.7627 13.2554 45.7754 13.2156 45.7754ZM10.0298 38.9039C9.54958 39.8493 8.88187 41.4709 9.07694 41.9274C9.2759 42.393 11.5752 44.1694 13.1158 45.2837L13.8368 43.0456C13.849 43.0078 13.8729 42.9748 13.9051 42.9513C13.9372 42.9279 13.976 42.9153 14.0158 42.9153H17.1526C14.9615 41.8101 11.6319 38.8427 10.9623 38.2368L10.0298 38.9039Z" fill="#3A56A6"/>
<path d="M11.1638 37.9793L10.7891 38.0115L10.973 40.1533L11.3478 40.1211L11.1638 37.9793Z" fill="#3A56A6"/>
<path d="M40.0183 38.7775L38.925 37.9954C38.925 37.9954 33.887 42.6134 31.7529 43.1032H35.8856L36.6859 45.5872C36.6859 45.5872 40.6909 42.7185 40.9974 42.0012C41.304 41.284 40.0183 38.7775 40.0183 38.7775Z" fill="white"/>
<path d="M36.6859 45.7752C36.6461 45.7752 36.6073 45.7625 36.5752 45.7391C36.543 45.7157 36.5191 45.6827 36.5069 45.6448L35.7485 43.2912H31.753C31.7068 43.2912 31.6622 43.2742 31.6277 43.2434C31.5932 43.2126 31.5713 43.1702 31.5661 43.1243C31.5609 43.0784 31.5728 43.0321 31.5996 42.9944C31.6263 42.9567 31.6659 42.9302 31.711 42.9198C33.7728 42.4466 38.7479 37.9025 38.7978 37.8567C38.8295 37.8275 38.8704 37.8101 38.9135 37.8075C38.9566 37.8049 38.9992 37.8172 39.0343 37.8423L40.1278 38.6245C40.1521 38.642 40.172 38.665 40.1857 38.6916C40.3214 38.9562 41.502 41.299 41.1704 42.0751C40.8523 42.8191 37.2097 45.4432 36.7953 45.74C36.7634 45.7628 36.7252 45.7751 36.6859 45.7752ZM32.7489 42.9151H35.8857C35.9255 42.9151 35.9642 42.9277 35.9964 42.9511C36.0286 42.9746 36.0525 43.0076 36.0647 43.0455L36.7856 45.2835C38.3262 44.1692 40.6255 42.3928 40.8246 41.9272C41.0198 41.4705 40.352 39.849 39.8718 38.9037L38.939 38.2365C38.2695 38.8425 34.9399 41.8099 32.7489 42.9151Z" fill="#3A56A6"/>
<path d="M38.7376 37.9792L38.5537 40.1211L38.9285 40.1533L39.1124 38.0114L38.7376 37.9792Z" fill="#3A56A6"/>
<path d="M43.0759 17.5576L45.4691 16.6764C45.6968 16.5936 45.9041 16.4628 46.077 16.293C46.2499 16.1232 46.3843 15.9182 46.4712 15.692C46.5581 15.4658 46.5954 15.2236 46.5807 14.9817C46.566 14.7398 46.4995 14.5039 46.3858 14.2899C44.6441 11.0741 42.2001 8.29221 39.2354 6.15083C36.2708 4.00946 32.8617 2.56369 29.2615 1.92097C28.953 1.86641 28.6364 1.88007 28.3338 1.96099C28.0312 2.0419 27.7501 2.18811 27.51 2.38933C27.27 2.59055 27.077 2.8419 26.9445 3.12571C26.812 3.40952 26.7433 3.71891 26.7432 4.03212V6.05055C30.2383 6.35854 33.5899 7.58511 36.4582 9.60594C39.3265 11.6268 41.6096 14.37 43.0759 17.5576Z" fill="white"/>
<path d="M43.076 17.7457C43.0401 17.7457 43.0048 17.7354 42.9746 17.716C42.9443 17.6966 42.9202 17.669 42.9052 17.6363C41.4508 14.4802 39.1888 11.7642 36.3481 9.76269C33.5073 7.76121 30.1884 6.54532 26.7269 6.23794C26.6801 6.23388 26.6364 6.21238 26.6046 6.1777C26.5728 6.14302 26.5552 6.09767 26.5552 6.05062V4.03215C26.5553 3.69148 26.63 3.35497 26.7741 3.04627C26.9182 2.73757 27.1282 2.46418 27.3893 2.24531C27.6503 2.02644 27.9562 1.86741 28.2853 1.7794C28.6144 1.69138 28.9588 1.67651 29.2942 1.73584C32.9223 2.38349 36.3578 3.8404 39.3454 5.99832C42.333 8.15624 44.796 10.9597 46.5512 14.2003C46.6779 14.4348 46.7526 14.6939 46.7703 14.9599C46.788 15.2258 46.7482 15.4925 46.6537 15.7417C46.5577 15.9965 46.4081 16.2275 46.2149 16.4193C46.0218 16.611 45.7896 16.7589 45.5342 16.8529L43.1411 17.7342C43.1203 17.7418 43.0982 17.7458 43.076 17.7457ZM26.9313 5.87898C30.3976 6.21688 33.7167 7.44902 36.5638 9.4548C39.411 11.4606 41.6885 14.1712 43.1735 17.3215L45.4041 16.5001C45.6089 16.4247 45.7951 16.3061 45.95 16.1523C46.1048 15.9986 46.2248 15.8133 46.3017 15.6091C46.3772 15.4104 46.4091 15.1977 46.3951 14.9855C46.3811 14.7734 46.3215 14.5668 46.2205 14.3797C44.4923 11.1888 42.0672 8.42839 39.1256 6.30354C36.1839 4.17869 32.8012 2.74404 29.2288 2.10619C28.9474 2.05643 28.6586 2.06889 28.3825 2.14271C28.1065 2.21653 27.85 2.34991 27.631 2.53347C27.412 2.71704 27.2359 2.94634 27.115 3.20525C26.9941 3.46417 26.9314 3.74641 26.9313 4.03215V5.87898Z" fill="#3A56A6"/>
<path d="M20.2861 2.00622C16.7726 2.70271 13.4561 4.1659 10.5731 6.29144C7.69008 8.41697 5.31161 11.1525 3.60732 14.3029C3.49392 14.5168 3.42773 14.7526 3.4132 14.9942C3.39868 15.2359 3.43617 15.4779 3.52314 15.7039C3.61011 15.9298 3.74453 16.1345 3.91734 16.3041C4.09016 16.4737 4.29733 16.6042 4.52489 16.6869L6.92039 17.569C8.35452 14.4455 10.5731 11.7466 13.36 9.73509C16.147 7.72363 19.4073 6.46816 22.8235 6.09093V4.11354C22.8244 3.79839 22.7556 3.48693 22.6221 3.20145C22.4886 2.91598 22.2936 2.66353 22.0512 2.46218C21.8087 2.26083 21.5248 2.11555 21.2196 2.03673C20.9145 1.9579 20.5957 1.94749 20.2861 2.00622Z" fill="white"/>
<path d="M6.92014 17.757C6.898 17.757 6.87603 17.7531 6.85525 17.7454L4.45986 16.8634C4.20449 16.7694 3.97234 16.6215 3.77917 16.4299C3.586 16.2382 3.43633 16.0072 3.34032 15.7526C3.24583 15.5037 3.20599 15.2375 3.2235 14.9719C3.24102 14.7063 3.31547 14.4476 3.44182 14.2133C5.15323 11.0338 7.54834 8.27332 10.4547 6.13061C13.3611 3.9879 16.7064 2.51626 20.2498 1.82166C20.5837 1.75605 20.9281 1.76545 21.2579 1.84918C21.5878 1.93291 21.895 2.08888 22.1572 2.30581C22.4247 2.525 22.64 2.80089 22.7878 3.11353C22.9355 3.42617 23.0119 3.76774 23.0115 4.11353V6.09086C23.0115 6.13722 22.9944 6.18194 22.9634 6.21644C22.9324 6.25094 22.8898 6.27279 22.8437 6.27778C19.462 6.65853 16.2356 7.90492 13.4762 9.89655C10.7168 11.8882 8.51764 14.5578 7.0911 17.6474C7.07606 17.6801 7.05197 17.7078 7.02167 17.7272C6.99137 17.7466 6.95613 17.757 6.92014 17.757ZM20.6931 2.15451C20.5686 2.15453 20.4444 2.16664 20.3222 2.19066C16.8332 2.87451 13.5392 4.32355 10.6775 6.43343C7.81576 8.54331 5.45752 11.2615 3.77257 14.3923C3.67191 14.5792 3.61264 14.7855 3.59877 14.9973C3.5849 15.2091 3.61677 15.4214 3.69221 15.6198C3.76917 15.8239 3.88917 16.0091 4.04404 16.1628C4.19891 16.3165 4.38503 16.435 4.58977 16.5104L6.82268 17.3326C8.27907 14.2492 10.4934 11.5854 13.2587 9.59006C16.024 7.59473 19.25 6.33303 22.6353 5.92287V4.11353C22.6357 3.8233 22.5715 3.53662 22.4475 3.27422C22.3235 3.01182 22.1427 2.78027 21.9182 2.59632C21.5735 2.31125 21.1404 2.15505 20.6931 2.15451Z" fill="#3A56A6"/>
<path d="M5.64349 21.2732L2.91301 20.8697C2.68799 20.836 2.45853 20.847 2.23775 20.902C2.01697 20.957 1.80919 21.055 1.62627 21.1903C1.44335 21.3256 1.28888 21.4956 1.17167 21.6906C1.05446 21.8856 0.976808 22.1018 0.943156 22.3269C0.77297 23.4967 0.687699 24.6774 0.688012 25.8595C0.679614 31.8926 2.92305 37.7116 6.9792 42.1777C7.17797 42.3952 7.45284 42.5279 7.74682 42.5483C8.0408 42.5686 8.33134 42.4751 8.55819 42.287L11.1604 40.1374C8.68657 37.7395 6.87765 34.7405 5.9106 31.4339C4.94355 28.1272 4.85152 24.6261 5.64349 21.2732Z" fill="white"/>
<path d="M7.82415 42.7401C7.63869 42.7404 7.45524 42.7017 7.28568 42.6266C7.11613 42.5514 6.96426 42.4415 6.83991 42.3039C2.75527 37.8014 0.494922 31.9385 0.500009 25.8594C0.500016 24.6682 0.585921 23.4785 0.757055 22.2996C0.792755 22.0511 0.87747 21.8122 1.00628 21.5966C1.1351 21.3811 1.30544 21.1933 1.50742 21.0442C1.71048 20.8921 1.94174 20.7819 2.18776 20.72C2.43377 20.6581 2.68964 20.6457 2.94049 20.6835L5.67101 21.087C5.69678 21.0908 5.72147 21.0999 5.74352 21.1138C5.76558 21.1276 5.78451 21.1459 5.79914 21.1675C5.81376 21.189 5.82375 21.2134 5.82847 21.239C5.83319 21.2646 5.83254 21.2909 5.82656 21.3163C5.47565 22.8052 5.29849 24.3297 5.2986 25.8594C5.29043 28.4993 5.81721 31.1135 6.84717 33.5443C7.87712 35.975 9.38889 38.1718 11.2912 40.0022C11.3102 40.0206 11.3251 40.0428 11.3349 40.0674C11.3448 40.0919 11.3493 40.1183 11.3483 40.1447C11.3472 40.1711 11.3406 40.1971 11.3288 40.2207C11.3171 40.2444 11.3005 40.2654 11.2801 40.2822L8.67791 42.4319C8.43797 42.631 8.13598 42.7401 7.82415 42.7401ZM2.65537 21.0386C2.32242 21.0386 1.99842 21.1464 1.73189 21.346C1.56971 21.4657 1.43292 21.6165 1.32947 21.7895C1.22602 21.9626 1.15797 22.1544 1.12927 22.354C0.960712 23.5149 0.876111 24.6864 0.876129 25.8595C0.871131 31.8452 3.09672 37.618 7.11855 42.0513C7.28447 42.2336 7.51439 42.3448 7.76032 42.3617C8.00625 42.3786 8.2492 42.2998 8.43848 42.1419L10.8795 40.1254C8.98555 38.2648 7.48286 36.0442 6.45984 33.5942C5.43682 31.1442 4.91414 28.5144 4.92254 25.8594C4.92248 24.3691 5.08747 22.8833 5.41449 21.4293L2.88556 21.0556C2.80935 21.0443 2.73241 21.0386 2.65537 21.0386Z" fill="#3A56A6"/>
<path d="M49.0564 22.3216C48.9884 21.8672 48.7426 21.4584 48.3732 21.1851C48.0038 20.9119 47.541 20.7965 47.0865 20.8645L44.3543 21.2683C45.1536 24.6434 45.0564 28.1689 44.0723 31.4948C43.0882 34.8207 41.2515 37.8314 38.7444 40.2282L41.1305 42.5055C41.2392 42.61 41.3675 42.6919 41.5079 42.7466C41.6484 42.8014 41.7983 42.8278 41.949 42.8243C42.0997 42.8209 42.2482 42.7877 42.386 42.7267C42.5238 42.6656 42.6482 42.5779 42.752 42.4686C46.9741 37.9696 49.3204 32.0292 49.3121 25.8594C49.3125 24.6755 49.227 23.4931 49.0564 22.3216Z" fill="white"/>
<path d="M41.9257 43.0126C41.5809 43.0134 41.2493 42.8804 41.0006 42.6416L38.6145 40.3643C38.5961 40.3468 38.5814 40.3257 38.5714 40.3023C38.5614 40.279 38.5562 40.2538 38.5562 40.2284C38.5561 40.203 38.5613 40.1778 38.5712 40.1545C38.5812 40.1311 38.5958 40.11 38.6142 40.0924C40.5452 38.2601 42.0813 36.0523 43.1281 33.6048C44.1749 31.1572 44.7102 28.5215 44.7013 25.8595C44.7011 24.3281 44.5232 22.802 44.1711 21.3117C44.1651 21.2863 44.1644 21.26 44.1691 21.2344C44.1738 21.2088 44.1838 21.1844 44.1984 21.1628C44.213 21.1413 44.232 21.123 44.254 21.1091C44.2761 21.0953 44.3008 21.0862 44.3266 21.0824L47.0589 20.6786C47.3084 20.6413 47.5627 20.6535 47.8075 20.7145C48.0522 20.7756 48.2826 20.8842 48.4853 21.0343C48.6881 21.1843 48.8593 21.3729 48.9891 21.5891C49.119 21.8053 49.205 22.045 49.2422 22.2945C49.4139 23.4751 49.5 24.6665 49.5 25.8595C49.5086 32.077 47.1441 38.0635 42.8891 42.5971C42.7704 42.7244 42.6275 42.8266 42.4687 42.8979C42.31 42.9691 42.1386 43.0079 41.9646 43.012C41.9515 43.0125 41.9386 43.0126 41.9257 43.0126ZM39.0158 40.2274L41.2602 42.3695C41.3524 42.4577 41.4612 42.5267 41.5803 42.5725C41.6994 42.6183 41.8264 42.6399 41.954 42.6362C42.0782 42.6333 42.2007 42.6056 42.3141 42.5548C42.4276 42.504 42.5297 42.431 42.6145 42.3401C46.8042 37.8762 49.1324 31.9816 49.124 25.8594C49.124 24.6846 49.0392 23.5113 48.8703 22.3487C48.8415 22.1492 48.7734 21.9573 48.6699 21.7843C48.5664 21.6113 48.4297 21.4605 48.2675 21.3408C48.104 21.2184 47.9178 21.1298 47.7198 21.0799C47.5218 21.0301 47.3158 21.0202 47.1139 21.0506L44.5832 21.4246C44.9115 22.88 45.0773 24.3674 45.0776 25.8594C45.0867 28.5391 44.5546 31.1931 43.5129 33.662C42.4713 36.131 40.9416 38.3641 39.0158 40.2274Z" fill="#3A56A6"/>
<path d="M34.2454 19.2547L38.2819 11.3364H24.9988H24.7013H11.4182L15.4547 19.2547H6.64575L19.6529 43.0799H24.7013H24.9988H30.0472L43.0542 19.2547H34.2454Z" fill="#3A56A6"/>
<path d="M22.3984 21.0224C22.5502 21.0224 22.5906 20.9775 22.5906 20.7416C22.5906 20.5056 22.5603 20.4831 22.4491 20.4719C22.2468 20.4494 22.1862 20.4269 22.1255 20.3595C21.8523 20.0113 20.3049 15.618 19.789 13.9327C19.7688 13.8541 19.7385 13.8203 19.6776 13.8203C19.526 13.8203 19.344 13.9215 18.7066 13.9215C18.5551 13.9215 18.5145 13.9551 18.464 14.0675C18.2719 14.5844 18.0695 15.0899 17.8573 15.5956C17.4222 16.618 16.7244 18.2584 16.2693 19.2696C15.7938 20.3483 15.7332 20.3595 15.3085 20.4719C15.177 20.5056 15.177 20.5954 15.177 20.7978C15.177 21.0001 15.2377 21.0224 15.3387 21.0224C15.7535 21.0224 16.1683 20.9888 16.5828 20.9888C16.9875 20.9888 17.4023 21.0224 17.8067 21.0224C17.9889 21.0224 17.9889 20.9438 17.9889 20.6966C17.9889 20.5168 17.9787 20.4719 17.8371 20.4607C17.2708 20.4269 17.0481 20.4269 17.0481 20.1123C17.0481 19.9438 17.2908 19.2472 17.4426 18.809H19.6072C19.7184 19.1236 20.0116 20.0673 20.0116 20.2135C20.0116 20.4382 19.8296 20.4494 19.4958 20.4831C19.2835 20.5056 19.2835 20.5505 19.2835 20.7978C19.2835 20.9775 19.3137 21.0224 19.4452 21.0224C19.9915 21.0224 20.5477 20.9888 21.0939 20.9888C21.5287 20.9888 21.9635 21.0224 22.3984 21.0224ZM17.6851 18.1236L18.5955 15.6968C18.8181 16.3708 19.1618 17.4495 19.3946 18.1236H17.6851Z" fill="white"/>
<path d="M28.2827 29.0121C28.4243 29.0121 28.4243 28.9559 28.4243 28.6863C28.4243 28.4279 28.3941 28.4279 28.0299 28.4279C27.6557 28.4279 27.514 28.3268 27.4737 28.0122C27.4432 27.7537 27.4432 25.9448 27.4432 25.529C27.4432 25.0459 27.4432 23.8101 27.494 23.0684C27.5242 22.4842 27.7265 22.4617 28.121 22.4055C28.3535 22.3719 28.384 22.3719 28.384 22.091C28.384 21.855 28.3535 21.8438 28.1614 21.8438C27.9085 21.8438 26.7555 21.8662 26.3813 21.8662C25.916 21.8662 25.0362 21.8438 24.8743 21.8438C24.6719 21.8438 24.6719 21.8888 24.6719 22.1696C24.6719 22.4167 24.7125 22.4167 25.0563 22.4167C25.5419 22.428 25.6228 22.5291 25.6328 23.3943V24.8549H23.0435V23.2819C23.0435 22.4841 23.2963 22.4617 23.8124 22.3943C23.964 22.3718 23.964 22.3269 23.964 22.0909C23.964 21.855 23.9338 21.8438 23.7416 21.8438C23.4886 21.8438 22.2647 21.8662 21.9918 21.8662C21.7489 21.8662 20.6667 21.8438 20.5149 21.8438C20.333 21.8438 20.3129 21.8774 20.3129 22.1695C20.3129 22.4055 20.3634 22.4055 20.5758 22.4167C20.9904 22.4393 21.1422 22.4393 21.1927 22.8324C21.2232 23.0796 21.2331 24.046 21.2331 25.0234C21.2331 25.9111 21.2232 26.7986 21.2029 27.1695C21.1826 28.3267 21.1422 28.3717 20.5251 28.4391C20.2723 28.4727 20.252 28.4727 20.252 28.7649C20.252 28.9896 20.3027 29.012 20.4139 29.012C20.9399 29.012 21.476 28.9784 22.0017 28.9784C22.5985 28.9784 23.1852 29.012 23.782 29.012C23.9843 29.012 23.9843 28.9672 23.9843 28.6975C23.9843 28.4728 23.9237 28.4391 23.7718 28.4279C23.3167 28.4279 23.1144 28.4279 23.074 28.0121C23.0436 27.7424 23.0436 27.5402 23.0436 25.7313H25.6328C25.6328 26.2032 25.6328 27.6638 25.562 28.0009C25.5014 28.3605 25.2789 28.3829 24.8035 28.4503C24.6418 28.4841 24.6418 28.5177 24.6418 28.7649C24.6418 28.9896 24.7024 29.0121 24.8743 29.0121C25.461 29.0121 26.0375 28.9784 26.6241 28.9784C27.1802 28.9785 27.7265 29.0121 28.2827 29.0121Z" fill="white"/>
<path d="M32.3913 34.7438C32.284 34.6884 32.1671 34.6541 32.0469 34.6426C31.9636 34.6426 31.8904 34.9123 31.8068 35.1931C31.6191 35.8448 31.4938 36.1482 30.0122 36.1482C29.2921 36.1482 29.24 36.092 29.2189 35.9684C29.1878 35.6875 29.1982 33.0921 29.1982 32.5865C29.2086 30.6202 29.2086 30.4854 29.9078 30.3955C30.1477 30.3618 30.1791 30.2831 30.1791 30.0697C30.1791 29.845 30.1687 29.8337 29.9494 29.8337C29.6989 29.8337 28.4781 29.8562 28.1963 29.8562C27.9668 29.8562 26.8398 29.8337 26.5893 29.8337C26.391 29.8337 26.391 29.9236 26.391 30.1371C26.391 30.4067 26.4432 30.4067 26.6415 30.4067C27.0275 30.4179 27.2154 30.4179 27.2675 30.8224C27.3093 31.1707 27.299 33.418 27.299 34.4628C27.299 36.1932 27.2572 36.4403 26.5893 36.4403C26.3806 36.4403 26.3806 36.6089 26.3806 36.7549C26.3806 36.9122 26.391 37.0021 26.5579 37.0021C27.0692 37.0021 27.9668 36.9459 29.7303 36.9459C31.2225 36.9459 31.7653 37.0021 31.9529 37.0021C32.1305 37.0021 32.1827 36.9572 32.2452 36.6312C32.374 36.0786 32.475 35.5199 32.5478 34.9571C32.5582 34.8561 32.4957 34.7886 32.3913 34.7438Z" fill="white"/>
<path d="M9.11736 40.3314C9.07298 40.145 8.98551 39.9716 8.86199 39.8251C8.71288 39.6525 8.56229 39.6228 8.45309 39.7173C8.35098 39.8055 8.35935 39.9367 8.46116 40.196C8.6022 40.5582 8.60759 40.8699 8.36493 41.0795C8.08164 41.3241 7.66098 41.2725 7.32358 40.8819C7.19372 40.7393 7.09713 40.5697 7.04077 40.3853L7.41368 40.208C7.45501 40.3612 7.53041 40.5031 7.63424 40.6231C7.77552 40.7866 7.91876 40.7994 8.00367 40.7261C8.10919 40.6348 8.07614 40.5026 7.97135 40.2166C7.82738 39.8275 7.86245 39.5594 8.0972 39.3567C8.37462 39.117 8.79601 39.1238 9.19096 39.581C9.33269 39.7419 9.43604 39.9328 9.49322 40.1395L9.11736 40.3314Z" fill="#3A56A6"/>
<path d="M6.43106 39.0146L6.77016 39.5007L6.4286 39.7392L5.46118 38.3533L5.80305 38.1146L6.14706 38.6075L7.60565 37.5889L7.89017 37.9961L6.43106 39.0146Z" fill="#3A56A6"/>
<path d="M5.01751 37.5696C4.8834 37.394 4.76337 37.208 4.65857 37.0135C4.5021 36.728 4.43575 36.504 4.46954 36.3069C4.48565 36.2209 4.52175 36.14 4.57491 36.0706C4.62807 36.0012 4.6968 35.9452 4.77556 35.9073C4.88061 35.8518 5.00009 35.8299 5.11799 35.8443C5.23589 35.8587 5.34657 35.9087 5.43519 35.9878L5.44425 35.9827C5.442 35.8952 5.46055 35.8085 5.49835 35.7296C5.53615 35.6508 5.59213 35.582 5.66169 35.529C5.82202 35.3856 5.975 35.2342 6.12005 35.0754L6.36442 35.5213C6.25153 35.6592 6.12558 35.7859 5.98832 35.8996C5.77677 36.0855 5.75693 36.2013 5.85292 36.382L5.92392 36.5113L6.68003 36.0967L6.91656 36.5282L5.01751 37.5696ZM5.60909 36.6842L5.51556 36.5135C5.39701 36.2976 5.21611 36.2288 5.04862 36.3203C4.87233 36.4171 4.84858 36.5875 4.95627 36.787C4.99005 36.8539 5.03101 36.9169 5.07844 36.9748L5.60909 36.6842Z" fill="#3A56A6"/>
<path d="M4.47831 33.6036L4.78856 34.3504L5.27115 34.1499L4.92445 33.3152L5.30004 33.1589L5.8375 34.4525L3.80816 35.2955L3.28882 34.0452L3.66492 33.889L3.99351 34.6807L4.41638 34.5049L4.10622 33.7583L4.47831 33.6036Z" fill="#3A56A6"/>
<path d="M5.05081 32.4711L2.94018 33.0766L2.78077 32.5205L3.42914 31.8602C3.62499 31.6623 3.83382 31.4778 4.05426 31.3078L4.05083 31.2999C3.76593 31.4124 3.47529 31.5097 3.18014 31.5916L2.56457 31.7679L2.43896 31.3298L4.54959 30.7244L4.69308 31.2241L4.01025 31.9099C3.80729 32.1147 3.59347 32.3085 3.3697 32.4904L3.37362 32.5004C3.64932 32.4057 3.94609 32.3139 4.29084 32.2149L4.92526 32.0328L5.05081 32.4711Z" fill="#3A56A6"/>
<path d="M3.99508 28.1248C4.10779 28.3473 4.18567 28.5858 4.22597 28.8319C4.28548 29.2293 4.22892 29.5305 4.06706 29.7592C3.9786 29.8773 3.86683 29.9761 3.73868 30.0493C3.61052 30.1226 3.46869 30.1687 3.32198 30.185C2.59868 30.291 2.10873 29.8258 2.00198 29.1142C1.96463 28.9089 1.96929 28.698 2.01568 28.4945L2.42484 28.5383C2.38192 28.7082 2.37632 28.8854 2.40843 29.0577C2.46989 29.4673 2.74682 29.7442 3.21939 29.6732C3.6682 29.6061 3.88833 29.2834 3.82809 28.8811C3.81964 28.7993 3.79702 28.7195 3.76124 28.6454L3.30484 28.714L3.35528 29.0499L2.97206 29.1072L2.85037 28.2965L3.99508 28.1248Z" fill="#3A56A6"/>
<path d="M2.22669 26.9744L2.25215 27.5672L1.83541 27.5851L1.7627 25.8951L2.17967 25.877L2.20563 26.4781L3.98473 26.4017L4.0058 26.8982L2.22669 26.9744Z" fill="#3A56A6"/>
<path d="M1.81013 24.4816L2.65316 24.5433L2.71266 23.7265L1.86988 23.6648L1.90612 23.1692L4.0973 23.3293L4.06106 23.8249L3.14437 23.7578L3.08461 24.5749L4.0016 24.6417L3.96536 25.1373L1.77417 24.9772L1.81013 24.4816Z" fill="#3A56A6"/>
<path d="M16.2691 45.8095C16.4011 45.9684 16.5686 46.0941 16.7581 46.1766C16.9848 46.272 17.1444 46.2285 17.2047 46.085C17.2612 45.951 17.1902 45.8281 16.9679 45.6264C16.6582 45.3441 16.5039 45.0456 16.6378 44.727C16.7946 44.3551 17.2257 44.2038 17.7387 44.4195C17.9323 44.495 18.1068 44.6126 18.2495 44.7637L17.974 45.1134C17.8607 44.9852 17.7199 44.8843 17.5622 44.8181C17.3474 44.7278 17.2032 44.7841 17.1562 44.8957C17.0979 45.0343 17.1929 45.1462 17.4309 45.3722C17.7563 45.6793 17.8509 45.955 17.7211 46.2632C17.5678 46.6276 17.1574 46.8227 16.5568 46.57C16.3431 46.4822 16.152 46.3472 15.9978 46.1751L16.2691 45.8095Z" fill="#3A56A6"/>
<path d="M17.9539 47.0736L18.497 45.4424L19.0046 45.6116L18.4617 47.2426L17.9539 47.0736ZM19.1698 45.1635C19.1585 45.1987 19.14 45.2311 19.1155 45.2587C19.0909 45.2863 19.0609 45.3085 19.0272 45.3238C18.9936 45.3391 18.9572 45.3472 18.9202 45.3476C18.8833 45.348 18.8467 45.3407 18.8128 45.3261C18.7646 45.306 18.7234 45.2724 18.6941 45.2293C18.6648 45.1861 18.6488 45.1354 18.6479 45.0832C18.6471 45.0311 18.6615 44.9799 18.6893 44.9358C18.7172 44.8917 18.7573 44.8567 18.8047 44.8351C18.8522 44.8135 18.9049 44.8062 18.9564 44.8141C19.008 44.8221 19.0561 44.8449 19.0948 44.8797C19.1336 44.9146 19.1613 44.96 19.1746 45.0104C19.188 45.0608 19.1863 45.114 19.1698 45.1635Z" fill="#3A56A6"/>
<path d="M19.3274 46.2996C19.3785 46.0918 19.4149 45.9145 19.4442 45.7632L19.894 45.8734L19.8615 46.1104L19.8725 46.1131C19.9496 46.0423 20.0433 45.9922 20.1449 45.9673C20.2465 45.9424 20.3527 45.9435 20.4538 45.9706C20.7946 46.0538 20.9954 46.344 20.8752 46.8351L20.6335 47.8226L20.1142 47.6956L20.3404 46.7708C20.3928 46.5557 20.3522 46.39 20.1651 46.3442C20.106 46.3307 20.0442 46.3361 19.9884 46.3597C19.9325 46.3833 19.8856 46.4239 19.8541 46.4757C19.8304 46.5137 19.8137 46.5557 19.8047 46.5996L19.5691 47.5621L19.0496 47.435L19.3274 46.2996Z" fill="#3A56A6"/>
<path d="M22.5547 48.0736C22.3953 48.1089 22.2305 48.1128 22.0696 48.0851C21.5202 48.0063 21.2185 47.6199 21.2949 47.0861C21.3662 46.5888 21.7643 46.2313 22.3965 46.3219C22.5339 46.3409 22.667 46.383 22.7902 46.4466L22.6517 46.8275C22.5636 46.7752 22.4655 46.7423 22.3637 46.7311C22.2392 46.7187 22.1149 46.7552 22.0168 46.8328C21.9187 46.9104 21.8546 47.0231 21.838 47.147C21.8214 47.271 21.8536 47.3965 21.9277 47.4972C22.0019 47.5979 22.1123 47.6659 22.2356 47.6867C22.3395 47.7036 22.4457 47.6996 22.5481 47.675L22.5547 48.0736Z" fill="#3A56A6"/>
<path d="M23.4532 47.497C23.4574 47.7191 23.6704 47.8359 23.9192 47.8493C24.0794 47.8603 24.2403 47.8443 24.3951 47.8018L24.4478 48.1664C24.2454 48.2314 24.0325 48.2569 23.8205 48.2416C23.2394 48.2105 22.9238 47.8545 22.9525 47.3197C22.9757 46.8839 23.2735 46.4167 23.866 46.4483C24.4221 46.4782 24.6089 46.9214 24.5861 47.3459C24.5834 47.4168 24.5732 47.4872 24.5558 47.556L23.4532 47.497ZM24.0989 47.1652C24.1065 47.1226 24.1051 47.0789 24.0948 47.0369C24.0845 46.9949 24.0655 46.9555 24.0391 46.9212C24.0127 46.887 23.9794 46.8586 23.9414 46.838C23.9033 46.8173 23.8614 46.8049 23.8183 46.8014C23.7291 46.8022 23.6435 46.8366 23.5787 46.8978C23.5138 46.959 23.4744 47.0425 23.4684 47.1314L24.0989 47.1652Z" fill="#3A56A6"/>
<path d="M26.3593 46.365L26.3524 46.3657L25.9376 46.6079L25.8157 46.2164L26.3943 45.8851L26.8331 45.8477L27.027 48.1204L26.5128 48.1645L26.3593 46.365Z" fill="#3A56A6"/>
<path d="M28.0934 47.6015C28.1706 47.5933 28.2468 47.5783 28.3214 47.5567C28.4769 47.521 28.6201 47.4444 28.7362 47.3349C28.8614 47.2103 28.9339 47.0425 28.9389 46.866L28.9301 46.864C28.8809 46.932 28.8183 46.9891 28.7461 47.0317C28.6739 47.0743 28.5936 47.1016 28.5104 47.1118C28.4185 47.1331 28.3231 47.1352 28.2304 47.1178C28.1376 47.1005 28.0495 47.0641 27.9715 47.011C27.8935 46.9579 27.8273 46.8893 27.7772 46.8093C27.727 46.7294 27.694 46.64 27.6801 46.5466C27.6603 46.4376 27.6625 46.3257 27.6867 46.2175C27.7109 46.1094 27.7565 46.0072 27.8208 45.9169C27.8852 45.8267 27.967 45.7503 28.0613 45.6922C28.1557 45.6341 28.2608 45.5955 28.3703 45.5787C28.946 45.4688 29.302 45.8586 29.4017 46.3811C29.491 46.8485 29.4083 47.2163 29.2065 47.4886C29.0053 47.7365 28.7228 47.9051 28.409 47.9643C28.3309 47.9849 28.2515 47.9999 28.1713 48.0091L28.0934 47.6015ZM28.1953 46.4147C28.1986 46.4606 28.2115 46.5053 28.2333 46.5458C28.255 46.5864 28.285 46.6219 28.3214 46.6501C28.3578 46.6782 28.3997 46.6984 28.4444 46.7093C28.4892 46.7202 28.5357 46.7215 28.5809 46.7132C28.6387 46.7052 28.6935 46.6824 28.7399 46.647C28.7863 46.6115 28.8227 46.5646 28.8456 46.5109C28.857 46.4662 28.8567 46.4192 28.8448 46.3746C28.8013 46.1356 28.6666 45.9197 28.4276 45.9651C28.2496 45.9992 28.1495 46.1826 28.1953 46.4147Z" fill="#3A56A6"/>
<path d="M31.4153 45.9876C31.6185 46.6612 31.4854 47.209 30.9283 47.3769C30.3629 47.5476 29.9604 47.1159 29.7719 46.4982C29.5804 45.8633 29.6962 45.2832 30.2616 45.1128C30.846 44.9365 31.2346 45.3882 31.4153 45.9876ZM30.2829 46.3419C30.4332 46.8453 30.6267 47.0468 30.8223 46.9878C31.0214 46.9278 31.0554 46.645 30.9055 46.1482C30.7596 45.6637 30.5769 45.4411 30.3732 45.5023C30.1852 45.5592 30.1289 45.8333 30.2829 46.3419Z" fill="#3A56A6"/>
<path d="M32.2164 46.5019C32.2901 46.478 32.3616 46.4476 32.4299 46.411C32.5748 46.344 32.6991 46.2393 32.7898 46.1079C32.8866 45.9602 32.9229 45.7809 32.8912 45.6072L32.8821 45.6069C32.8482 45.6837 32.7987 45.7526 32.7369 45.8093C32.675 45.866 32.6021 45.9093 32.5227 45.9365C32.4372 45.9764 32.3443 45.9982 32.25 46.0005C32.1556 46.0027 32.0618 45.9854 31.9745 45.9496C31.8872 45.9138 31.8082 45.8603 31.7426 45.7925C31.677 45.7247 31.6261 45.644 31.5932 45.5555C31.5513 45.4529 31.5303 45.343 31.5315 45.2321C31.5328 45.1213 31.5562 45.0119 31.6005 44.9103C31.6448 44.8086 31.7089 44.7169 31.7892 44.6405C31.8695 44.5641 31.9643 44.5046 32.068 44.4654C32.6086 44.2385 33.0376 44.5462 33.2435 45.0369C33.4277 45.4757 33.423 45.8528 33.282 46.161C33.1366 46.4454 32.8951 46.6689 32.6003 46.7918C32.5282 46.8281 32.4536 46.8592 32.377 46.8848L32.2164 46.5019ZM32.0699 45.3197C32.0827 45.3639 32.1046 45.405 32.1343 45.4402C32.164 45.4753 32.2008 45.5038 32.2422 45.5239C32.2837 45.5439 32.3289 45.5549 32.3749 45.5563C32.4209 45.5576 32.4667 45.5493 32.5092 45.5318C32.5642 45.512 32.613 45.4784 32.6511 45.4341C32.6891 45.3898 32.715 45.3364 32.7262 45.2791C32.7281 45.2329 32.7182 45.1871 32.6972 45.1459C32.6051 44.9211 32.4286 44.7375 32.2041 44.8317C32.0371 44.9018 31.9771 45.1018 32.0699 45.3197Z" fill="#3A56A6"/>
<path d="M4.43579 15.0278C4.51536 14.818 4.61182 14.615 4.72423 14.4208C4.8247 14.2045 4.99539 14.0285 5.20854 13.9215C5.29877 13.8863 5.39585 13.8721 5.49239 13.8801C5.58893 13.8881 5.68237 13.918 5.76559 13.9676C5.85135 14.0107 5.9272 14.0712 5.98832 14.1452C6.04944 14.2192 6.09449 14.3052 6.12062 14.3975C6.16659 14.6526 6.11428 14.9157 5.9742 15.1338C5.94672 15.1833 5.91571 15.2308 5.88141 15.2758L6.56699 15.6612L6.32575 16.0905L4.43579 15.0278ZM5.54595 15.0873C5.58164 15.045 5.61252 14.999 5.63802 14.9499C5.7673 14.72 5.73106 14.5126 5.5369 14.4034C5.3606 14.3045 5.18798 14.3659 5.06506 14.5843C5.03046 14.6429 5.002 14.7048 4.9801 14.7692L5.54595 15.0873Z" fill="#3A56A6"/>
<path d="M5.54883 13.1219C5.64655 12.9237 5.75978 12.7335 5.88747 12.5531C6.07356 12.2855 6.24495 12.1268 6.43667 12.069C6.52083 12.0453 6.6094 12.0417 6.69522 12.0584C6.78104 12.0752 6.86173 12.1119 6.93079 12.1655C7.02716 12.2351 7.1 12.3324 7.13956 12.4444C7.17912 12.5565 7.1835 12.678 7.15213 12.7926L7.16069 12.7982C7.23808 12.7574 7.32406 12.7354 7.41157 12.7342C7.49909 12.733 7.58564 12.7526 7.66411 12.7913C7.86381 12.8713 8.06747 12.941 8.27429 13.0002L7.98365 13.4174C7.80972 13.3777 7.64006 13.3212 7.47705 13.2487C7.21677 13.142 7.10365 13.1758 6.98493 13.3423L6.90046 13.4632L7.60833 13.9564L7.32699 14.3604L5.54883 13.1219ZM6.60562 13.258L6.71653 13.0984C6.85758 12.8962 6.83872 12.7032 6.68207 12.5942C6.51704 12.4792 6.35399 12.5338 6.22296 12.7189C6.17822 12.7791 6.13998 12.8438 6.10887 12.9121L6.60562 13.258Z" fill="#3A56A6"/>
<path d="M8.96973 10.4569C9.51379 10.9297 9.55761 11.5438 9.13622 12.0288C8.70889 12.5207 8.08532 12.487 7.61225 12.0758C7.11667 11.6454 7.02167 11.0032 7.44601 10.5147C7.88821 10.0059 8.51063 10.0583 8.96973 10.4569ZM7.94965 11.6733C8.27457 11.9556 8.63672 12.0014 8.85414 11.7512C9.07426 11.4978 8.96065 11.1444 8.63818 10.8646C8.33921 10.6048 7.96091 10.5245 7.73688 10.782C7.51603 11.0362 7.62693 11.3932 7.94965 11.6733Z" fill="#3A56A6"/>
<path d="M9.15565 9.36958L8.72471 9.77624L8.43848 9.47311L9.66789 8.31299L9.95412 8.61624L9.51706 9.02882L10.7384 10.3231L10.377 10.664L9.15565 9.36958Z" fill="#3A56A6"/>
<path d="M11.9183 8.13367L11.283 8.63342L11.6062 9.04404L12.3162 8.48528L12.5679 8.80482L11.4673 9.67062L10.1094 7.94441L11.1728 7.10767L11.4242 7.42747L10.7512 7.95713L11.0342 8.31659L11.6694 7.81683L11.9183 8.13367Z" fill="#3A56A6"/>
<path d="M14.2579 7.614C14.145 7.76883 14.0023 7.89953 13.8382 7.99841C13.1997 8.41173 12.6125 8.22564 12.2726 7.70019C11.8657 7.0716 12.0907 6.43233 12.6473 6.07191C12.7987 5.96507 12.9717 5.89277 13.1541 5.86011L13.2824 6.24477C13.1413 6.26939 13.0069 6.32289 12.8875 6.40192C12.5586 6.61494 12.4306 6.98226 12.6957 7.39187C12.935 7.7613 13.303 7.85243 13.6742 7.61223C13.7936 7.53633 13.8985 7.43983 13.9842 7.32722L14.2579 7.614Z" fill="#3A56A6"/>
<path d="M14.2729 5.65368L13.7471 5.92694L13.5547 5.5572L15.0544 4.77783L15.2466 5.14757L14.7133 5.42503L15.5338 7.0034L15.0934 7.23223L14.2729 5.65368Z" fill="#3A56A6"/>
<path d="M16.0086 4.36499L16.8838 6.37917L16.4283 6.57701L15.5532 4.56284L16.0086 4.36499Z" fill="#3A56A6"/>
<path d="M18.9325 4.44943C19.1631 5.13256 18.8901 5.68447 18.2814 5.88995C17.6641 6.09855 17.1433 5.75405 16.9426 5.16052C16.7325 4.53811 16.9754 3.93626 17.5882 3.72936C18.2272 3.51335 18.7377 3.87354 18.9325 4.44943ZM17.4372 4.98345C17.5748 5.39137 17.8642 5.61394 18.1783 5.50793C18.4966 5.4004 18.5769 5.0383 18.4401 4.63355C18.3135 4.2582 18.0277 3.99767 17.704 4.10687C17.3852 4.21462 17.3005 4.57847 17.4372 4.98345Z" fill="#3A56A6"/>
<path d="M19.7057 5.40502L19.2441 3.25766L19.8098 3.13596L20.4248 3.82796C20.6091 4.03676 20.7792 4.2577 20.9339 4.48931L20.942 4.48637C20.8492 4.19434 20.7718 3.89766 20.7101 3.59755L20.5754 2.97147L21.0213 2.87573L21.4828 5.02285L20.974 5.1323L20.3362 4.40435C20.1454 4.18801 19.9663 3.96152 19.8 3.72586L19.7894 3.72929C19.8658 4.01038 19.9371 4.31301 20.0125 4.66364L20.1513 5.30908L19.7057 5.40502Z" fill="#3A56A6"/>
<path d="M28.1521 4.46012C28.3043 4.57668 28.4815 4.65616 28.6697 4.69223C28.8943 4.73221 29.0297 4.66017 29.0551 4.51802C29.0789 4.38519 28.9897 4.2886 28.7471 4.15148C28.4092 3.95926 28.2087 3.72103 28.265 3.40517C28.3306 3.03666 28.6898 2.81152 29.1979 2.90212C29.3885 2.93084 29.5704 3.00155 29.7304 3.10914L29.5526 3.48181C29.424 3.3889 29.276 3.32628 29.1198 3.29865C28.907 3.26108 28.7877 3.34126 28.7682 3.45166C28.7437 3.58914 28.8529 3.67117 29.1144 3.82703C29.4714 4.03821 29.6134 4.26825 29.5588 4.57382C29.4944 4.93474 29.1632 5.19515 28.5681 5.08911C28.3568 5.05353 28.1563 4.97044 27.9817 4.8461L28.1521 4.46012Z" fill="#3A56A6"/>
<path d="M32.0193 4.95985L31.2458 4.72491L31.0938 5.22478L31.9586 5.4875L31.84 5.87681L30.5005 5.46962L31.1393 3.36743L32.4341 3.76104L32.3161 4.15023L31.4963 3.90135L31.3631 4.33914L32.1364 4.57432L32.0193 4.95985Z" fill="#3A56A6"/>
<path d="M34.3558 6.85528C34.1642 6.84546 33.9765 6.79734 33.8039 6.71375C33.1083 6.40439 32.943 5.81049 33.1976 5.23802C33.5023 4.55316 34.1614 4.39242 34.7676 4.66201C34.9401 4.73033 35.0954 4.83578 35.2225 4.97089L34.9704 5.28867C34.8724 5.18405 34.754 5.10067 34.6224 5.04368C34.2642 4.88429 33.8862 4.97782 33.6876 5.42431C33.5086 5.82683 33.6335 6.18532 34.0377 6.36505C34.1667 6.42361 34.3051 6.45884 34.4464 6.46911L34.3558 6.85528Z" fill="#3A56A6"/>
<path d="M36.8496 5.79817L36.185 6.87307C35.9852 7.19616 36.0075 7.4377 36.2223 7.5703C36.4441 7.70754 36.6627 7.62636 36.8677 7.29519L37.5325 6.22017L37.9551 6.48143L37.3065 7.53046C36.9497 8.10722 36.4889 8.20087 35.9997 7.89835C35.5276 7.60686 35.4142 7.17493 35.7818 6.58079L36.4269 5.53687L36.8496 5.79817Z" fill="#3A56A6"/>
<path d="M39.1227 7.36816C39.3125 7.48102 39.4932 7.60874 39.6628 7.75013C39.9146 7.95667 40.0595 8.13981 40.1019 8.33521C40.1189 8.42096 40.1156 8.50951 40.0921 8.59374C40.0687 8.67796 40.0258 8.75551 39.967 8.82014C39.8901 8.91064 39.7875 8.97555 39.6727 9.00617C39.558 9.0368 39.4367 9.0317 39.3249 8.99154L39.3183 8.99949C39.3531 9.07973 39.3683 9.16709 39.3627 9.25437C39.3571 9.34164 39.3308 9.42633 39.286 9.50144C39.1906 9.69427 39.1051 9.89179 39.0296 10.0933L38.6369 9.77069C38.6901 9.60055 38.7597 9.43598 38.8447 9.27927C38.9716 9.02829 38.9466 8.91309 38.7904 8.78148L38.6763 8.68794L38.1293 9.35456L37.749 9.04249L39.1227 7.36816ZM38.904 8.41013L39.0544 8.53354C39.2449 8.68976 39.4383 8.6862 39.5595 8.53868C39.6871 8.3832 39.6457 8.21646 39.4711 8.0715C39.4149 8.02195 39.3534 7.97872 39.2878 7.94258L38.904 8.41013Z" fill="#3A56A6"/>
<path d="M41.6747 9.61466L40.1155 11.1617L39.7659 10.8093L41.3249 9.26196L41.6747 9.61466Z" fill="#3A56A6"/>
<path d="M42.577 11.2439L42.2039 10.7835L42.5276 10.521L43.5919 11.8343L43.268 12.0969L42.8897 11.6298L41.507 12.7501L41.1946 12.3643L42.577 11.2439Z" fill="#3A56A6"/>
<path d="M42.7454 14.4919L43.5113 14.0176L44.2483 12.7446L44.548 13.2286L44.2159 13.697C44.1173 13.8374 44.0428 13.9404 43.9476 14.0629L43.951 14.0683C44.093 14.038 44.2306 14.0149 44.3964 13.9874L44.962 13.8975L45.257 14.3738L43.7869 14.4312L43.0068 14.9144L42.7454 14.4919Z" fill="#3A56A6"/>
<path d="M46.3981 23.2588C46.3251 23.4361 46.2946 23.6279 46.3089 23.819C46.3288 24.046 46.4336 24.1581 46.5775 24.1457C46.7117 24.134 46.782 24.0226 46.851 23.7527C46.9485 23.3767 47.1262 23.1205 47.4458 23.0926C47.8185 23.0598 48.1299 23.348 48.1747 23.8619C48.1968 24.0536 48.176 24.2477 48.1137 24.4303L47.7075 24.3558C47.7638 24.2074 47.7856 24.0482 47.7714 23.8901C47.7523 23.6749 47.6436 23.5809 47.5322 23.5906C47.3929 23.6029 47.3424 23.7295 47.2602 24.0226C47.1495 24.4224 46.9642 24.6193 46.6552 24.6465C46.2899 24.6785 45.9521 24.4266 45.8993 23.8245C45.8784 23.6112 45.9063 23.3959 45.9808 23.195L46.3981 23.2588Z" fill="#3A56A6"/>
<path d="M46.9071 27.3645L46.9415 26.5567L46.4195 26.5344L46.3811 27.4375L45.9746 27.4201L46.0344 26.021L48.2292 26.1147L48.1714 27.467L47.7648 27.4494L47.8015 26.5934L47.3441 26.5738L47.3097 27.3818L46.9071 27.3645Z" fill="#3A56A6"/>
<path d="M47.9653 29.1027C47.9595 29.3235 47.9363 29.5436 47.8958 29.7608C47.8387 30.0813 47.7498 30.2975 47.6 30.43C47.5334 30.4868 47.4545 30.5271 47.3696 30.5478C47.2846 30.5685 47.196 30.569 47.1108 30.5493C46.9942 30.5265 46.8874 30.4687 46.8046 30.3835C46.7218 30.2984 46.667 30.1899 46.6475 30.0728L46.6372 30.0708C46.5841 30.1403 46.5152 30.1963 46.4362 30.234C46.3573 30.2718 46.2705 30.2903 46.183 30.288C45.9682 30.299 45.7541 30.3209 45.5415 30.3536L45.6306 29.8529C45.8052 29.8163 45.9829 29.7966 46.1612 29.7941C46.4423 29.7821 46.5307 29.7043 46.5692 29.5033L46.5951 29.358L45.746 29.2065L45.8326 28.7222L47.9653 29.1027ZM46.9489 29.421L46.9149 29.6127C46.8716 29.8551 46.9692 30.0223 47.1573 30.0559C47.3551 30.0911 47.4805 29.9738 47.5216 29.7505C47.5374 29.6772 47.5451 29.6024 47.5447 29.5275L46.9489 29.421Z" fill="#3A56A6"/>
<path d="M45.0755 32.0242L47.3816 32.0396L47.2121 32.5562L46.2459 32.519C45.9739 32.5105 45.717 32.4962 45.4394 32.4632L45.4374 32.4696C45.6708 32.6045 45.8963 32.7533 46.1117 32.9024L46.9156 33.4597L46.7511 33.9616L44.8948 32.5753L45.0755 32.0242Z" fill="#3A56A6"/>
<path d="M45.9579 35.7691L43.9651 34.8431L44.1744 34.3926L46.1673 35.3186L45.9579 35.7691Z" fill="#3A56A6"/>
<path d="M42.5354 37.5114C42.5699 37.3227 42.6418 37.1429 42.747 36.9825C43.1431 36.3329 43.7538 36.2457 44.2886 36.5721C44.9284 36.9624 45.0026 37.6367 44.6571 38.2031C44.5671 38.3653 44.4424 38.5057 44.292 38.6142L44.0094 38.3231C44.1259 38.2395 44.2239 38.1328 44.2973 38.0097C44.5015 37.6749 44.4575 37.2881 44.0405 37.0337C43.6641 36.8042 43.2927 36.8821 43.0623 37.2597C42.9875 37.38 42.9349 37.5126 42.9068 37.6514L42.5354 37.5114Z" fill="#3A56A6"/>
<path d="M41.6229 40.1301L42.1324 39.5026L41.7269 39.173L41.1572 39.8748L40.8413 39.6182L41.7242 38.531L43.4295 39.9162L42.5764 40.9668L42.2605 40.7102L42.8007 40.0451L42.4454 39.7567L41.9356 40.3843L41.6229 40.1301Z" fill="#3A56A6"/>
</g>
<defs>
<clipPath id="clip0_1895_14449">
<rect width="49" height="46.5447" fill="white" transform="translate(0.5 1.69995)"/>
</clipPath>
</defs>
</svg>
