<svg xmlns:xlink="http://www.w3.org/1999/xlink" xmlns="http://www.w3.org/2000/svg" width="337" height="46" viewBox="0 0 337 46" fill="none">
<path fill-rule="evenodd" clip-rule="evenodd" d="M39.9389 6.85707C44.0909 11.0053 46.6593 16.7401 46.6593 23.0728C46.6593 35.7345 36.3938 46.0001 23.7299 46.0001C20.4759 46.0001 17.3793 45.3219 14.5747 44.0986V44.0971C19.589 43.0164 22.0022 37.1398 23.5568 31.3426C23.5731 31.3426 25.4211 24.9839 25.4211 24.9839H30.5713L31.6988 21.161H26.5843C28.9002 13.1006 29.7447 10.6689 30.9472 8.2475C32.6652 4.82712 35.163 5.02915 35.163 5.01207C36.37 5.01207 38.3182 5.23638 39.9389 6.85707Z" fill="#159FE0"/>
<path fill-rule="evenodd" clip-rule="evenodd" d="M7.51924 39.2811C3.36726 35.1329 0.798828 29.3988 0.798828 23.0654C0.798828 10.4037 11.0651 0.138878 23.7276 0.138878C26.9823 0.138878 30.0796 0.81701 32.8835 2.03958C27.8691 3.12177 25.4559 8.9999 23.9021 14.7963C23.885 14.7963 22.0363 21.1543 22.0363 21.1543H16.8861L15.7593 24.9772H20.8739C18.558 33.0383 17.7142 35.4693 16.511 37.8907C14.7923 41.3118 12.2951 41.1105 12.2951 41.1261C11.0882 41.1261 9.13993 40.9018 7.51924 39.2811Z" fill="#061C68"/>
<path d="M68.178 14.7538V20.2427H78.7013V26.4113H68.178V38.0695H58.835V8.13141H81.015V14.7538H68.178Z" fill="#061C68"/>
<rect x="86.146" y="8.13155" width="9.34381" height="29.9381" fill="#061C68"/>
<path d="M113.896 38.0697H101.014V8.13163H113.942C123.24 8.13163 130.589 12.6216 130.589 23.0097C130.589 33.3518 123.24 38.0697 113.896 38.0697ZM113.352 14.9352H110.63V31.2639H113.352C118.296 31.2639 120.79 28.9064 120.79 22.9191C120.79 16.9318 118.023 14.9352 113.352 14.9352Z" fill="#061C68"/>
<path d="M134.809 38.0696V8.13156H156.672V14.7539H144.154V19.743H154.404V25.9123H144.154V31.4465H157.262V38.0696H134.809Z" fill="#061C68"/>
<path d="M162.42 38.0696V8.13156H171.764V31.4465H183.104V38.0696H162.42Z" fill="#061C68"/>
<rect x="188.235" y="8.13155" width="9.34308" height="29.9381" fill="#061C68"/>
<path d="M220.4 14.7538V38.0695H211.059V14.7538H202.53V8.13141H228.929V14.7538H220.4Z" fill="#061C68"/>
<path d="M251.05 25.2772V38.0696H241.707V25.2319L231.91 8.13156H241.98L246.695 17.6128L251.642 8.13156H261.802L251.05 25.2772Z" fill="#061C68"/>
<path d="M265.779 38.0696V8.13156H269.298V34.6827H285.168V38.0696H265.779Z" fill="#159FE0"/>
<rect x="290.119" y="8.13155" width="3.51841" height="29.9381" fill="#159FE0"/>
<path d="M302.108 11.5177V22.1843H312.631V25.1167H302.108V38.0696H298.589V8.13148H314.945V11.5177H302.108Z" fill="#159FE0"/>
<path d="M319.896 38.0696V8.13156H335.932V11.5178H323.413V21.6845H333.666V24.6184H323.413V34.6827H336.522V38.0696H319.896Z" fill="#159FE0"/>
<path d="M48.7033 38.0355C50.7504 38.0355 52.3859 39.6911 52.3859 41.7694C52.3859 43.8684 50.7504 45.5143 48.7033 45.5143C46.6964 45.5143 45.0713 43.8684 45.0713 41.7694C45.0713 39.6911 46.6964 38.0355 48.7033 38.0355ZM48.7033 44.9587C50.4518 44.9587 51.7887 43.569 51.7887 41.7694C51.7887 39.989 50.4518 38.5896 48.7033 38.5896C46.995 38.5896 45.6781 39.989 45.6781 41.7694C45.6781 43.569 46.995 44.9587 48.7033 44.9587ZM47.4889 39.7624H48.9187C49.6288 39.7624 50.1227 40.2356 50.1227 40.9568C50.1227 41.5525 49.7417 41.9231 49.3711 42.016V42.0367C49.3711 42.0367 49.4127 42.088 49.5055 42.2625L50.2772 43.7755H49.6385L48.8363 42.1496H48.0653V43.7755H47.4889V39.7624ZM48.8162 41.6966C49.2478 41.6966 49.5263 41.4195 49.5263 40.9568C49.5263 40.5037 49.2478 40.2467 48.8162 40.2467H48.0653V41.6966H48.8162Z" fill="#061C68"/>
</svg>