<svg width="50" height="50" viewBox="0 0 50 50" fill="none" xmlns="http://www.w3.org/2000/svg">
<g clip-path="url(#clip0_385_18551)">
<rect width="50" height="50" rx="8" fill="white"/>
<path d="M0 45.3873C0 45.3873 5.65661 43.3317 8.78164 43.7842C11.7378 44.204 13.5781 46.4176 13.3821 48.9094C13.344 49.4547 13.344 50 13.344 50H19.5995C19.5995 50 16.4255 49.7274 16.5561 45.9161C16.6866 42.1047 17.7319 41.0088 16.4146 38.0917C15.097 35.1747 9.72352 31.903 0 36.3905V45.3873Z" fill="#39529F"/>
<path d="M49.7989 41.3521L46.7121 41.4886C46.7121 41.4886 38.3441 42.1701 37.4566 38.1624C36.6728 34.7546 35.8451 33.6642 33.3898 33.5006C30.4445 33.2989 28.2721 35.5616 25.1037 34.4219C21.2055 33.0153 20.7482 29.6836 20.7482 27.519L22.5938 19.4875C22.5938 19.4875 22.7462 23.6585 26.2305 25.3054C29.715 26.952 31.9798 25.3545 32.8999 24.9618C33.8199 24.5693 36.6673 23.5604 38.2298 25.6707C39.6235 27.5519 39.3185 29.3729 39.9446 30.5342C40.8377 32.1701 43.6849 33.086 49.7989 32.5083V23.5006C49.7989 23.5006 45.6611 23.6368 44.273 23.1678C43.5822 22.9698 42.9663 22.5688 42.5052 22.0167C42.0444 21.4647 41.7593 20.7869 41.6869 20.0709C41.5509 18.3642 40.9575 16.2539 38.306 15.5288C36.2698 14.9836 34.1574 16.7121 32.5731 17.0938C31.261 17.4208 25.0491 18.0589 24.7933 10.4307L26.5354 2.11012C26.5354 2.11012 26.8404 6.65755 30.3464 8.0316C31.4004 8.46706 32.5428 8.64472 33.6789 8.54989C34.815 8.45506 35.9123 8.09049 36.8795 7.48636C39.0246 6.25407 41.235 6.07414 42.5688 7.51905C43.9026 8.96399 43.9953 10.7524 44.1477 11.9902C44.3492 13.626 46.0262 15.3816 49.8098 15.0818V6.35768C49.8098 6.35768 46.9351 6.72844 46.5432 4.76008C46.1512 2.79171 46.9408 0.0545095 43.2767 0.0545095L0 0V27.8079C3.494 25.3921 7.79 24.4337 11.9774 25.1363C18.919 26.3196 19.18 29.7438 19.3108 30.3925C19.5188 31.8899 19.482 33.4109 19.2019 34.8965C18.8101 37.5735 19.4361 40.4744 20.4869 41.3957C21.5375 42.3173 23.0511 44.5202 28.9038 42.7645C28.9038 42.7645 32.1703 41.6303 34.1029 43.8003C34.68 44.4437 35.279 46.2487 35.5729 46.8374C36.7433 49.2256 39.5745 49.9945 41.5618 49.9945H49.8208L49.7989 41.3521ZM12.2333 2.86804L13.9047 0.741553L14.3567 3.32605L16.9533 4.22027L14.6995 4.97818L14.5473 7.88439L12.8593 5.91055L10.2842 6.66848L11.4983 4.38929L9.97935 2.41547L12.2333 2.86804ZM3.09782 3.92039L4.76376 1.79389L5.21563 4.37841L7.79623 5.3108L5.48241 5.98144L5.36808 8.95853L3.70755 6.94654L1.12154 7.70991L2.34105 5.43074L0.822086 3.4569L3.09782 3.92039ZM7.42058 23.3042L5.03052 22.3172L3.09237 24.1819L3.12502 21.603L0.8711 20.5779L3.09782 19.9292L3.59868 17.2738L5.19386 19.3565L7.79078 18.7731L6.19017 20.6707L7.42058 23.3042ZM10.7524 13.4896L10.6816 16.4175L9.04842 14.4492L6.44061 15.2345L7.65466 12.9443L6.13572 10.9815L8.71087 11.4722L10.0773 9.29115L10.5293 11.8757L13.0663 12.7863L10.7524 13.4896ZM17.9987 21.0851L17.8465 23.9802L16.1804 22.0066L13.6108 22.7589L14.8248 20.4743L13.3004 18.5059L15.5762 18.9586L17.2475 16.8374L17.6993 19.422L20.2745 20.3271L17.9987 21.0851ZM19.4906 11.3086L16.9155 12.072L18.1242 9.79279L16.6106 7.81897L18.8861 8.27699L20.5522 6.15048L21.004 8.735L23.4922 9.43291L21.3143 10.3108L21.1676 13.2879L19.4906 11.3086Z" fill="#39529F"/>
</g>
<defs>
<clipPath id="clip0_385_18551">
<rect width="50" height="50" rx="8" fill="white"/>
</clipPath>
</defs>
</svg>
