<?xml version="1.0" encoding="UTF-8"?>
<svg xmlns="http://www.w3.org/2000/svg" version="1.1" viewBox="0 0 737.7 130.6">
  <defs>
    <style>
      .cls-1 {
        fill: #fff;
      }

      .cls-2 {
        fill: #2f4f4f;
      }
    </style>
  </defs>
  <!-- Generator: Adobe Illustrator 28.7.8, SVG Export Plug-In . SVG Version: 1.2.0 Build 200)  -->
  <g>
    <g id="Layer_1">
      <g id="ff3d78df-01ae-4d41-b448-a0541eed58ba">
        <g>
          <g>
            <circle class="cls-2" cx="65.7" cy="65.6" r="65.3"/>
            <g>
              <path class="cls-1" d="M103.7,12.5c-2.7-1.9-5.5-3.7-8.4-5.2-29.8,1.7-30.4,19.7-30.4,19.7,11.5-14.7,28.4-15.7,38.8-14.5Z"/>
              <path class="cls-1" d="M65.3,48s-13.1-6.5-11.8,2.5l-1.5,1.4s9.9,1.5,13.3-3.9Z"/>
              <path class="cls-1" d="M85.2,35.8s-3.2-4.2-9,1.7c0,0,3.5,1.5,3.9,2.8,0,0,1.8-5.7,5.2-4.5Z"/>
              <path class="cls-1" d="M64.4,85.3s-6.1,9.4-2.7,23.3c0,0,1-10.7,5.7-13s22.7-18.9,25.8-36.2c0,0,2.5,23.4-9.3,38.5-11.2,14.4-14.3,22.4-14.5,32.5,3.7-.2,7.5-.8,11.1-1.7.2-10.7,16.6-30.6,20-35.9,3.6-5.5,4.4-21.9,4.4-21.9,4.5,17.6,1.8,35.4-.9,46.8,2.4-1.8,4.6-3.7,6.7-5.7,8-13.7,17.9-41.6-12.8-67.1,0,0,14,2.2,32.5,18.5-.1-4.5-.7-8.9-1.7-13.3-8.7-10.1-21.4-15.9-34.8-15.8-.5-4.3-4.7-6.2-4.7-6.2,0,0,14.4-3.7,32.3,4-2.4-4.1-5.3-8-8.6-11.5-40.5-7.4-42.4,14.8-42.4,14.8.7,0,1.3.4,1.9.8,0,0,9.4-10.2,16.5-3.1s-2.8,14.7-2.8,14.7c3.1,6.5,1.9,14.3-3.1,19.5,4.2-9.7-3.1-15.4-3.1-15.4,2.9,31.8-22.4,24.1-22.4,24.1,1.7,10.2-8,9.8-14.4,8.8s-13.9-4.6-13.9-12.1,10.9-4.8,10.9-4.8c0-3.4-3.1-3.9-4.8-3.9s-2.5,2-6.4.1-7.2,1.8-7.2,1.8c-1.4-10,15.4-14.7,15.4-14.7,1.7-12.9,11.8-15.1,11.8-15.1-3.9-20.3,8.1-25,8.1-25-7.4,10.1-2.7,16.6-2.7,16.6,2.9-17.1,22.3-22.2,33.8-23.7C54.3-8.5,16.7,8.7,4.1,42.5c-12.6,33.8,4.6,71.4,38.4,84,1.4.5,2.8,1,4.3,1.4-1.2-4.4-6.6-28.8,17.7-42.6ZM23.6,82c-.7-1.7-1.2-3.5-1.5-5.4-.4-1.8-.4-3.7-.2-5.5.3-1.9.9-3.4,2-3.4,1.6,0,2.2,2.5,2.2,6.7,0,2.7-1,5.3-2.5,7.6ZM39.3,100.6c-3.7-2.7-6.8-6.2-8.9-10.3,0,0-.9,3.2-.1,4.1,0,0-6.7-6.2-2.5-14.3,0,0,5.5,9.4,20.5,9.4,0,0-8.4,6.2-8.9,11.1Z"/>
            </g>
          </g>
          <polygon class="cls-1" points="151.7 31.2 170.7 31.2 183.3 78.1 194.7 31.2 212.8 31.2 212.8 99.8 198.2 99.8 198.2 46.6 183.9 99.8 172.8 99.8 158.1 45.7 158.1 99.8 151.7 99.8 151.7 31.2"/>
          <path class="cls-1" d="M219.9,53.4h13.9v39.7s-.2,3.1,7,3.1v-42.8h13.6v46.4h-21.9c-1.6,0-3.2-.2-4.8-.5-3.2-.8-7.7-2.5-7.7-6.4v-39.4Z"/>
          <path class="cls-1" d="M297.6,53.4h13.9v39.7s-.2,3.1,7,3.1v-42.8h13.6v46.4h-21.9c-1.6,0-3.2-.2-4.8-.5-3.2-.8-7.7-2.5-7.7-6.4v-39.4Z"/>
          <polygon class="cls-1" points="258.9 53.4 258.9 59.5 269.4 59.5 269.4 99.8 283.2 99.8 283.2 59.5 293.1 59.5 293.1 53.4 258.9 53.4"/>
          <path class="cls-1" d="M369,53.4h-27.4v4.5h15.2c1.8-.1,3.4,1.2,3.7,2.9v9h-14.6c-5.5,0-6.3,5.5-6.3,5.5v18.4c0,2.1,1.5,3.5,3.1,4.5,1.9,1.1,4,1.6,6.1,1.6h25.1v-39.3c0-4.9-5-7-5-7ZM360.6,96.6h-3.1c-2.2,0-3.9-1.7-3.9-3.9h0v-12.7c0-3,2.5-5.5,5.5-5.5h1.5v22.1Z"/>
          <path class="cls-1" d="M636.6,53.4h-27.4v4.5h15.2c1.8-.1,3.4,1.2,3.7,2.9v9h-14.6c-5.5,0-6.3,5.5-6.3,5.5v18.4c0,2.1,1.5,3.5,3.1,4.5,1.9,1.1,4,1.6,6.1,1.6h25.1v-39.3c0-4.9-5-7-5-7ZM628.2,96.6h-3.1c-2.2,0-3.9-1.7-3.9-3.9h0v-12.7c0-3,2.5-5.5,5.5-5.5h1.5v22.1Z"/>
          <path class="cls-1" d="M722,53.4h-27.4v4.5h15.2c1.8-.1,3.4,1.2,3.7,2.9v9h-14.6c-5.5,0-6.3,5.5-6.3,5.5v18.4c0,2.1,1.5,3.5,3.1,4.5,1.9,1.1,4,1.6,6.1,1.6h25.1v-39.3c0-4.9-5-7-5-7ZM713.7,96.6h-3.1c-2.2,0-3.9-1.7-3.9-3.9h0v-12.7c0-3,2.5-5.5,5.5-5.5h1.5v22.1Z"/>
          <polygon class="cls-1" points="381.6 53.4 395.5 53.4 395.5 94.5 410.1 94.5 410.1 99.8 381.6 99.8 381.6 53.4"/>
          <polygon class="cls-1" points="670.7 53.4 670.7 69.6 663.6 69.6 663.6 53.4 648.6 53.4 648.6 99.8 663.6 99.8 663.6 75.2 670.7 75.2 670.7 99.8 685.6 99.8 685.6 53.4 670.7 53.4"/>
          <path class="cls-1" d="M589.4,53.4h-46.7v46.4h14.2v-41.9h1.8c3,0,5.5,2.5,5.5,5.5h0v36.4h14v-41.9h1.8c3,0,5.5,2.5,5.5,5.5h0v36.4h14.6v-35.6c0-5.9-4.8-10.7-10.7-10.7h0Z"/>
          <path class="cls-1" d="M507.4,29.7h-8.8c-15.5,0-28,12.6-28.1,28.1v15.4c0,15.1,12.3,27.4,27.4,27.4h10c15.1,0,27.4-12.3,27.4-27.4v-15.5c0-15.4-12.5-27.9-27.9-27.9ZM518.2,83.3c0,8-6.5,14.5-14.5,14.5h-1.6c-8,0-14.5-6.5-14.5-14.5h0v-35.4c0-8,6.5-14.5,14.5-14.5h1.6c8,0,14.5,6.5,14.5,14.5h0s0,35.4,0,35.4Z"/>
          <path class="cls-1" d="M466,43.2v-3.2s-8.4-3.1-18.7,15.1h-22.3c-11.9,0-16.3,12.1-14.4,17.8,1.4,4.3,10.6,8.4,19.7,3.8s5.8-18.1,5.8-18.1h9.4c-2.4,5.1-4.6,10.2-6.3,15.4-5.7,15.5-17.3,19.8-26.9,14.6v3.9s17.5,8.1,29-8.4c5.4-7.8,8.4-17.3,11.4-25.2l12.5.2.9-3.9h-12c2.9-6.9,6.2-11.9,12-11.9ZM430.5,64.1l-5.2,10c-1.2,2.3-3.9,3.1-6.2,2l-.4-.2c-2.3-1.2-3.1-3.9-2-6.2,0,0,0,0,0,0l5.2-10c1.2-2.3,3.9-3.1,6.2-2l.4.2c2.3,1.2,3.1,3.9,2,6.2,0,0,0,0,0,0Z"/>
          <path class="cls-1" d="M734.2,52.8c1.9,0,3.5,1.5,3.6,3.5s-1.5,3.5-3.5,3.6c0,0,0,0-.1,0-1.9,0-3.5-1.5-3.6-3.4,0-1.9,1.5-3.5,3.4-3.6,0,0,.1,0,.2,0h0ZM734.1,53.5c-1.5,0-2.7,1.4-2.7,2.9,0,1.5,1.3,2.6,2.7,2.7,1.5,0,2.7-1.2,2.7-2.7,0,0,0,0,0,0,0-1.5-1.1-2.8-2.6-2.8,0,0,0,0,0,0h0ZM733.6,58.1h-.8v-3.5c.4,0,.9-.1,1.3-.1.4,0,.8,0,1.2.3.2.2.4.5.4.7,0,.4-.3.8-.7.8h0c.3.1.5.4.6.9,0,.3.1.6.3.9h-.9c-.1-.3-.2-.6-.3-.9,0-.4-.3-.5-.7-.5h-.4v1.4ZM733.6,56.1h.4c.4,0,.8-.1.8-.5s-.2-.5-.7-.5c-.2,0-.3,0-.4,0v1Z"/>
        </g>
      </g>
    </g>
  </g>
</svg>