<?xml version="1.0" encoding="UTF-8"?>
<svg xmlns="http://www.w3.org/2000/svg" version="1.1" xmlns:xlink="http://www.w3.org/1999/xlink" viewBox="0 0 1030 144">
  <defs>
    <style>
      .cls-1 {
        fill: #fff;
      }

      .cls-2 {
        fill: none;
      }

      .cls-3 {
        clip-path: url(#clippath);
      }
    </style>
    <clipPath id="clippath">
      <rect class="cls-2" width="1030" height="144"/>
    </clipPath>
  </defs>
  <!-- Generator: Adobe Illustrator 28.7.8, SVG Export Plug-In . SVG Version: 1.2.0 Build 200)  -->
  <g>
    <g id="Layer_1">
      <g class="cls-3">
        <g>
          <path class="cls-1" d="M602.3,42.3l.3-.5-.3.5c-5.3-3.7-13-5.4-20.5-5.4-17.1,0-29.3,8.5-37.3,20.5-8,12-11.7,27.4-11.7,41.2s1.5,19.2,7.5,27.6c3,4.1,10.1,13.9,33.3,13.9,16.1,0,23.7-4.2,27.9-6.6l.7-.9c.8-3.6,3.5-19.7,4.6-23.8l-.8-.6c-8.1,6.5-17,11.3-27.1,11.3s-11.9-1.6-15.4-4.7c-3.5-3.1-5.2-7.7-5.2-13.3s.2-4,.3-6.1v-.5c0,0,.5,0,.5,0,15.8-.4,23.8-.6,37-.6s9.2,0,15.1,0l1-.7c1.3-6.2,2.7-13.2,2.7-21.9s-.8-21.4-12.6-29.1ZM591.8,76.1v.5c0,0-15.5.2-15.5.2l-15.3.2v-.5c.1,0,.2-.2.2-.2.3-1.1.6-2.3,1-3.5,1.1-3.4,2.6-7.1,5.2-10.5.5-.6,1-1.2,1.5-1.7,4.7-5.2,9.2-6,12.1-6s7.1,1.6,9,4.1c.3.4.6.9.9,1.3,1,1.6,1.5,3.5,1.7,5.4.1.7.1,1.4.1,2.1,0,2.9-.5,5.8-1,8.6ZM531.8,58.5l-1.1,1-15.2-.4-7.1,33.4c-1,4.2-3.1,14.6-3.1,18,0,3.1,1.2,5.3,2.8,6.6,1.6,1.3,3.7,1.7,5.5,1.7,4.2,0,5.7-1.2,8.5-2.3l.5.5-3.7,19.3-1.3,1.3c-5.2,1.1-9.1,2-14.6,2-14.2,0-24.4-4.9-24.4-21.5,0-7.8,3.1-21.9,5.4-32.5l5.6-26.5-12,.4-.7-1,3.5-18.7,1.1-.6h12.1l4.9-24.6.9-1.1c12.2-3.1,15.7-4.6,26.7-8.3l.6.7-3.7,15.9-3.8,17.9,15.6-.5.4.8-3.6,18.6ZM719.5,27l-.8.9h-40.2c0,0-6.5,33.7-6.5,33.7l35.2-1.1.5.8c-2.9,9.7-3.6,12.4-5.5,20.9l-.9.9h-33.4c0,0-4.4,23.3-4.4,23.3l-5.6,30.4-.7.7-28.8.7-.4-.7,5-25.9,7.6-36.6c5.8-28.4,7.4-37.5,12.8-68.4l.9-.9h42.1l26.7-.7.5.7-4.1,21.1ZM776.3,43.4c-5.6-4-14.5-6-26.7-6s-12.1.6-18.3,1.8c-5.5,1-8.9,1.9-11.8,2.8l-.8.8-4,20.5,1.3.8c2.5-1.2,6.3-2.6,11.2-4.4,5-1.8,9.7-2.7,13.9-2.7,6.1,0,10.8.8,14,2.6,3.3,1.8,5.6,5.7,5.6,10,0,1.1,0,2-.2,2.8-.2.8-.3,1.4-.3,1.7v.4c0,0-2,.1-4.2.3-1.4.1-3.2.3-5.2.6-3.4.4-7.2.8-10.6,1.4-8.1,1.4-30.8,4.9-37.6,20.2-7.1,12.6-5.9,29.2,1.1,37.3,2.5,2.9,6.3,5.6,11.4,6.6h0c.2,0,1,.2,1.2.2,19.6,3.1,33.7-14.2,33.7-14.2l-2.1,10.6.9.7,22.1-.7.9-.8,13-65.7c.3-1.4.5-3,.7-4.9.1-1.9.2-3.4.2-4.5,0-8.4-3.8-14.3-9.4-18.2ZM753.5,109.1s-5.3,8.3-12.9,11.3c-7.6,3-13.1.6-15.3-2.3-1.7-2.3-5.4-9.7,1.5-17.9,7-8.3,30-8.9,30-8.9l-3.3,17.8ZM860.7,36.1l-5.4,28.3-1.1,1.2c-1.5-.3-3.5-.5-5.8-.5-7.3,0-17.6,2.4-25.8,13.2h0c0,0-11.2,58.7-11.2,58.7l-.8.7-24.2.7-.6-.6,19.1-98.4,1-1,24-2.3.9,1-2.8,14.3,1.2-1.1c5-4.6,9.5-7.7,14.4-10.6,4.9-2.9,9.9-4.3,14.8-4.3s1,0,1.5,0l.8.8ZM990.5,60.9c0,5.9-1.3,12.1-2.6,18.1l-11.3,57.9-.9.7-25.4.9-.6-.9s13-64,13-67.1-1.5-10.7-9.6-10.7-12.9,6.5-12.9,6.5l-13.7,70.6-.8.7-10.9.4-9.8.3-4.8.2-.3-.4-.3-.5s2-9.7,4.4-21.8h0c3.8-18.9,8.6-43.4,8.6-45.3,0-2.9-1.5-10.7-9.6-10.7s-12.9,6.5-12.9,6.5l-13.7,70.6-.9.7h-3.9c0,.1-21.6.9-21.6.9l-.6-.9,19-98.4,1-1,25.3-2.4,1,1-2.7,13.8s12.2-13.5,27.8-13.8c14.5-.3,17.6,13.8,17.6,13.8,0,0,14.5-14.1,29.9-13.8,7.8,0,22.3,3.5,22.3,23.9ZM460.6,43.4c-5.6-4-14.5-6-26.7-6s-12.1.6-18.2,1.8c-5.5,1-8.9,1.9-11.8,2.8l-.8.8-4,20.5,1.3.8c2.5-1.2,6.3-2.6,11.2-4.4,5.1-1.8,9.7-2.7,13.9-2.7,6.1,0,10.8.8,14,2.6,3.3,1.8,5.6,5.7,5.6,10s0,2-.2,2.8c-.2.8-.3,1.4-.3,1.7v.4c0,0-2,.1-4.1.3-1.4.1-3.2.3-5.2.6-3.4.4-7.2.8-10.6,1.4-8.1,1.4-30.8,4.9-37.6,20.2-7.1,12.6-5.9,29.2,1.1,37.3,2.5,2.9,6.2,5.6,11.4,6.6h0c.2,0,1,.2,1.2.2,19.7,3.1,33.8-14.2,33.8-14.2l-2.1,10.6.9.7,22.1-.7.9-.8,13-65.7c.3-1.4.5-3,.7-4.9.1-1.9.2-3.4.2-4.5,0-8.4-3.8-14.3-9.4-18.2ZM437.9,109.1s-5.3,8.3-12.9,11.3c-7.6,3-13.1.6-15.3-2.3-1.7-2.3-5.3-9.7,1.5-17.9,6.9-8.3,30-8.9,30-8.9l-3.3,17.8ZM384.7,58.5l-1.1,1-15.2-.4-7,33.4c-1,4.2-3.2,14.6-3.2,18,0,3.1,1.2,5.3,2.8,6.6,1.6,1.3,3.7,1.7,5.5,1.7,4.2,0,5.7-1.2,8.5-2.3l.5.5-3.7,19.3-1.3,1.3c-5.2,1.1-9.1,2-14.6,2-14.1,0-24.4-4.9-24.4-21.5,0-7.8,3.1-21.9,5.4-32.5l5.6-26.5-12,.4-.7-1,3.5-18.7,1.1-.6h12.1l4.9-24.6,1-1.1c12.1-3.1,15.7-4.6,26.8-8.3l.6.7-3.7,15.9-3.8,17.9,15.6-.5.4.8-3.6,18.6ZM327.5,13.1l-4.6,24-1,.3c-1.8-2.6-3-3.6-5.5-5.6-5.7-4.4-12.4-6.9-19.3-6.9s-9.9,1.7-13,4.5c-3.1,2.8-4.9,6.8-4.9,11.3,0,8.5,5.8,12.6,16,18.8l4,2.3c8.6,5.7,21.9,14.3,21.9,34,0,22.4-14.3,44.8-48.4,44.9-8.4,0-16.6-1.5-24.4-4.5-5.3-2.1-7.9-3.8-11.1-6.2l-.3-1.5,4.5-23.4,1-.3c2.1,2.7,4.6,4.9,8.5,7.4,8.2,5.5,16.1,6.1,19.5,6.1,12.1,0,21.5-6.9,21.5-17.7,0-9.6-7.6-14.5-15.5-19.2l-5.5-3.4c-8.6-5.7-20.5-13.4-20.6-32.7,0-7.4,2.1-18.1,8.7-26.8,8.6-11.5,22.1-15.6,35.8-15.6s27.6,6.3,32.3,9.3l.5,1ZM80.6,55.4c6.9,4.3,16.6,7,27.6,7s20.7-2.7,27.8-7c7-4.3,11.2-10.1,11.2-16.2,0-6.1-4.1-11.9-11.2-16.1-7-4.3-16.8-6.9-27.7-6.9-10.9,0-20.7,2.7-27.6,6.9-7,4.3-11,10-11.1,16.1,0,6.2,4.1,11.9,11,16.2ZM82.4,88.5c-7-4.3-16.8-6.9-27.7-6.9s-20.7,2.7-27.6,6.9c-7,4.3-11,10-11.1,16.1,0,6.2,4.1,11.9,11,16.3,6.9,4.3,16.6,7,27.6,7,10.9,0,20.8-2.8,27.8-7,7-4.3,11.2-10.1,11.2-16.2,0-6.1-4.2-11.8-11.2-16.1ZM189.4,88.5c-7-4.3-16.8-6.9-27.7-6.9s-20.7,2.7-27.6,6.9c-7,4.3-11,10-11,16.1,0,6.1,4.1,11.9,11,16.2,6.9,4.3,16.6,7,27.6,7,10.9,0,20.8-2.8,27.8-7,7-4.3,11.2-10.1,11.2-16.2,0-6.1-4.1-11.8-11.2-16.1ZM161.5,65.5c-4.9,0-9.7.5-14.3,1.3,9.9-7.1,16-16.9,16-27.8C163.3,17.3,138.7,0,108.2,0,77.8,0,53.5,17.3,53.5,39.1s6,20.6,15.8,27.8c-4.6-.9-9.5-1.3-14.5-1.3C24.3,65.5,0,82.9,0,104.6s24.2,39.4,54.7,39.4,47.7-12.8,53.6-30c5.8,17.2,27.2,30,53.1,30s55.2-17.7,55.2-39.4-24.6-39.1-55.1-39.1ZM63.4,39.1c0-9.8,7.4-16.4,11.8-19.5,8.7-6.2,20.4-9.6,33.1-9.6s24.5,3.4,33.2,9.6c4.4,3.1,11.9,9.7,11.9,19.5-.1,16.3-21,29.4-45.3,29.4-12.6,0-24.3-3.4-32.9-9.7-7.5-5.4-11.8-12.4-11.8-19.7ZM54.7,134c-12.6,0-24.3-3.4-33-9.7-7.5-5.4-11.7-12.4-11.7-19.7,0-9.8,7.4-16.4,11.8-19.5,8.7-6.2,20.4-9.5,33.1-9.6,12.7,0,24.5,3.4,33.2,9.6,4.4,3.1,11.9,9.7,11.9,19.5-.1,16.3-21,29.3-45.3,29.4ZM108.3,95.2c-2.4-6.9-7.4-13.1-14.1-18,4.4.8,9.1,1.3,13.9,1.3s9.7-.5,14.3-1.3c-6.8,4.9-11.7,11.1-14.1,18.1ZM161.4,134c-12.6,0-24.3-3.4-33-9.7-7.5-5.4-11.8-12.4-11.8-19.7,0-9.8,7.4-16.4,11.8-19.5,8.7-6.2,20.4-9.5,33.1-9.6,12.7,0,24.5,3.4,33.3,9.6,4.4,3.1,11.8,9.7,11.9,19.5-.1,16.3-21,29.3-45.2,29.4Z"/>
          <path class="cls-1" d="M1030,56.7c0,8.7-6.3,15.2-14.5,15.2-8.1,0-14.3-6.7-14.3-15.4,0-8.9,6.2-15.3,14.6-15.2,8.1,0,14.3,6.8,14.2,15.4ZM1003.1,56.4c0,7.4,5.5,13.5,12.4,13.6,6.9,0,12.6-5.9,12.6-13.4,0-3.6-1.3-7.2-3.5-9.6-2.2-2.4-5.6-3.9-8.7-3.9-7.3,0-12.7,5.6-12.8,13.3ZM1015,47.9c1.8,0,2.7.1,3.7.5,1.8.6,3,2.4,2.9,4.3,0,2.1-1.3,3.7-3.4,4.4l3.4,8.3h-2.4s-3.2-7.9-3.2-7.9h-.2s-1.5,0-1.5,0h-1.6s-.3,0-.3,0v7.8c0,0-2.3,0-2.3,0l.2-17.4h4.6ZM1014.8,55.6c2.1,0,2.9-.1,3.6-.6.7-.5,1.1-1.3,1.1-2.3,0-1.3-.5-2.2-1.6-2.6-.6-.3-1.5-.4-3.4-.4h-1.8s0,5.8,0,5.8h2.3Z"/>
        </g>
      </g>
    </g>
  </g>
</svg>