<svg width="51" height="50" viewBox="0 0 51 50" fill="none" xmlns="http://www.w3.org/2000/svg">
<path d="M32.5548 46.678C32.5009 46.1689 32.5003 46.1694 31.9833 46.1697C30.2431 46.1709 28.5028 46.167 26.7626 46.1778C26.5072 46.1793 26.391 46.1156 26.4191 45.8456C26.4371 45.6772 26.437 45.5074 26.4189 45.339C26.3868 45.0527 26.4942 44.9648 26.7841 44.9669C28.4852 44.9794 30.1866 44.973 31.8879 44.973H32.2906C32.2637 44.8184 32.2457 44.6623 32.2368 44.5057C32.2393 44.184 32.0924 44.109 31.7786 44.1131C30.2801 44.1328 28.7813 44.123 27.2826 44.1234C26.4134 44.1236 26.4221 44.1234 26.417 43.2639C26.4155 43.0061 26.4884 42.921 26.7557 42.9226C28.3964 42.9334 30.0373 42.9269 31.6781 42.926C31.7849 42.926 31.8916 42.926 32.0433 42.926C31.9986 42.6143 31.9598 42.345 31.9186 42.0577C31.7546 42.0577 31.6163 42.0577 31.478 42.0577C29.9069 42.058 28.3358 42.0541 26.7647 42.0627C26.5152 42.0641 26.3899 42.0035 26.4188 41.7298C26.4353 41.5513 26.4355 41.3717 26.4196 41.1932C26.4012 40.9518 26.4833 40.8622 26.7403 40.8642C28.2326 40.8758 29.725 40.8706 31.2174 40.871C31.743 40.8711 31.7348 40.8718 31.6787 40.3594C31.6514 40.1108 31.5702 40.0058 31.2897 40.0093C29.9281 40.0261 28.5661 40.017 27.2042 40.017C26.4186 40.017 26.4315 40.0165 26.4157 39.2258C26.4097 38.9264 26.4955 38.832 26.8015 38.8353C28.2141 38.8504 29.627 38.8419 31.0398 38.8419H31.425C31.4015 38.6402 31.3707 38.4864 31.3682 38.332C31.3635 38.0484 31.2275 37.9778 30.9546 37.981C29.7222 37.9955 28.4895 37.9874 27.2569 37.9875C26.4168 37.9875 26.4266 37.9875 26.4168 37.1381C26.4136 36.8692 26.485 36.777 26.7671 36.78C28.1001 36.7942 29.4334 36.7866 30.7666 36.7868H31.11C31.2417 36.1409 31.0864 35.9381 30.4939 35.9381C29.2404 35.9381 27.9867 35.9337 26.7332 35.9416C26.504 35.943 26.4017 35.8736 26.4198 35.635C26.4345 35.4464 26.4344 35.257 26.4195 35.0685C26.3996 34.8258 26.4828 34.7413 26.7373 34.7434C27.9946 34.7543 29.2521 34.7474 30.5095 34.7433C30.6309 34.7369 30.752 34.724 30.8721 34.7046C30.8485 34.5064 30.8263 34.3497 30.812 34.1922C30.7903 33.9539 30.6856 33.8637 30.4266 33.8678C29.3627 33.8843 28.2984 33.8773 27.2342 33.8724C26.419 33.8687 26.4321 33.8641 26.4156 33.0577C26.4094 32.7575 26.4956 32.6633 26.8004 32.6677C27.9434 32.6842 29.0868 32.6762 30.23 32.6713C30.33 32.6716 30.4287 32.6477 30.5176 32.6018C30.5183 32.3661 30.4913 32.1312 30.4372 31.9019C30.4239 31.8511 30.2319 31.8253 30.122 31.8249C28.99 31.8211 27.858 31.8227 26.7259 31.8299C26.5128 31.8316 26.4091 31.7709 26.4202 31.5442C26.4317 31.3256 26.4313 31.1065 26.419 30.888C26.4065 30.6776 26.4952 30.6058 26.6983 30.6078C27.6436 30.6172 28.5891 30.6189 29.5346 30.6229C29.7777 30.6239 30.0209 30.623 30.3004 30.623C30.2785 30.4209 30.2522 30.2663 30.247 30.1109C30.238 29.8395 30.1213 29.7478 29.8392 29.7546C28.9845 29.7751 28.129 29.7628 27.274 29.7629C26.3968 29.7631 26.4035 29.763 26.4181 28.8718C26.4219 28.6352 26.5038 28.5686 26.7366 28.5715C27.7015 28.5838 28.6666 28.5775 29.6317 28.576C29.7478 28.5758 29.8639 28.5638 30.0017 28.5561C29.9801 28.3607 29.9532 28.1961 29.9456 28.0304C29.9344 27.7805 29.8244 27.6911 29.5664 27.703C29.1008 27.7245 28.6334 27.7007 28.167 27.7114C27.9329 27.7168 27.823 27.6647 27.8514 27.3936C27.8989 26.9398 27.907 26.482 27.9316 26.0258C28.0847 23.1807 28.2377 20.3355 28.3907 17.4904C28.4123 17.0883 28.4332 16.6862 28.4553 16.2681H26.9695C26.9849 16.5592 26.9963 16.8254 27.0141 17.0913C27.0266 17.2785 27.053 17.4447 26.7648 17.4438C26.5124 17.4431 26.4168 17.3784 26.4173 17.1077C26.4246 12.5819 26.4264 8.05615 26.4227 3.53039V3H26.3512C26.3381 3.0756 26.323 3.15093 26.3124 3.22687C26.2186 3.89561 26.1285 4.56491 26.0316 5.23319C25.785 6.93351 25.5323 8.6329 25.288 10.3335C25.0169 12.2213 24.75 14.1096 24.4873 15.9986C24.4618 16.1816 24.3827 16.2555 24.194 16.2478C23.8961 16.2354 23.5972 16.2473 23.2988 16.2434C23.1342 16.2411 23.0799 16.2975 23.0904 16.4755C23.1921 18.2093 23.2872 19.9435 23.3759 21.6781C23.435 22.2108 23.449 22.7475 23.4175 23.2826C23.2313 24.8304 22.9872 26.3713 22.7637 27.9146C22.5173 29.6154 22.2699 31.3159 22.0213 33.0164C21.8335 34.3142 21.6477 35.6123 21.4638 36.9107C21.3116 37.9819 21.1643 39.0537 21.011 40.1248C20.7621 41.8653 20.5111 43.6055 20.2581 45.3454C20.1787 45.8887 20.0837 46.4296 19.9912 47H32.5785C32.5703 46.8879 32.5659 46.7826 32.5548 46.678ZM27.5653 27.1664C27.5938 27.7062 27.5938 27.7087 27.0533 27.7066C26.3178 27.7036 26.4264 27.7689 26.4239 27.0687C26.4216 26.4538 26.3523 26.5182 26.9839 26.5152C27.5309 26.5127 27.5309 26.515 27.5653 27.1664ZM27.3608 23.5569C27.3325 23.5705 27.3032 23.5815 27.273 23.5898C27.0019 23.5744 26.7309 23.5585 26.4598 23.5421C26.45 23.1877 26.4352 22.8333 26.4369 22.4789C26.4371 22.4362 26.5238 22.3616 26.5749 22.3573C26.7626 22.3403 26.9513 22.3398 27.139 22.3556C27.1743 22.3643 27.2069 22.3818 27.2337 22.4064C27.2606 22.431 27.2808 22.4619 27.2926 22.4964C27.326 22.8483 27.3402 23.2022 27.3608 23.5569ZM27.2467 21.2547C27.2598 21.4131 27.1983 21.4836 27.0305 21.4971C26.4218 21.5458 26.4222 21.551 26.4223 20.9015V20.8125C26.4225 20.3573 26.6173 20.2128 27.0623 20.3558C27.0959 20.3765 27.1245 20.4044 27.146 20.4376C27.1674 20.4707 27.1812 20.5082 27.1864 20.5473C27.2181 20.7816 27.2271 21.0188 27.2467 21.2547ZM26.4243 18.4985C26.427 18.2195 26.6422 18.3037 26.7926 18.2935C26.9431 18.2834 27.0997 18.2794 27.0917 18.5088C27.087 18.6455 27.103 18.7831 27.1125 18.976C27.1122 18.9822 27.1119 19.0111 27.1128 19.0403C27.1257 19.4544 26.955 19.5878 26.5545 19.4607C26.522 19.4454 26.4936 19.4226 26.4716 19.3942C26.4496 19.3657 26.4347 19.3325 26.4282 19.2971C26.4151 19.0315 26.4217 18.7648 26.4243 18.4985ZM26.4223 25.1102C26.4223 24.4597 26.6251 24.302 27.2706 24.4723C27.3104 24.4922 27.3448 24.5214 27.3709 24.5575C27.397 24.5935 27.4141 24.6353 27.4207 24.6793C27.4376 24.9839 27.4277 25.2899 27.4277 25.6649C27.1567 25.6649 26.8736 25.6764 26.593 25.6559C26.532 25.6514 26.4489 25.5402 26.43 25.4646C26.4134 25.3472 26.4108 25.2282 26.4223 25.1102Z" fill="#E22727"/>
<path d="M29.2247 26.445C29.3662 26.3385 29.6869 26.611 29.6842 26.2148C29.6807 25.6772 29.597 25.5737 29.2019 25.5733C28.7568 25.5728 28.7618 25.5729 28.7471 26.1796C28.737 26.5951 29.0568 26.3563 29.2247 26.445Z" fill="#E22727"/>
<path d="M29.448 24.3485C29.4021 24.0567 29.3603 23.7911 29.3162 23.5107C29.1287 23.5437 28.9157 23.444 28.8901 23.706C28.8703 23.9095 28.8861 24.1164 28.8861 24.3485H29.448Z" fill="#E22727"/>
</svg>
