<svg width="51" height="50" viewBox="0 0 51 50" fill="none" xmlns="http://www.w3.org/2000/svg">
<g clip-path="url(#clip0_385_18375)">
<path d="M6.09914 11.1994C6.10078 11.2499 6.11302 11.3 6.12268 11.3664C6.20847 11.3137 6.27302 11.2724 6.33907 11.2336C6.92253 10.891 7.54571 10.6981 8.23321 10.7457C8.81468 10.7859 9.35398 10.9689 9.8559 11.2466C10.7168 11.7229 11.5666 12.2189 12.4219 12.7051C15.6906 14.5632 18.9596 16.4207 22.2288 18.2779C22.2752 18.3042 22.326 18.3229 22.3946 18.3543C22.854 16.4164 23.3092 14.4979 23.7637 12.5792C24.2184 10.6594 24.6681 8.7384 25.1487 6.82234C25.1872 6.89095 25.207 6.95681 25.223 7.02358C25.529 8.30087 25.8368 9.57775 26.1367 10.8564C26.1654 10.9786 26.2228 11.0499 26.3289 11.1073C26.5824 11.2444 26.8316 11.3891 27.0821 11.5316C31.3706 13.9704 35.6592 16.4092 39.9473 18.8487C40.3321 19.0676 40.7134 19.2915 41.1325 19.4451C41.7048 19.6548 42.2867 19.762 42.8955 19.6341C43.3783 19.5326 43.8124 19.3227 44.2303 19.0699C44.3692 18.9858 44.4131 18.8924 44.4065 18.7327C44.3727 17.9206 44.353 17.1079 44.3281 16.2954C44.3186 15.9847 44.3085 15.6741 44.2982 15.3461C44.0606 15.4672 43.8528 15.583 43.6368 15.6814C42.9144 16.0105 42.1745 16.0637 41.4123 15.8172C41.0077 15.6863 40.6238 15.5153 40.2563 15.3062C38.424 14.2634 36.5924 13.2192 34.76 12.1763C33.0009 11.1752 31.2418 10.1741 29.4805 9.17673C29.3793 9.1194 29.3268 9.05029 29.2978 8.94103C29.0787 8.11489 28.8535 7.29031 28.6316 6.46486C28.5732 6.2475 28.605 6.18751 28.8123 6.1238C29.3576 5.95624 29.9031 5.78953 30.4495 5.62544C30.7106 5.54701 30.8809 5.64518 30.9639 5.90947C30.9903 5.99371 31.0263 6.07508 31.0686 6.18562C31.1992 6.13991 31.3129 6.10014 31.4236 6.06139C31.4236 5.67368 31.4272 5.31266 31.4214 4.95178C31.4196 4.8417 31.4026 4.72918 31.3738 4.62268C31.2138 4.0319 30.6969 3.63099 30.0707 3.62109C29.527 3.61249 28.983 3.61858 28.4392 3.61822C28.3621 3.61817 28.2851 3.61822 28.2184 3.61822C28.1937 3.58777 28.1788 3.57269 28.1677 3.55535C27.9138 3.16058 27.5438 2.99756 27.0761 3.00003C25.9601 3.00594 24.8441 2.99943 23.7281 3.00487C23.5753 3.0056 23.4155 3.0246 23.2713 3.07172C22.8435 3.21151 22.6156 3.5326 22.5098 3.94852C21.7308 7.01333 20.9526 10.0784 20.1735 13.1432C20.1572 13.2075 20.1327 13.2699 20.1068 13.3495C19.9987 13.29 19.9066 13.2407 19.8159 13.1891C16.7311 11.4343 13.6467 9.67883 10.5615 7.92463C10.1526 7.6921 9.75037 7.44892 9.30922 7.2734C8.17624 6.82261 7.12654 6.99291 6.13631 7.65911C6.05403 7.71447 5.98566 7.76243 5.99157 7.88702C6.01825 8.4491 6.03141 9.01179 6.04889 9.57428C6.06571 10.116 6.08145 10.6578 6.09914 11.1994Z" fill="#163057"/>
<path d="M44.3125 20.3787C44.31 20.2914 44.2976 20.2044 44.2899 20.1192C44.2628 20.1192 44.2542 20.1165 44.2489 20.1196C44.2003 20.1475 44.1521 20.1759 44.1043 20.205C43.2397 20.7317 42.325 20.8754 41.3475 20.5612C40.9017 20.4179 40.4962 20.1983 40.0925 19.9672C38.0562 18.8012 36.015 17.6435 33.9754 16.483C31.5328 15.0932 29.0902 13.7034 26.6473 12.3142C26.5972 12.2858 26.543 12.2647 26.4658 12.2285C26.4878 12.3304 26.5011 12.3977 26.5169 12.4644C26.8203 13.7491 27.1248 15.0334 27.4262 16.3184C27.4563 16.4467 27.5108 16.5329 27.6363 16.6041C31.7614 18.9442 35.8822 21.2915 40.0074 23.6315C40.3849 23.8457 40.7773 24.041 41.1796 24.205C41.7363 24.4319 42.3198 24.5214 42.92 24.3823C43.3847 24.2746 43.8092 24.075 44.2157 23.8311C44.3567 23.7464 44.4132 23.6534 44.4067 23.4821C44.3673 22.4479 44.3431 21.4132 44.3125 20.3787Z" fill="#163057"/>
<path d="M40.3164 28.564C40.6658 28.7627 41.0319 28.9248 41.4165 29.0441C41.8804 29.188 42.3513 29.2477 42.8356 29.1518C43.3486 29.0501 43.8069 28.8273 44.2494 28.5621C44.3746 28.4871 44.411 28.3989 44.4061 28.2576C44.3701 27.23 44.3435 26.2022 44.3126 25.1745C44.3095 25.0733 44.2975 24.9723 44.29 24.8762C44.2625 24.8725 44.2535 24.8684 44.2488 24.8712C44.1824 24.9102 44.1169 24.9509 44.0506 24.99C43.4409 25.3498 42.7866 25.5408 42.0718 25.468C41.5027 25.41 40.9722 25.2214 40.4775 24.9428C39.6816 24.4946 38.8916 24.0364 38.0979 23.5844C34.8924 21.7592 31.6866 19.9348 28.4807 18.1102C28.2556 17.9821 28.0292 17.8562 27.7666 17.7085C27.7785 17.7805 27.7812 17.8071 27.7873 17.8329C28.1006 19.1509 28.4171 20.4681 28.724 21.7876C28.7604 21.9441 28.8304 22.0398 28.9715 22.1189C29.94 22.6619 30.9037 23.2129 31.8688 23.7616C34.6847 25.3623 37.5006 26.9631 40.3164 28.564Z" fill="#163057"/>
<path d="M22.1751 19.2907C22.0883 19.2393 22.023 19.1993 21.9564 19.1614C18.0481 16.9374 14.1395 14.7138 10.2314 12.4894C9.80858 12.2488 9.36971 12.0446 8.89987 11.9095C8.55915 11.8116 8.21367 11.7523 7.85589 11.784C7.2048 11.8418 6.63759 12.1121 6.0944 12.4469C6.01246 12.4974 5.98982 12.559 5.99385 12.6544C6.01673 13.1957 6.03217 13.7374 6.04818 14.279C6.06605 14.8828 6.08181 15.4867 6.09961 16.1307C6.19429 16.0787 6.25268 16.0422 6.31482 16.0135C6.5761 15.8927 6.83222 15.7577 7.10189 15.6586C7.63125 15.4642 8.17445 15.4409 8.72478 15.5802C9.22042 15.7057 9.68618 15.9007 10.1277 16.1518C13.6643 18.1627 17.2 20.1752 20.736 22.187C20.9492 22.3083 21.163 22.4284 21.4024 22.5637C21.663 21.4598 21.9192 20.3749 22.1751 19.2907Z" fill="#163057"/>
<path d="M15.3118 35.1203C14.6229 35.1227 13.95 35.116 13.2646 35.125C13.2646 35.2435 13.2646 35.3334 13.2646 35.4233C13.2646 37.759 13.2645 40.0948 13.2647 42.4306C13.2647 42.8429 13.2222 43.2504 13.0911 43.6432C12.8691 44.3083 12.4519 44.8002 11.759 45.0224C11.188 45.2055 10.6082 45.2186 10.0283 45.0554C9.5995 44.9347 9.25287 44.6944 8.98751 44.3426C8.74804 44.0252 8.60195 43.6657 8.51211 43.283C8.42431 42.9091 8.38785 42.5292 8.38783 42.1457C8.38771 39.8934 8.38785 37.641 8.38748 35.3887C8.38748 35.302 8.3831 35.2153 8.38069 35.1266H6.11721V35.3547C6.11721 37.6974 6.11309 40.0401 6.11985 42.3828C6.12175 43.0444 6.19409 43.7002 6.39748 44.3364C6.75931 45.4683 7.47947 46.2691 8.62401 46.6798C9.1254 46.8597 9.64643 46.9423 10.1761 46.9792C10.9138 47.0306 11.6448 46.9933 12.3579 46.7866C13.4499 46.47 14.2652 45.8218 14.7772 44.8121C15.1608 44.0555 15.3154 43.246 15.3193 42.412C15.3304 40.0554 15.3233 37.6988 15.3228 35.3421C15.3228 35.2744 15.3162 35.2066 15.3118 35.1203Z" fill="#163057"/>
<path d="M30.0421 27.3569C30.0696 27.4751 30.1355 27.5316 30.2307 27.5857C33.4813 29.4321 36.7316 31.279 39.9806 33.1281C40.3902 33.3612 40.8008 33.5893 41.2498 33.7438C41.7711 33.9232 42.2998 34.016 42.8504 33.9041C43.3478 33.8031 43.795 33.5875 44.227 33.3318C44.3645 33.2504 44.4129 33.159 44.4066 32.9974C44.3704 32.0741 44.3487 31.1502 44.3207 30.2265C44.3147 30.0275 44.3029 29.8287 44.2926 29.6041C44.2132 29.6511 44.1601 29.6819 44.1076 29.7138C43.221 30.2519 42.2865 30.3886 41.2896 30.0523C40.8386 29.9003 40.432 29.6678 40.0223 29.4342C36.5183 27.4365 33.0114 25.4439 29.5051 23.4502C29.3718 23.3744 29.2363 23.3026 29.0815 23.2178C29.0889 23.2813 29.0896 23.3218 29.0987 23.3603C29.4138 24.6924 29.7318 26.0237 30.0421 27.3569Z" fill="#163057"/>
<path d="M10.1916 17.2261C9.85715 17.0367 9.49938 16.882 9.14036 16.741C8.75176 16.5883 8.34088 16.502 7.91907 16.5309C7.23864 16.5776 6.64109 16.8518 6.07833 17.2129C6.01067 17.2563 5.99021 17.3085 5.99262 17.3866C6.02199 18.3308 6.0472 19.2751 6.0758 20.2193C6.0822 20.4314 6.09745 20.6432 6.10835 20.8496C6.13331 20.8554 6.14188 20.8604 6.14629 20.858C6.2326 20.8111 6.31806 20.7628 6.40444 20.7161C7.01676 20.385 7.66071 20.1748 8.36958 20.2681C8.94265 20.3435 9.47736 20.5463 9.97685 20.8265C11.1778 21.5001 12.3723 22.185 13.5692 22.8656C15.7921 24.1295 18.0148 25.3936 20.238 26.6571C20.2892 26.6862 20.3447 26.7078 20.4132 26.74C20.6719 25.6422 20.925 24.5684 21.1825 23.476C20.8168 23.2666 20.4703 23.067 20.1227 22.8693C16.8132 20.9869 13.5049 19.1023 10.1916 17.2261Z" fill="#163057"/>
<path d="M8.81369 25.1104C9.2223 25.2251 9.61623 25.3774 9.98503 25.5853C10.9339 26.12 11.8803 26.659 12.827 27.1973C14.9711 28.4164 17.1148 29.6362 19.259 30.8551C19.3052 30.8814 19.3553 30.9008 19.4213 30.9318C19.6813 29.833 19.9364 28.7542 20.1927 27.6706C20.1027 27.6175 20.0314 27.5742 19.9589 27.533C16.6793 25.6668 13.4 23.8001 10.1194 21.9357C9.73353 21.7164 9.32743 21.5384 8.89764 21.4181C8.55665 21.3227 8.21128 21.2604 7.85346 21.2933C7.20304 21.3532 6.63396 21.6185 6.09303 21.9584C6.02053 22.004 5.9895 22.0559 5.99237 22.1454C6.02276 23.0898 6.04732 24.0344 6.07586 24.9789C6.08223 25.1897 6.09794 25.4003 6.1103 25.6287C6.31607 25.5214 6.49306 25.4227 6.67563 25.3352C7.36019 25.0071 8.0705 24.9019 8.81369 25.1104Z" fill="#163057"/>
<path d="M22.0164 40.4274C21.4595 40.1741 20.9031 39.9195 20.3515 39.6554C20.0188 39.4961 19.7209 39.2863 19.4919 38.9928C18.9726 38.3273 19.1262 37.4736 19.8456 37.023C20.1892 36.8078 20.5713 36.7158 20.9706 36.6987C21.9623 36.6561 22.873 36.8921 23.6737 37.489C23.7504 37.5461 23.8336 37.5949 23.9386 37.6638V35.5918C23.5778 35.4082 22.9767 35.2125 22.4228 35.0952C21.2967 34.8568 20.1904 34.9112 19.1157 35.3338C18.3536 35.6335 17.7256 36.1009 17.324 36.8226C16.9993 37.4061 16.8957 38.0359 16.9433 38.6951C16.9894 39.3338 17.2241 39.8942 17.6477 40.3794C18.0221 40.8082 18.4825 41.1262 18.9924 41.3754C19.6495 41.6964 20.3132 42.0041 20.971 42.3237C21.1219 42.3971 21.268 42.4853 21.4034 42.5839C22.1656 43.1385 22.194 44.2924 21.3554 44.8363C20.9807 45.0794 20.572 45.2171 20.1214 45.2168C19.1769 45.2163 18.2725 45.0235 17.4075 44.6526C17.2025 44.5647 17.0038 44.4623 16.7751 44.3537C16.7957 44.605 16.8124 44.8316 16.8331 45.0578C16.8749 45.5145 16.9219 45.9708 16.9597 46.4277C16.9686 46.5345 17.0126 46.5938 17.1146 46.6197C17.2852 46.663 17.4537 46.7156 17.6259 46.7514C18.557 46.9446 19.5015 46.9838 20.4488 46.969C21.0475 46.9597 21.6267 46.8392 22.1746 46.5975C23.2213 46.1357 23.9463 45.3866 24.2103 44.2711C24.4862 43.1058 24.2012 42.0826 23.3121 41.2438C22.9352 40.8883 22.4868 40.6414 22.0164 40.4274Z" fill="#163057"/>
<path d="M49.7144 36.038C48.9201 34.6895 47.0265 34.4167 45.8412 35.4799C44.9873 36.2457 44.8808 37.5092 45.6031 38.3966C46.0987 39.0055 46.7609 39.2795 47.3804 39.2969C48.2167 39.2989 48.8349 39.0634 49.2931 38.6307C50.0316 37.9333 50.2044 36.8698 49.7144 36.038ZM48.4359 38.7146C47.5556 39.1317 46.4289 38.8486 45.8843 38.0754C45.4022 37.3909 45.4507 36.529 46.0065 35.9017C46.9023 34.8908 48.6113 35.0388 49.3114 36.1879C49.4744 36.4553 49.5519 36.7451 49.5551 37.0843C49.5137 37.847 49.1313 38.3851 48.4359 38.7146Z" fill="#163057"/>
<path d="M48.3124 36.9632C48.595 36.7148 48.5951 36.3309 48.3029 36.0934C48.203 36.0123 48.0757 35.9527 47.951 35.9145C47.6553 35.8239 47.3509 35.8517 47.0499 35.8929C46.9206 35.9106 46.7941 35.9475 46.6768 35.9733V38.0972H47.3109V37.3502C47.4439 37.2967 47.5182 37.3466 47.5881 37.4282C47.756 37.6246 47.9264 37.819 48.1009 38.0097C48.1403 38.0527 48.1992 38.1035 48.2512 38.1058C48.4809 38.1163 48.7113 38.1103 48.9415 38.1103L48.9529 38.0667C48.6524 37.7606 48.3519 37.4544 48.0501 37.1469C48.1529 37.0757 48.2396 37.0272 48.3124 36.9632ZM47.7785 36.8292C47.6762 37.019 47.4964 36.9695 47.3115 36.9597V36.2659C47.503 36.2501 47.6781 36.2599 47.7947 36.415C47.8947 36.5479 47.8497 36.6972 47.7785 36.8292Z" fill="#163057"/>
<path d="M38.3271 35.1463C38.4214 35.3785 38.5075 35.6129 38.6116 35.8393C38.6863 36.0015 38.6813 36.1438 38.6161 36.3124C37.4363 39.3617 36.2633 42.4135 35.0885 45.4646C35.0163 45.652 34.9418 45.8385 34.8684 46.0255L34.8281 46.0312C33.5108 42.3929 32.1935 38.7546 30.8782 35.1219H28.4142C28.4432 35.2054 28.4631 35.271 28.4885 35.3343C28.5688 35.5345 28.6476 35.7354 28.7345 35.9328C28.7767 36.0285 28.7763 36.112 28.7381 36.2112C27.814 38.6061 26.8935 41.0023 25.9719 43.3981C25.5723 44.4369 25.1716 45.4753 24.7723 46.5142C24.7467 46.5808 24.7285 46.6503 24.7041 46.727H26.9228C27.1619 46.0523 27.3985 45.3849 27.6358 44.7155H31.8875C32.1278 45.3936 32.3659 46.0656 32.6008 46.7287H36.8323C37.074 46.0517 37.3139 45.3798 37.5518 44.7135H41.8009C41.9202 45.0506 42.0383 45.3839 42.1562 45.7172C42.2762 46.0566 42.396 46.3961 42.5124 46.7259C43.0264 46.7689 44.8078 46.7497 44.977 46.6954C43.579 42.8339 42.1812 38.9729 40.7872 35.1225C40.3461 35.0815 38.4933 35.0985 38.3271 35.1463ZM28.2009 43.121C28.7463 41.6131 29.2856 40.1224 29.8248 38.6315L29.8706 38.6351C30.3508 40.1245 30.8309 41.614 31.3167 43.121H28.2009ZM38.115 43.121C38.6561 41.6191 39.1915 40.1332 39.7268 38.6473L39.7833 38.6492C40.2631 40.1336 40.7428 41.6181 41.2285 43.1209L38.115 43.121Z" fill="#163057"/>
</g>
<defs>
<clipPath id="clip0_385_18375">
<rect width="44" height="44" fill="white" transform="translate(5.99121 3)"/>
</clipPath>
</defs>
</svg>
